G04*
G04 #@! TF.GenerationSoftware,Altium Limited,Altium Designer,26.1.1 (7)*
G04*
G04 Layer_Color=8388736*
%FSLAX44Y44*%
%MOMM*%
G71*
G04*
G04 #@! TF.SameCoordinates,A118C6E1-3479-42CE-8D72-1BDF69DDE12E*
G04*
G04*
G04 #@! TF.FilePolarity,Negative*
G04*
G01*
G75*
%ADD15R,1.8000X1.1500*%
%ADD16R,1.9050X5.0800*%
G04:AMPARAMS|DCode=17|XSize=1.8052mm|YSize=0.6121mm|CornerRadius=0.3061mm|HoleSize=0mm|Usage=FLASHONLY|Rotation=180.000|XOffset=0mm|YOffset=0mm|HoleType=Round|Shape=RoundedRectangle|*
%AMROUNDEDRECTD17*
21,1,1.8052,0.0000,0,0,180.0*
21,1,1.1931,0.6121,0,0,180.0*
1,1,0.6121,-0.5966,0.0000*
1,1,0.6121,0.5966,0.0000*
1,1,0.6121,0.5966,0.0000*
1,1,0.6121,-0.5966,0.0000*
%
%ADD17ROUNDEDRECTD17*%
%ADD18R,1.0160X1.2700*%
%ADD19R,1.2700X1.0160*%
%ADD20R,1.4500X0.9500*%
%ADD21R,0.4500X5.0800*%
%ADD22R,1.8052X0.6121*%
%ADD23R,0.9500X1.4500*%
%ADD24C,2.0000*%
%ADD25R,2.0000X2.0000*%
%ADD26C,4.0000*%
%ADD27C,2.0320*%
%ADD28O,2.0000X4.5000*%
%ADD29R,2.0320X2.0320*%
%ADD30O,2.0000X4.0000*%
%ADD31O,4.0000X2.0000*%
%ADD32C,0.9000*%
D15*
X137500Y345000D02*
D03*
Y315000D02*
D03*
X330000Y317500D02*
D03*
Y347500D02*
D03*
D16*
X668180Y422500D02*
D03*
D03*
X581820D02*
D03*
X918180Y27500D02*
D03*
X831820D02*
D03*
D03*
X668180D02*
D03*
X581820D02*
D03*
D03*
X418180D02*
D03*
X331820D02*
D03*
D03*
X168180D02*
D03*
X81820D02*
D03*
D03*
D17*
X772500Y247500D02*
D03*
X645000D02*
D03*
X556505Y247500D02*
D03*
X772500Y257000D02*
D03*
X749490D02*
D03*
Y238000D02*
D03*
X621990Y257000D02*
D03*
Y238000D02*
D03*
X645000Y257000D02*
D03*
X533495Y238000D02*
D03*
Y257000D02*
D03*
X556505D02*
D03*
D18*
X577660Y280000D02*
D03*
X825160Y180000D02*
D03*
X764160Y216500D02*
D03*
X707660Y180500D02*
D03*
X635660Y215500D02*
D03*
X615340D02*
D03*
Y195500D02*
D03*
X635660D02*
D03*
X687340Y180500D02*
D03*
X743840Y216500D02*
D03*
Y196500D02*
D03*
X764160D02*
D03*
X577660Y300000D02*
D03*
X804840Y180000D02*
D03*
X507660Y247500D02*
D03*
Y267500D02*
D03*
X557340Y280000D02*
D03*
Y300000D02*
D03*
X470160Y247500D02*
D03*
X449840D02*
D03*
X470160Y267500D02*
D03*
X449840D02*
D03*
X487340Y247500D02*
D03*
Y267500D02*
D03*
D19*
X533700Y197340D02*
D03*
X302500Y337660D02*
D03*
X160000Y335160D02*
D03*
X302500Y317340D02*
D03*
X160000Y314840D02*
D03*
X687500Y200340D02*
D03*
Y220660D02*
D03*
Y237840D02*
D03*
Y258160D02*
D03*
X707500Y237840D02*
D03*
Y258160D02*
D03*
X805000Y237340D02*
D03*
X825000D02*
D03*
X805000Y220160D02*
D03*
X585000Y237340D02*
D03*
X507500Y207340D02*
D03*
X805000Y257660D02*
D03*
X825000D02*
D03*
X554650Y197340D02*
D03*
X805000Y199840D02*
D03*
X507500Y227660D02*
D03*
X533700Y217660D02*
D03*
X554650D02*
D03*
X585000Y257660D02*
D03*
D20*
X432500Y287250D02*
D03*
Y227750D02*
D03*
Y247250D02*
D03*
Y267750D02*
D03*
D21*
X625000Y422500D02*
D03*
Y27500D02*
D03*
X875000D02*
D03*
X375000D02*
D03*
X125000D02*
D03*
D22*
X772500Y238000D02*
D03*
X645000D02*
D03*
X556505Y238000D02*
D03*
D23*
X687250Y160000D02*
D03*
X667750D02*
D03*
X824750D02*
D03*
X805250D02*
D03*
D24*
X745000Y325000D02*
D03*
X820000Y300000D02*
D03*
D25*
Y350000D02*
D03*
D26*
X960000Y410000D02*
D03*
Y40000D02*
D03*
X40000Y410000D02*
D03*
Y40000D02*
D03*
D27*
X230000Y327500D02*
D03*
X255400D02*
D03*
D28*
X137000Y225000D02*
D03*
D29*
X204600Y327500D02*
D03*
D30*
X75000Y225000D02*
D03*
D31*
X105000Y175000D02*
D03*
D32*
X330000Y362500D02*
D03*
X850000Y400000D02*
D03*
X900000D02*
D03*
X800000D02*
D03*
X750000Y350000D02*
D03*
X900000D02*
D03*
X950000D02*
D03*
X800000D02*
D03*
X850000D02*
D03*
X700000Y400000D02*
D03*
X750000D02*
D03*
X700000Y350000D02*
D03*
Y300000D02*
D03*
X900000D02*
D03*
X950000D02*
D03*
X850000D02*
D03*
Y250000D02*
D03*
X900000D02*
D03*
X950000D02*
D03*
X794000Y248000D02*
D03*
X750000Y300000D02*
D03*
X778000Y216000D02*
D03*
X640000Y370000D02*
D03*
Y390000D02*
D03*
Y350000D02*
D03*
X610000Y370000D02*
D03*
Y350000D02*
D03*
X640000Y330000D02*
D03*
Y310000D02*
D03*
X610000Y330000D02*
D03*
Y310000D02*
D03*
X500000Y400000D02*
D03*
X550000D02*
D03*
X610000Y390000D02*
D03*
X550000Y350000D02*
D03*
X450000D02*
D03*
X500000D02*
D03*
X640000Y290000D02*
D03*
X610000D02*
D03*
X592500Y280000D02*
D03*
X664229Y247500D02*
D03*
X650000Y215500D02*
D03*
X500000Y300000D02*
D03*
X540000Y247500D02*
D03*
X950000Y200000D02*
D03*
X900000D02*
D03*
Y150000D02*
D03*
X850000Y200000D02*
D03*
X855000Y150000D02*
D03*
X950000D02*
D03*
X885000Y120000D02*
D03*
X870000Y135000D02*
D03*
X845000Y115000D02*
D03*
X840000Y165000D02*
D03*
X815000Y145000D02*
D03*
X830000Y130000D02*
D03*
X750000Y150000D02*
D03*
Y100000D02*
D03*
X950000D02*
D03*
X890000Y80000D02*
D03*
Y100000D02*
D03*
X860000Y60000D02*
D03*
X890000D02*
D03*
X860000Y100000D02*
D03*
Y80000D02*
D03*
X800000Y100000D02*
D03*
X750000Y50000D02*
D03*
X800000D02*
D03*
X655000Y165000D02*
D03*
X640000Y150000D02*
D03*
X550000D02*
D03*
X665000Y135000D02*
D03*
X650000Y120000D02*
D03*
X625000Y135000D02*
D03*
X610000Y120000D02*
D03*
X520000Y197500D02*
D03*
X450000Y200000D02*
D03*
X500000Y100000D02*
D03*
Y150000D02*
D03*
X450000Y100000D02*
D03*
X700000D02*
D03*
X640000Y80000D02*
D03*
Y100000D02*
D03*
X610000Y60000D02*
D03*
X700000Y50000D02*
D03*
X640000Y60000D02*
D03*
X610000Y100000D02*
D03*
Y80000D02*
D03*
X550000Y100000D02*
D03*
X500000Y50000D02*
D03*
X550000D02*
D03*
X450000Y400000D02*
D03*
X400000D02*
D03*
Y350000D02*
D03*
X350000Y400000D02*
D03*
Y350000D02*
D03*
X400000Y300000D02*
D03*
X450000D02*
D03*
X350000D02*
D03*
X302500Y362500D02*
D03*
X300000Y300000D02*
D03*
X415000Y285000D02*
D03*
X375000D02*
D03*
X395000D02*
D03*
X405000Y215000D02*
D03*
X385000Y250000D02*
D03*
X375000Y235000D02*
D03*
X335000Y285000D02*
D03*
X355000D02*
D03*
X315000D02*
D03*
X325000Y250000D02*
D03*
X365000D02*
D03*
X360000Y220000D02*
D03*
X345000Y250000D02*
D03*
X305000Y245000D02*
D03*
X300000Y400000D02*
D03*
X150000D02*
D03*
X160000Y350000D02*
D03*
X200000Y300000D02*
D03*
X100000Y400000D02*
D03*
X137500Y362500D02*
D03*
X50000Y350000D02*
D03*
X100000Y300000D02*
D03*
Y350000D02*
D03*
X50000Y300000D02*
D03*
X295000Y280000D02*
D03*
X280000Y265000D02*
D03*
X250000Y250000D02*
D03*
X265000D02*
D03*
X290000Y230000D02*
D03*
X275000Y215000D02*
D03*
X250000Y235000D02*
D03*
X260000Y200000D02*
D03*
X150000Y250000D02*
D03*
X200000D02*
D03*
X50000D02*
D03*
X100000D02*
D03*
X235000Y220000D02*
D03*
X220000Y205000D02*
D03*
X50000Y200000D02*
D03*
X390000Y160000D02*
D03*
Y180000D02*
D03*
X450000Y150000D02*
D03*
X390000Y200000D02*
D03*
X360000Y140000D02*
D03*
X390000D02*
D03*
Y120000D02*
D03*
X360000D02*
D03*
Y100000D02*
D03*
Y180000D02*
D03*
Y160000D02*
D03*
X300000Y200000D02*
D03*
X360000D02*
D03*
X300000Y150000D02*
D03*
Y100000D02*
D03*
X250000Y150000D02*
D03*
Y100000D02*
D03*
X390000D02*
D03*
Y80000D02*
D03*
X360000D02*
D03*
Y60000D02*
D03*
X450000Y50000D02*
D03*
X390000Y60000D02*
D03*
X250000Y50000D02*
D03*
X300000D02*
D03*
X245000Y185000D02*
D03*
X230000Y170000D02*
D03*
X205000Y190000D02*
D03*
X190000Y175000D02*
D03*
X215000Y155000D02*
D03*
X200000Y140000D02*
D03*
X175000Y160000D02*
D03*
X185000Y125000D02*
D03*
X150000Y200000D02*
D03*
X100000Y150000D02*
D03*
Y200000D02*
D03*
X50000Y150000D02*
D03*
X160000Y145000D02*
D03*
X170000Y110000D02*
D03*
X145000Y130000D02*
D03*
X130000Y115000D02*
D03*
X200000Y100000D02*
D03*
X155000Y95000D02*
D03*
X115000Y100000D02*
D03*
X140000Y80000D02*
D03*
X200000Y50000D02*
D03*
X140000Y60000D02*
D03*
X110000Y80000D02*
D03*
Y60000D02*
D03*
X50000Y100000D02*
D03*
X100000D02*
D03*
X577500Y217500D02*
D03*
X592500Y297500D02*
D03*
X667500Y195500D02*
D03*
X707500D02*
D03*
M02*
