G04*
G04 #@! TF.GenerationSoftware,Altium Limited,Altium Designer,26.1.1 (7)*
G04*
G04 Layer_Color=16711935*
%FSLAX44Y44*%
%MOMM*%
G71*
G04*
G04 #@! TF.SameCoordinates,A118C6E1-3479-42CE-8D72-1BDF69DDE12E*
G04*
G04*
G04 #@! TF.FilePolarity,Positive*
G04*
G01*
G75*
%ADD10C,0.2000*%
G36*
X794023Y324991D02*
X794115D01*
X794207Y324982D01*
X794328Y324972D01*
X794448Y324954D01*
X794716Y324908D01*
X795012Y324843D01*
X795308Y324751D01*
X795594Y324621D01*
X795603Y324612D01*
X795631Y324603D01*
X795668Y324584D01*
X795714Y324547D01*
X795779Y324510D01*
X795853Y324464D01*
X796020Y324344D01*
X796204Y324187D01*
X796389Y324002D01*
X796574Y323789D01*
X796731Y323539D01*
X796741Y323530D01*
X796750Y323502D01*
X796768Y323465D01*
X796796Y323419D01*
X796824Y323345D01*
X796852Y323271D01*
X796889Y323179D01*
X796926Y323077D01*
X796963Y322966D01*
X797000Y322846D01*
X797055Y322587D01*
X797101Y322291D01*
X797120Y321986D01*
Y321894D01*
X797111Y321829D01*
X797101Y321746D01*
X797092Y321644D01*
X797083Y321542D01*
X797055Y321422D01*
X797000Y321172D01*
X796916Y320895D01*
X796861Y320756D01*
X796796Y320627D01*
X796713Y320498D01*
X796630Y320368D01*
X796620Y320359D01*
X796611Y320340D01*
X796583Y320303D01*
X796537Y320257D01*
X796491Y320211D01*
X796426Y320146D01*
X796352Y320081D01*
X796278Y320008D01*
X796186Y319933D01*
X796075Y319860D01*
X795964Y319776D01*
X795844Y319702D01*
X795705Y319638D01*
X795566Y319564D01*
X795419Y319508D01*
X795252Y319453D01*
X795058Y320285D01*
X795067D01*
X795086Y320294D01*
X795123Y320313D01*
X795169Y320331D01*
X795224Y320350D01*
X795298Y320377D01*
X795446Y320451D01*
X795613Y320544D01*
X795779Y320655D01*
X795936Y320793D01*
X796075Y320941D01*
X796094Y320960D01*
X796131Y321015D01*
X796177Y321108D01*
X796241Y321228D01*
X796297Y321385D01*
X796352Y321561D01*
X796389Y321773D01*
X796399Y322005D01*
Y322079D01*
X796389Y322125D01*
Y322189D01*
X796380Y322263D01*
X796352Y322439D01*
X796315Y322633D01*
X796251Y322837D01*
X796158Y323049D01*
X796038Y323243D01*
Y323253D01*
X796020Y323262D01*
X795973Y323327D01*
X795899Y323410D01*
X795788Y323512D01*
X795650Y323632D01*
X795492Y323743D01*
X795298Y323844D01*
X795086Y323937D01*
X795077D01*
X795058Y323946D01*
X795030Y323955D01*
X794984Y323965D01*
X794929Y323983D01*
X794864Y324002D01*
X794707Y324029D01*
X794522Y324066D01*
X794318Y324103D01*
X794096Y324122D01*
X793856Y324131D01*
X793847D01*
X793819D01*
X793773D01*
X793717D01*
X793653Y324122D01*
X793569D01*
X793477Y324113D01*
X793375Y324103D01*
X793153Y324076D01*
X792913Y324029D01*
X792673Y323974D01*
X792432Y323900D01*
X792423D01*
X792404Y323891D01*
X792377Y323872D01*
X792330Y323854D01*
X792220Y323798D01*
X792090Y323715D01*
X791942Y323613D01*
X791785Y323484D01*
X791646Y323336D01*
X791517Y323160D01*
Y323151D01*
X791508Y323133D01*
X791489Y323105D01*
X791471Y323068D01*
X791452Y323022D01*
X791424Y322966D01*
X791369Y322837D01*
X791313Y322670D01*
X791267Y322485D01*
X791230Y322282D01*
X791221Y322069D01*
Y322005D01*
X791230Y321949D01*
Y321884D01*
X791239Y321820D01*
X791276Y321653D01*
X791323Y321459D01*
X791397Y321265D01*
X791498Y321062D01*
X791554Y320960D01*
X791628Y320867D01*
X791637Y320858D01*
X791646Y320849D01*
X791674Y320821D01*
X791702Y320784D01*
X791748Y320747D01*
X791804Y320701D01*
X791859Y320645D01*
X791933Y320599D01*
X792016Y320544D01*
X792109Y320479D01*
X792201Y320424D01*
X792312Y320368D01*
X792432Y320322D01*
X792562Y320276D01*
X792700Y320229D01*
X792848Y320192D01*
X792636Y319342D01*
X792626D01*
X792589Y319351D01*
X792534Y319370D01*
X792460Y319397D01*
X792377Y319425D01*
X792275Y319462D01*
X792164Y319508D01*
X792044Y319564D01*
X791785Y319693D01*
X791526Y319860D01*
X791397Y319961D01*
X791267Y320063D01*
X791156Y320174D01*
X791045Y320303D01*
X791036Y320313D01*
X791018Y320331D01*
X790999Y320377D01*
X790962Y320424D01*
X790916Y320498D01*
X790870Y320572D01*
X790824Y320673D01*
X790777Y320775D01*
X790722Y320895D01*
X790676Y321025D01*
X790629Y321163D01*
X790583Y321311D01*
X790546Y321468D01*
X790528Y321635D01*
X790509Y321810D01*
X790500Y321995D01*
Y322097D01*
X790509Y322171D01*
Y322254D01*
X790518Y322356D01*
X790537Y322467D01*
X790555Y322596D01*
X790602Y322864D01*
X790676Y323142D01*
X790777Y323419D01*
X790842Y323549D01*
X790916Y323678D01*
X790925Y323687D01*
X790934Y323706D01*
X790962Y323743D01*
X790999Y323780D01*
X791036Y323835D01*
X791092Y323900D01*
X791156Y323974D01*
X791230Y324048D01*
X791313Y324122D01*
X791397Y324205D01*
X791609Y324371D01*
X791859Y324529D01*
X792136Y324667D01*
X792146D01*
X792173Y324686D01*
X792220Y324695D01*
X792275Y324723D01*
X792349Y324741D01*
X792441Y324769D01*
X792543Y324806D01*
X792654Y324834D01*
X792774Y324861D01*
X792913Y324898D01*
X793200Y324945D01*
X793523Y324982D01*
X793856Y325000D01*
X793865D01*
X793902D01*
X793958D01*
X794023Y324991D01*
D02*
G37*
G36*
X796926Y314423D02*
X796306D01*
X796297Y314432D01*
X796278Y314451D01*
X796241Y314488D01*
X796186Y314525D01*
X796121Y314580D01*
X796047Y314654D01*
X795955Y314728D01*
X795844Y314811D01*
X795733Y314895D01*
X795603Y314996D01*
X795455Y315098D01*
X795308Y315200D01*
X795141Y315311D01*
X794966Y315422D01*
X794771Y315533D01*
X794577Y315644D01*
X794568Y315653D01*
X794531Y315671D01*
X794475Y315699D01*
X794392Y315745D01*
X794291Y315791D01*
X794180Y315847D01*
X794050Y315912D01*
X793902Y315976D01*
X793736Y316050D01*
X793569Y316134D01*
X793384Y316208D01*
X793190Y316282D01*
X792793Y316429D01*
X792367Y316568D01*
X792358D01*
X792330Y316577D01*
X792284Y316587D01*
X792229Y316605D01*
X792155Y316624D01*
X792062Y316642D01*
X791961Y316670D01*
X791850Y316688D01*
X791720Y316716D01*
X791582Y316744D01*
X791286Y316790D01*
X790962Y316836D01*
X790611Y316864D01*
Y317668D01*
X790620D01*
X790648D01*
X790685D01*
X790740Y317659D01*
X790814D01*
X790907Y317650D01*
X791008Y317641D01*
X791119Y317631D01*
X791249Y317613D01*
X791378Y317594D01*
X791535Y317567D01*
X791693Y317539D01*
X791859Y317511D01*
X792044Y317474D01*
X792423Y317382D01*
X792432D01*
X792469Y317372D01*
X792525Y317354D01*
X792608Y317326D01*
X792700Y317299D01*
X792811Y317262D01*
X792941Y317225D01*
X793079Y317169D01*
X793237Y317114D01*
X793394Y317058D01*
X793745Y316919D01*
X794115Y316753D01*
X794485Y316568D01*
X794494Y316559D01*
X794531Y316540D01*
X794577Y316513D01*
X794651Y316476D01*
X794734Y316429D01*
X794836Y316365D01*
X794947Y316300D01*
X795067Y316226D01*
X795335Y316050D01*
X795613Y315865D01*
X795899Y315653D01*
X796167Y315431D01*
Y318565D01*
X796926D01*
Y314423D01*
D02*
G37*
G36*
X752979Y249373D02*
X753053Y249364D01*
X753136Y249355D01*
X753229Y249336D01*
X753331Y249318D01*
X753552Y249262D01*
X753784Y249170D01*
X753904Y249114D01*
X754015Y249050D01*
X754126Y248966D01*
X754237Y248883D01*
X754246Y248874D01*
X754264Y248855D01*
X754292Y248828D01*
X754320Y248791D01*
X754366Y248745D01*
X754412Y248680D01*
X754468Y248615D01*
X754523Y248532D01*
X754579Y248439D01*
X754634Y248347D01*
X754736Y248125D01*
X754819Y247866D01*
X754847Y247728D01*
X754865Y247580D01*
X754079Y247478D01*
Y247487D01*
X754070Y247506D01*
X754061Y247543D01*
X754052Y247589D01*
X754043Y247644D01*
X754024Y247709D01*
X753978Y247848D01*
X753913Y248014D01*
X753830Y248171D01*
X753737Y248319D01*
X753626Y248449D01*
X753608Y248458D01*
X753571Y248495D01*
X753497Y248541D01*
X753404Y248587D01*
X753294Y248643D01*
X753155Y248689D01*
X752998Y248726D01*
X752831Y248735D01*
X752776D01*
X752739Y248726D01*
X752637Y248717D01*
X752508Y248689D01*
X752360Y248643D01*
X752203Y248578D01*
X752045Y248486D01*
X751898Y248356D01*
X751879Y248338D01*
X751833Y248282D01*
X751777Y248199D01*
X751703Y248088D01*
X751629Y247949D01*
X751574Y247792D01*
X751528Y247607D01*
X751509Y247404D01*
Y247395D01*
Y247376D01*
Y247348D01*
X751518Y247311D01*
X751528Y247210D01*
X751555Y247090D01*
X751592Y246942D01*
X751657Y246794D01*
X751750Y246646D01*
X751870Y246507D01*
X751888Y246489D01*
X751935Y246452D01*
X752008Y246396D01*
X752110Y246331D01*
X752240Y246267D01*
X752397Y246211D01*
X752572Y246174D01*
X752767Y246156D01*
X752850D01*
X752915Y246165D01*
X752998Y246174D01*
X753090Y246193D01*
X753201Y246211D01*
X753321Y246239D01*
X753229Y245546D01*
X753183D01*
X753146Y245555D01*
X753025D01*
X752924Y245536D01*
X752803Y245518D01*
X752665Y245490D01*
X752508Y245444D01*
X752360Y245379D01*
X752203Y245296D01*
X752193D01*
X752184Y245287D01*
X752138Y245250D01*
X752073Y245185D01*
X751999Y245102D01*
X751925Y244982D01*
X751861Y244843D01*
X751814Y244686D01*
X751796Y244593D01*
Y244492D01*
Y244482D01*
Y244473D01*
Y244418D01*
X751814Y244344D01*
X751833Y244242D01*
X751870Y244131D01*
X751916Y244011D01*
X751990Y243891D01*
X752092Y243780D01*
X752101Y243770D01*
X752147Y243733D01*
X752212Y243687D01*
X752295Y243632D01*
X752406Y243585D01*
X752535Y243539D01*
X752683Y243502D01*
X752850Y243493D01*
X752924D01*
X753007Y243512D01*
X753118Y243530D01*
X753238Y243567D01*
X753358Y243613D01*
X753488Y243687D01*
X753608Y243780D01*
X753617Y243789D01*
X753654Y243835D01*
X753710Y243900D01*
X753774Y243992D01*
X753839Y244112D01*
X753904Y244260D01*
X753959Y244436D01*
X753996Y244639D01*
X754782Y244501D01*
Y244492D01*
X754773Y244464D01*
X754764Y244427D01*
X754754Y244371D01*
X754736Y244307D01*
X754708Y244233D01*
X754653Y244057D01*
X754560Y243854D01*
X754449Y243650D01*
X754311Y243456D01*
X754135Y243280D01*
X754126Y243271D01*
X754107Y243262D01*
X754079Y243243D01*
X754043Y243216D01*
X753996Y243179D01*
X753932Y243142D01*
X753867Y243105D01*
X753784Y243058D01*
X753599Y242985D01*
X753386Y242910D01*
X753136Y242864D01*
X753007Y242846D01*
X752776D01*
X752674Y242855D01*
X752554Y242874D01*
X752406Y242901D01*
X752240Y242948D01*
X752073Y243003D01*
X751907Y243077D01*
X751898D01*
X751888Y243086D01*
X751833Y243114D01*
X751750Y243169D01*
X751657Y243234D01*
X751546Y243327D01*
X751435Y243428D01*
X751324Y243549D01*
X751232Y243687D01*
X751223Y243706D01*
X751195Y243752D01*
X751158Y243835D01*
X751112Y243937D01*
X751065Y244057D01*
X751028Y244196D01*
X751001Y244353D01*
X750991Y244510D01*
Y244529D01*
Y244584D01*
X751001Y244658D01*
X751019Y244760D01*
X751047Y244880D01*
X751093Y245009D01*
X751149Y245139D01*
X751223Y245268D01*
X751232Y245287D01*
X751260Y245324D01*
X751315Y245388D01*
X751389Y245462D01*
X751481Y245546D01*
X751592Y245638D01*
X751722Y245721D01*
X751879Y245804D01*
X751870D01*
X751851Y245814D01*
X751824Y245823D01*
X751786Y245832D01*
X751685Y245869D01*
X751555Y245925D01*
X751407Y245999D01*
X751260Y246091D01*
X751121Y246211D01*
X750991Y246350D01*
X750982Y246368D01*
X750945Y246424D01*
X750890Y246516D01*
X750834Y246637D01*
X750779Y246784D01*
X750723Y246960D01*
X750686Y247164D01*
X750677Y247385D01*
Y247395D01*
Y247422D01*
Y247469D01*
X750686Y247524D01*
X750696Y247598D01*
X750714Y247681D01*
X750732Y247774D01*
X750751Y247875D01*
X750825Y248097D01*
X750881Y248218D01*
X750936Y248328D01*
X751010Y248449D01*
X751093Y248569D01*
X751186Y248689D01*
X751296Y248800D01*
X751306Y248809D01*
X751324Y248828D01*
X751361Y248855D01*
X751407Y248892D01*
X751463Y248939D01*
X751537Y248985D01*
X751620Y249040D01*
X751722Y249087D01*
X751824Y249142D01*
X751944Y249198D01*
X752064Y249244D01*
X752203Y249290D01*
X752350Y249327D01*
X752508Y249355D01*
X752665Y249373D01*
X752840Y249382D01*
X752924D01*
X752979Y249373D01*
D02*
G37*
G36*
X758619D02*
X758693D01*
X758785Y249364D01*
X758887Y249355D01*
X758989Y249345D01*
X759220Y249308D01*
X759470Y249253D01*
X759710Y249179D01*
X759941Y249077D01*
X759950D01*
X759969Y249059D01*
X759997Y249040D01*
X760034Y249022D01*
X760135Y248948D01*
X760256Y248846D01*
X760394Y248717D01*
X760524Y248569D01*
X760653Y248384D01*
X760755Y248181D01*
Y248171D01*
X760764Y248153D01*
X760773Y248116D01*
X760792Y248070D01*
X760810Y248014D01*
X760829Y247940D01*
X760856Y247857D01*
X760875Y247755D01*
X760893Y247644D01*
X760921Y247524D01*
X760940Y247395D01*
X760958Y247256D01*
X760977Y247099D01*
X760986Y246932D01*
X760995Y246757D01*
Y246572D01*
Y242874D01*
X760145D01*
Y246572D01*
Y246581D01*
Y246609D01*
Y246655D01*
Y246710D01*
X760135Y246775D01*
Y246858D01*
X760126Y247034D01*
X760108Y247237D01*
X760080Y247441D01*
X760043Y247635D01*
X760024Y247718D01*
X759997Y247801D01*
X759987Y247820D01*
X759969Y247866D01*
X759923Y247931D01*
X759867Y248023D01*
X759802Y248116D01*
X759710Y248218D01*
X759599Y248319D01*
X759470Y248402D01*
X759451Y248412D01*
X759405Y248439D01*
X759322Y248467D01*
X759211Y248504D01*
X759081Y248550D01*
X758915Y248578D01*
X758739Y248606D01*
X758545Y248615D01*
X758453D01*
X758397Y248606D01*
X758314D01*
X758231Y248597D01*
X758027Y248560D01*
X757805Y248513D01*
X757593Y248439D01*
X757389Y248338D01*
X757297Y248273D01*
X757214Y248199D01*
X757205Y248190D01*
X757195Y248181D01*
X757177Y248153D01*
X757149Y248116D01*
X757121Y248060D01*
X757084Y248005D01*
X757047Y247922D01*
X757010Y247838D01*
X756973Y247737D01*
X756946Y247617D01*
X756909Y247478D01*
X756881Y247330D01*
X756853Y247164D01*
X756835Y246988D01*
X756816Y246784D01*
Y246572D01*
Y242874D01*
X755965D01*
Y246572D01*
Y246581D01*
Y246618D01*
Y246664D01*
Y246729D01*
X755975Y246812D01*
Y246905D01*
X755984Y247016D01*
X755993Y247127D01*
X756021Y247376D01*
X756058Y247635D01*
X756114Y247885D01*
X756151Y248005D01*
X756187Y248116D01*
Y248125D01*
X756197Y248144D01*
X756215Y248171D01*
X756234Y248208D01*
X756289Y248310D01*
X756372Y248439D01*
X756483Y248587D01*
X756613Y248735D01*
X756779Y248892D01*
X756983Y249031D01*
X756992D01*
X757010Y249050D01*
X757038Y249059D01*
X757084Y249087D01*
X757140Y249114D01*
X757214Y249142D01*
X757288Y249170D01*
X757380Y249207D01*
X757482Y249244D01*
X757593Y249272D01*
X757713Y249299D01*
X757852Y249327D01*
X757990Y249345D01*
X758138Y249364D01*
X758471Y249382D01*
X758554D01*
X758619Y249373D01*
D02*
G37*
G36*
X631119D02*
X631193D01*
X631286Y249364D01*
X631387Y249355D01*
X631489Y249345D01*
X631720Y249308D01*
X631970Y249253D01*
X632210Y249179D01*
X632441Y249077D01*
X632450D01*
X632469Y249059D01*
X632497Y249040D01*
X632534Y249022D01*
X632635Y248948D01*
X632756Y248846D01*
X632894Y248717D01*
X633024Y248569D01*
X633153Y248384D01*
X633255Y248181D01*
Y248171D01*
X633264Y248153D01*
X633273Y248116D01*
X633292Y248070D01*
X633310Y248014D01*
X633329Y247940D01*
X633357Y247857D01*
X633375Y247755D01*
X633394Y247644D01*
X633421Y247524D01*
X633440Y247395D01*
X633458Y247256D01*
X633477Y247099D01*
X633486Y246932D01*
X633495Y246757D01*
Y246572D01*
Y242874D01*
X632645D01*
Y246572D01*
Y246581D01*
Y246609D01*
Y246655D01*
Y246710D01*
X632635Y246775D01*
Y246858D01*
X632626Y247034D01*
X632608Y247237D01*
X632580Y247441D01*
X632543Y247635D01*
X632524Y247718D01*
X632497Y247801D01*
X632487Y247820D01*
X632469Y247866D01*
X632423Y247931D01*
X632367Y248023D01*
X632303Y248116D01*
X632210Y248218D01*
X632099Y248319D01*
X631970Y248402D01*
X631951Y248412D01*
X631905Y248439D01*
X631822Y248467D01*
X631711Y248504D01*
X631581Y248550D01*
X631415Y248578D01*
X631239Y248606D01*
X631045Y248615D01*
X630953D01*
X630897Y248606D01*
X630814D01*
X630731Y248597D01*
X630527Y248560D01*
X630305Y248513D01*
X630093Y248439D01*
X629889Y248338D01*
X629797Y248273D01*
X629714Y248199D01*
X629705Y248190D01*
X629695Y248181D01*
X629677Y248153D01*
X629649Y248116D01*
X629621Y248060D01*
X629584Y248005D01*
X629547Y247922D01*
X629510Y247838D01*
X629473Y247737D01*
X629446Y247617D01*
X629409Y247478D01*
X629381Y247330D01*
X629353Y247164D01*
X629335Y246988D01*
X629316Y246784D01*
Y246572D01*
Y242874D01*
X628466D01*
Y246572D01*
Y246581D01*
Y246618D01*
Y246664D01*
Y246729D01*
X628475Y246812D01*
Y246905D01*
X628484Y247016D01*
X628493Y247127D01*
X628521Y247376D01*
X628558Y247635D01*
X628614Y247885D01*
X628651Y248005D01*
X628688Y248116D01*
Y248125D01*
X628697Y248144D01*
X628715Y248171D01*
X628734Y248208D01*
X628789Y248310D01*
X628872Y248439D01*
X628983Y248587D01*
X629113Y248735D01*
X629279Y248892D01*
X629483Y249031D01*
X629492D01*
X629510Y249050D01*
X629538Y249059D01*
X629584Y249087D01*
X629640Y249114D01*
X629714Y249142D01*
X629788Y249170D01*
X629880Y249207D01*
X629982Y249244D01*
X630093Y249272D01*
X630213Y249299D01*
X630352Y249327D01*
X630490Y249345D01*
X630638Y249364D01*
X630971Y249382D01*
X631054D01*
X631119Y249373D01*
D02*
G37*
G36*
X624860Y247737D02*
X627643D01*
Y247016D01*
X624712Y242874D01*
X624074D01*
Y247016D01*
X623205D01*
Y247737D01*
X624074D01*
Y249272D01*
X624860D01*
Y247737D01*
D02*
G37*
G36*
X426814Y252783D02*
X426833Y252764D01*
X426870Y252727D01*
X426925Y252690D01*
X426990Y252635D01*
X427064Y252561D01*
X427156Y252487D01*
X427267Y252404D01*
X427378Y252321D01*
X427508Y252219D01*
X427655Y252117D01*
X427803Y252015D01*
X427970Y251905D01*
X428145Y251794D01*
X428340Y251683D01*
X428534Y251572D01*
X428543Y251562D01*
X428580Y251544D01*
X428635Y251516D01*
X428719Y251470D01*
X428820Y251424D01*
X428931Y251368D01*
X429061Y251304D01*
X429209Y251239D01*
X429375Y251165D01*
X429542Y251082D01*
X429726Y251008D01*
X429921Y250934D01*
X430318Y250786D01*
X430743Y250647D01*
X430753D01*
X430780Y250638D01*
X430827Y250629D01*
X430882Y250610D01*
X430956Y250592D01*
X431049Y250573D01*
X431150Y250545D01*
X431261Y250527D01*
X431391Y250499D01*
X431529Y250471D01*
X431825Y250425D01*
X432149Y250379D01*
X432500Y250351D01*
Y249547D01*
X432491D01*
X432463D01*
X432426D01*
X432371Y249556D01*
X432297D01*
X432204Y249565D01*
X432103Y249575D01*
X431992Y249584D01*
X431862Y249602D01*
X431733Y249621D01*
X431576Y249649D01*
X431418Y249676D01*
X431252Y249704D01*
X431067Y249741D01*
X430688Y249834D01*
X430679D01*
X430642Y249843D01*
X430586Y249861D01*
X430503Y249889D01*
X430411Y249917D01*
X430300Y249954D01*
X430170Y249991D01*
X430032Y250046D01*
X429874Y250102D01*
X429717Y250157D01*
X429366Y250296D01*
X428996Y250462D01*
X428626Y250647D01*
X428617Y250656D01*
X428580Y250675D01*
X428534Y250703D01*
X428460Y250740D01*
X428377Y250786D01*
X428275Y250851D01*
X428164Y250915D01*
X428044Y250989D01*
X427776Y251165D01*
X427498Y251350D01*
X427212Y251562D01*
X426944Y251784D01*
Y248650D01*
X426185D01*
Y252792D01*
X426805D01*
X426814Y252783D01*
D02*
G37*
G36*
X432500Y245793D02*
X427498D01*
X427508Y245784D01*
X427545Y245738D01*
X427600Y245682D01*
X427665Y245590D01*
X427748Y245488D01*
X427840Y245359D01*
X427942Y245211D01*
X428044Y245044D01*
Y245035D01*
X428053Y245026D01*
X428090Y244970D01*
X428136Y244878D01*
X428192Y244767D01*
X428256Y244638D01*
X428321Y244499D01*
X428386Y244360D01*
X428441Y244221D01*
X427683D01*
Y244231D01*
X427665Y244249D01*
X427655Y244286D01*
X427628Y244332D01*
X427600Y244388D01*
X427563Y244452D01*
X427471Y244610D01*
X427369Y244795D01*
X427239Y244979D01*
X427091Y245174D01*
X426934Y245368D01*
X426925Y245377D01*
X426916Y245386D01*
X426888Y245414D01*
X426860Y245451D01*
X426768Y245534D01*
X426657Y245645D01*
X426527Y245756D01*
X426380Y245876D01*
X426232Y245978D01*
X426074Y246070D01*
Y246579D01*
X432500D01*
Y245793D01*
D02*
G37*
G36*
Y242067D02*
X431169Y241226D01*
X431160D01*
X431141Y241207D01*
X431113Y241189D01*
X431076Y241161D01*
X430975Y241096D01*
X430845Y241013D01*
X430706Y240912D01*
X430559Y240810D01*
X430420Y240708D01*
X430290Y240616D01*
X430281Y240606D01*
X430244Y240579D01*
X430189Y240532D01*
X430124Y240468D01*
X429985Y240329D01*
X429921Y240255D01*
X429865Y240181D01*
X429856Y240172D01*
X429847Y240153D01*
X429828Y240116D01*
X429800Y240061D01*
X429773Y240005D01*
X429745Y239941D01*
X429699Y239793D01*
Y239783D01*
X429689Y239765D01*
Y239728D01*
X429680Y239682D01*
X429671Y239617D01*
Y239543D01*
X429662Y239441D01*
Y238351D01*
X432500D01*
Y237500D01*
X426102D01*
Y240468D01*
X426111Y240542D01*
Y240625D01*
X426121Y240819D01*
X426148Y241022D01*
X426176Y241244D01*
X426222Y241448D01*
X426250Y241549D01*
X426278Y241633D01*
Y241642D01*
X426287Y241651D01*
X426315Y241707D01*
X426352Y241790D01*
X426417Y241891D01*
X426500Y242003D01*
X426611Y242123D01*
X426740Y242234D01*
X426888Y242344D01*
X426897D01*
X426907Y242354D01*
X426962Y242391D01*
X427054Y242428D01*
X427175Y242483D01*
X427313Y242530D01*
X427480Y242576D01*
X427655Y242603D01*
X427850Y242613D01*
X427859D01*
X427877D01*
X427914D01*
X427961Y242603D01*
X428025D01*
X428090Y242594D01*
X428247Y242557D01*
X428432Y242502D01*
X428626Y242428D01*
X428820Y242317D01*
X428913Y242243D01*
X429005Y242169D01*
X429015Y242160D01*
X429024Y242150D01*
X429052Y242123D01*
X429079Y242086D01*
X429116Y242039D01*
X429153Y241984D01*
X429199Y241910D01*
X429255Y241836D01*
X429301Y241744D01*
X429347Y241642D01*
X429403Y241531D01*
X429449Y241411D01*
X429486Y241272D01*
X429532Y241133D01*
X429560Y240976D01*
X429588Y240810D01*
X429597Y240828D01*
X429616Y240865D01*
X429652Y240921D01*
X429689Y240995D01*
X429791Y241161D01*
X429856Y241244D01*
X429911Y241318D01*
X429930Y241337D01*
X429976Y241383D01*
X430050Y241457D01*
X430143Y241549D01*
X430272Y241651D01*
X430411Y241771D01*
X430577Y241891D01*
X430762Y242021D01*
X432500Y243121D01*
Y242067D01*
D02*
G37*
G36*
X439009Y274532D02*
X438999Y274458D01*
Y274375D01*
X438990Y274181D01*
X438963Y273978D01*
X438935Y273756D01*
X438889Y273552D01*
X438861Y273451D01*
X438833Y273367D01*
Y273358D01*
X438824Y273349D01*
X438796Y273293D01*
X438759Y273210D01*
X438694Y273108D01*
X438611Y272997D01*
X438500Y272877D01*
X438371Y272766D01*
X438223Y272655D01*
X438214D01*
X438204Y272646D01*
X438149Y272609D01*
X438056Y272572D01*
X437936Y272517D01*
X437798Y272470D01*
X437631Y272424D01*
X437455Y272397D01*
X437261Y272387D01*
X437252D01*
X437234D01*
X437197D01*
X437150Y272397D01*
X437086D01*
X437021Y272406D01*
X436864Y272443D01*
X436679Y272498D01*
X436485Y272572D01*
X436291Y272683D01*
X436198Y272757D01*
X436106Y272831D01*
X436096Y272840D01*
X436087Y272850D01*
X436059Y272877D01*
X436032Y272914D01*
X435995Y272960D01*
X435958Y273016D01*
X435911Y273090D01*
X435856Y273164D01*
X435810Y273256D01*
X435764Y273358D01*
X435708Y273469D01*
X435662Y273589D01*
X435625Y273728D01*
X435579Y273867D01*
X435551Y274024D01*
X435523Y274190D01*
X435514Y274172D01*
X435495Y274135D01*
X435458Y274079D01*
X435421Y274005D01*
X435320Y273839D01*
X435255Y273756D01*
X435200Y273682D01*
X435181Y273663D01*
X435135Y273617D01*
X435061Y273543D01*
X434968Y273451D01*
X434839Y273349D01*
X434700Y273229D01*
X434534Y273108D01*
X434349Y272979D01*
X432611Y271879D01*
Y272933D01*
X433942Y273774D01*
X433951D01*
X433970Y273793D01*
X433998Y273811D01*
X434035Y273839D01*
X434136Y273904D01*
X434266Y273987D01*
X434404Y274088D01*
X434552Y274190D01*
X434691Y274292D01*
X434821Y274384D01*
X434830Y274394D01*
X434867Y274421D01*
X434922Y274468D01*
X434987Y274532D01*
X435126Y274671D01*
X435190Y274745D01*
X435246Y274819D01*
X435255Y274828D01*
X435264Y274847D01*
X435283Y274884D01*
X435311Y274939D01*
X435338Y274995D01*
X435366Y275059D01*
X435412Y275207D01*
Y275216D01*
X435421Y275235D01*
Y275272D01*
X435431Y275318D01*
X435440Y275383D01*
Y275457D01*
X435449Y275558D01*
Y276649D01*
X432611D01*
Y277500D01*
X439009D01*
Y274532D01*
D02*
G37*
G36*
X434552Y271380D02*
X434608D01*
X434673Y271370D01*
X434821Y271352D01*
X434987Y271315D01*
X435153Y271259D01*
X435329Y271176D01*
X435495Y271074D01*
X435505D01*
X435514Y271056D01*
X435560Y271019D01*
X435634Y270945D01*
X435727Y270843D01*
X435819Y270714D01*
X435921Y270557D01*
X436004Y270381D01*
X436069Y270168D01*
Y270178D01*
X436078Y270187D01*
X436087Y270215D01*
X436106Y270252D01*
X436143Y270335D01*
X436198Y270446D01*
X436272Y270566D01*
X436365Y270686D01*
X436466Y270797D01*
X436577Y270899D01*
X436596Y270908D01*
X436633Y270936D01*
X436707Y270973D01*
X436799Y271010D01*
X436919Y271056D01*
X437058Y271093D01*
X437215Y271121D01*
X437382Y271130D01*
X437391D01*
X437409D01*
X437446D01*
X437502Y271121D01*
X437557Y271111D01*
X437631Y271102D01*
X437788Y271065D01*
X437973Y271010D01*
X438167Y270917D01*
X438269Y270862D01*
X438371Y270797D01*
X438463Y270714D01*
X438556Y270631D01*
X438565Y270621D01*
X438574Y270603D01*
X438602Y270575D01*
X438630Y270538D01*
X438667Y270492D01*
X438704Y270427D01*
X438750Y270353D01*
X438796Y270279D01*
X438842Y270187D01*
X438889Y270085D01*
X438926Y269974D01*
X438963Y269854D01*
X439018Y269595D01*
X439027Y269447D01*
X439036Y269299D01*
Y269216D01*
X439027Y269160D01*
X439018Y269087D01*
X439009Y269003D01*
X438999Y268911D01*
X438972Y268818D01*
X438916Y268597D01*
X438833Y268375D01*
X438778Y268264D01*
X438713Y268153D01*
X438630Y268051D01*
X438546Y267949D01*
X438537Y267940D01*
X438528Y267931D01*
X438500Y267903D01*
X438463Y267866D01*
X438408Y267829D01*
X438352Y267783D01*
X438214Y267691D01*
X438038Y267598D01*
X437835Y267515D01*
X437603Y267450D01*
X437483Y267441D01*
X437354Y267432D01*
X437345D01*
X437335D01*
X437280D01*
X437197Y267441D01*
X437095Y267459D01*
X436965Y267487D01*
X436836Y267533D01*
X436707Y267589D01*
X436577Y267672D01*
X436559Y267681D01*
X436522Y267718D01*
X436466Y267774D01*
X436392Y267848D01*
X436309Y267949D01*
X436226Y268070D01*
X436143Y268208D01*
X436069Y268375D01*
Y268365D01*
X436059Y268347D01*
X436050Y268319D01*
X436032Y268282D01*
X435985Y268171D01*
X435921Y268042D01*
X435828Y267903D01*
X435727Y267755D01*
X435597Y267617D01*
X435449Y267487D01*
X435440D01*
X435431Y267478D01*
X435375Y267441D01*
X435283Y267385D01*
X435163Y267330D01*
X435015Y267274D01*
X434839Y267219D01*
X434645Y267182D01*
X434432Y267173D01*
X434423D01*
X434395D01*
X434349D01*
X434294Y267182D01*
X434229Y267191D01*
X434146Y267201D01*
X434053Y267219D01*
X433951Y267247D01*
X433739Y267311D01*
X433619Y267358D01*
X433508Y267422D01*
X433387Y267487D01*
X433276Y267561D01*
X433166Y267654D01*
X433055Y267755D01*
X433045Y267764D01*
X433027Y267783D01*
X432999Y267811D01*
X432971Y267857D01*
X432925Y267922D01*
X432879Y267986D01*
X432833Y268070D01*
X432777Y268162D01*
X432722Y268264D01*
X432676Y268384D01*
X432629Y268513D01*
X432583Y268643D01*
X432555Y268791D01*
X432528Y268948D01*
X432509Y269105D01*
X432500Y269281D01*
Y269373D01*
X432509Y269438D01*
X432518Y269521D01*
X432528Y269614D01*
X432546Y269715D01*
X432574Y269826D01*
X432639Y270076D01*
X432685Y270205D01*
X432731Y270326D01*
X432796Y270455D01*
X432870Y270584D01*
X432953Y270705D01*
X433055Y270816D01*
X433064Y270825D01*
X433082Y270843D01*
X433110Y270871D01*
X433156Y270908D01*
X433212Y270945D01*
X433276Y271000D01*
X433350Y271047D01*
X433443Y271102D01*
X433535Y271158D01*
X433646Y271204D01*
X433877Y271296D01*
X434016Y271333D01*
X434155Y271361D01*
X434303Y271380D01*
X434451Y271389D01*
X434460D01*
X434478D01*
X434515D01*
X434552Y271380D01*
D02*
G37*
G36*
X677500Y153491D02*
X674532D01*
X674458Y153500D01*
X674375D01*
X674181Y153510D01*
X673978Y153537D01*
X673756Y153565D01*
X673552Y153611D01*
X673450Y153639D01*
X673367Y153667D01*
X673358D01*
X673349Y153676D01*
X673293Y153704D01*
X673210Y153741D01*
X673109Y153806D01*
X672998Y153889D01*
X672877Y154000D01*
X672766Y154129D01*
X672655Y154277D01*
Y154286D01*
X672646Y154296D01*
X672609Y154351D01*
X672572Y154444D01*
X672517Y154564D01*
X672470Y154702D01*
X672424Y154869D01*
X672396Y155044D01*
X672387Y155239D01*
Y155248D01*
Y155266D01*
Y155303D01*
X672396Y155350D01*
Y155414D01*
X672406Y155479D01*
X672443Y155636D01*
X672498Y155821D01*
X672572Y156015D01*
X672683Y156209D01*
X672757Y156302D01*
X672831Y156394D01*
X672840Y156404D01*
X672850Y156413D01*
X672877Y156440D01*
X672914Y156468D01*
X672961Y156505D01*
X673016Y156542D01*
X673090Y156588D01*
X673164Y156644D01*
X673256Y156690D01*
X673358Y156736D01*
X673469Y156792D01*
X673589Y156838D01*
X673728Y156875D01*
X673867Y156921D01*
X674024Y156949D01*
X674190Y156977D01*
X674172Y156986D01*
X674135Y157004D01*
X674079Y157042D01*
X674005Y157079D01*
X673839Y157180D01*
X673756Y157245D01*
X673682Y157300D01*
X673663Y157319D01*
X673617Y157365D01*
X673543Y157439D01*
X673450Y157531D01*
X673349Y157661D01*
X673229Y157800D01*
X673109Y157966D01*
X672979Y158151D01*
X671879Y159889D01*
X672933D01*
X673774Y158558D01*
Y158548D01*
X673793Y158530D01*
X673811Y158502D01*
X673839Y158465D01*
X673904Y158364D01*
X673987Y158234D01*
X674089Y158096D01*
X674190Y157948D01*
X674292Y157809D01*
X674384Y157679D01*
X674394Y157670D01*
X674421Y157633D01*
X674468Y157578D01*
X674532Y157513D01*
X674671Y157374D01*
X674745Y157310D01*
X674819Y157254D01*
X674828Y157245D01*
X674847Y157236D01*
X674884Y157217D01*
X674939Y157189D01*
X674995Y157162D01*
X675059Y157134D01*
X675207Y157088D01*
X675217D01*
X675235Y157079D01*
X675272D01*
X675318Y157069D01*
X675383Y157060D01*
X675457D01*
X675558Y157051D01*
X676649D01*
Y159889D01*
X677500D01*
Y153491D01*
D02*
G37*
G36*
X664316Y159991D02*
X664390D01*
X664473Y159982D01*
X664566Y159963D01*
X664677Y159935D01*
X664787Y159908D01*
X664917Y159871D01*
X665046Y159824D01*
X665176Y159769D01*
X665314Y159695D01*
X665444Y159612D01*
X665573Y159519D01*
X665703Y159408D01*
X665823Y159279D01*
X665832Y159270D01*
X665851Y159242D01*
X665878Y159205D01*
X665915Y159140D01*
X665971Y159057D01*
X666017Y158965D01*
X666073Y158844D01*
X666128Y158715D01*
X666193Y158558D01*
X666248Y158382D01*
X666294Y158188D01*
X666341Y157975D01*
X666387Y157735D01*
X666415Y157476D01*
X666433Y157199D01*
X666442Y156903D01*
Y156894D01*
Y156884D01*
Y156857D01*
Y156820D01*
X666433Y156727D01*
Y156598D01*
X666424Y156450D01*
X666405Y156274D01*
X666387Y156080D01*
X666359Y155867D01*
X666322Y155655D01*
X666276Y155423D01*
X666220Y155202D01*
X666156Y154980D01*
X666073Y154767D01*
X665980Y154564D01*
X665878Y154369D01*
X665758Y154203D01*
X665749Y154194D01*
X665731Y154175D01*
X665694Y154138D01*
X665647Y154083D01*
X665592Y154027D01*
X665518Y153972D01*
X665425Y153898D01*
X665333Y153833D01*
X665222Y153769D01*
X665102Y153695D01*
X664963Y153639D01*
X664824Y153574D01*
X664667Y153528D01*
X664501Y153491D01*
X664325Y153473D01*
X664140Y153463D01*
X664066D01*
X664011Y153473D01*
X663946D01*
X663872Y153482D01*
X663696Y153519D01*
X663502Y153565D01*
X663299Y153639D01*
X663095Y153750D01*
X662994Y153815D01*
X662901Y153889D01*
X662892Y153898D01*
X662883Y153907D01*
X662855Y153935D01*
X662827Y153963D01*
X662781Y154009D01*
X662744Y154064D01*
X662642Y154194D01*
X662541Y154360D01*
X662448Y154564D01*
X662365Y154795D01*
X662310Y155054D01*
X663095Y155118D01*
Y155109D01*
X663105Y155100D01*
X663114Y155044D01*
X663142Y154961D01*
X663179Y154860D01*
X663216Y154749D01*
X663271Y154638D01*
X663336Y154536D01*
X663401Y154453D01*
X663419Y154434D01*
X663456Y154397D01*
X663521Y154342D01*
X663613Y154277D01*
X663733Y154222D01*
X663863Y154166D01*
X664020Y154129D01*
X664186Y154111D01*
X664251D01*
X664325Y154120D01*
X664408Y154138D01*
X664519Y154166D01*
X664630Y154203D01*
X664741Y154249D01*
X664852Y154323D01*
X664871Y154333D01*
X664917Y154369D01*
X664982Y154434D01*
X665065Y154527D01*
X665157Y154638D01*
X665259Y154767D01*
X665351Y154934D01*
X665444Y155118D01*
Y155128D01*
X665453Y155146D01*
X665462Y155174D01*
X665481Y155211D01*
X665490Y155266D01*
X665509Y155331D01*
X665527Y155405D01*
X665546Y155498D01*
X665573Y155599D01*
X665592Y155710D01*
X665610Y155830D01*
X665620Y155960D01*
X665638Y156108D01*
X665647Y156256D01*
X665657Y156422D01*
Y156588D01*
X665647Y156579D01*
X665610Y156524D01*
X665546Y156450D01*
X665462Y156357D01*
X665370Y156246D01*
X665250Y156145D01*
X665120Y156043D01*
X664972Y155950D01*
X664963D01*
X664954Y155941D01*
X664898Y155913D01*
X664815Y155886D01*
X664704Y155840D01*
X664575Y155803D01*
X664427Y155775D01*
X664270Y155747D01*
X664103Y155738D01*
X664029D01*
X663974Y155747D01*
X663900Y155756D01*
X663826Y155766D01*
X663733Y155784D01*
X663641Y155812D01*
X663428Y155877D01*
X663317Y155923D01*
X663206Y155988D01*
X663095Y156052D01*
X662975Y156126D01*
X662864Y156219D01*
X662763Y156320D01*
X662753Y156330D01*
X662735Y156348D01*
X662707Y156376D01*
X662679Y156422D01*
X662633Y156487D01*
X662587Y156552D01*
X662541Y156635D01*
X662485Y156727D01*
X662430Y156829D01*
X662384Y156940D01*
X662337Y157069D01*
X662291Y157199D01*
X662263Y157337D01*
X662236Y157494D01*
X662217Y157652D01*
X662208Y157818D01*
Y157827D01*
Y157846D01*
Y157874D01*
Y157920D01*
X662217Y157975D01*
Y158031D01*
X662245Y158179D01*
X662273Y158354D01*
X662319Y158539D01*
X662384Y158743D01*
X662476Y158937D01*
Y158946D01*
X662485Y158955D01*
X662504Y158983D01*
X662522Y159020D01*
X662578Y159113D01*
X662661Y159233D01*
X662763Y159362D01*
X662883Y159492D01*
X663031Y159621D01*
X663188Y159732D01*
X663197D01*
X663206Y159741D01*
X663234Y159760D01*
X663271Y159769D01*
X663364Y159815D01*
X663484Y159861D01*
X663641Y159917D01*
X663817Y159954D01*
X664011Y159991D01*
X664223Y160000D01*
X664270D01*
X664316Y159991D01*
D02*
G37*
G36*
X669207Y154887D02*
X669216Y154896D01*
X669262Y154934D01*
X669318Y154989D01*
X669410Y155054D01*
X669512Y155137D01*
X669641Y155229D01*
X669789Y155331D01*
X669956Y155433D01*
X669965D01*
X669974Y155442D01*
X670030Y155479D01*
X670122Y155525D01*
X670233Y155581D01*
X670362Y155645D01*
X670501Y155710D01*
X670640Y155775D01*
X670779Y155830D01*
Y155072D01*
X670769D01*
X670751Y155054D01*
X670714Y155044D01*
X670668Y155017D01*
X670612Y154989D01*
X670547Y154952D01*
X670390Y154860D01*
X670205Y154758D01*
X670020Y154628D01*
X669826Y154480D01*
X669632Y154323D01*
X669623Y154314D01*
X669614Y154305D01*
X669586Y154277D01*
X669549Y154249D01*
X669466Y154157D01*
X669355Y154046D01*
X669244Y153917D01*
X669124Y153769D01*
X669022Y153621D01*
X668929Y153463D01*
X668421D01*
Y159889D01*
X669207D01*
Y154887D01*
D02*
G37*
G36*
X830033Y165677D02*
X827472D01*
X827130Y163948D01*
X827139Y163957D01*
X827158Y163966D01*
X827186Y163985D01*
X827232Y164013D01*
X827287Y164040D01*
X827352Y164077D01*
X827500Y164151D01*
X827685Y164225D01*
X827888Y164290D01*
X828110Y164336D01*
X828221Y164355D01*
X828425D01*
X828480Y164345D01*
X828554Y164336D01*
X828637Y164327D01*
X828730Y164308D01*
X828831Y164281D01*
X829053Y164216D01*
X829173Y164170D01*
X829294Y164105D01*
X829414Y164040D01*
X829534Y163966D01*
X829645Y163874D01*
X829756Y163772D01*
X829765Y163763D01*
X829784Y163744D01*
X829811Y163717D01*
X829848Y163670D01*
X829895Y163606D01*
X829941Y163541D01*
X829996Y163458D01*
X830052Y163365D01*
X830098Y163264D01*
X830153Y163153D01*
X830200Y163023D01*
X830246Y162894D01*
X830283Y162755D01*
X830311Y162598D01*
X830329Y162441D01*
X830338Y162274D01*
Y162265D01*
Y162237D01*
Y162191D01*
X830329Y162126D01*
X830320Y162052D01*
X830311Y161969D01*
X830292Y161868D01*
X830274Y161766D01*
X830218Y161525D01*
X830126Y161276D01*
X830070Y161146D01*
X829996Y161026D01*
X829922Y160897D01*
X829830Y160777D01*
X829821Y160767D01*
X829802Y160739D01*
X829765Y160702D01*
X829719Y160656D01*
X829654Y160601D01*
X829580Y160527D01*
X829488Y160462D01*
X829386Y160388D01*
X829275Y160314D01*
X829146Y160250D01*
X829007Y160185D01*
X828859Y160120D01*
X828702Y160074D01*
X828526Y160037D01*
X828341Y160009D01*
X828147Y160000D01*
X828064D01*
X827999Y160009D01*
X827925Y160018D01*
X827842Y160028D01*
X827740Y160037D01*
X827639Y160065D01*
X827408Y160120D01*
X827176Y160203D01*
X827056Y160259D01*
X826936Y160324D01*
X826825Y160397D01*
X826714Y160481D01*
X826705Y160490D01*
X826686Y160499D01*
X826668Y160536D01*
X826631Y160573D01*
X826585Y160619D01*
X826538Y160675D01*
X826483Y160749D01*
X826437Y160832D01*
X826381Y160915D01*
X826326Y161017D01*
X826224Y161239D01*
X826141Y161498D01*
X826113Y161636D01*
X826095Y161784D01*
X826917Y161849D01*
Y161840D01*
Y161821D01*
X826927Y161793D01*
X826936Y161747D01*
X826964Y161646D01*
X827001Y161507D01*
X827056Y161368D01*
X827130Y161211D01*
X827223Y161072D01*
X827334Y160943D01*
X827352Y160934D01*
X827389Y160897D01*
X827463Y160851D01*
X827565Y160795D01*
X827676Y160739D01*
X827814Y160693D01*
X827971Y160656D01*
X828147Y160647D01*
X828203D01*
X828240Y160656D01*
X828351Y160666D01*
X828480Y160702D01*
X828637Y160749D01*
X828794Y160823D01*
X828961Y160934D01*
X829035Y160998D01*
X829109Y161072D01*
X829118Y161082D01*
X829127Y161091D01*
X829146Y161119D01*
X829173Y161146D01*
X829238Y161248D01*
X829312Y161378D01*
X829377Y161535D01*
X829442Y161729D01*
X829488Y161960D01*
X829506Y162080D01*
Y162210D01*
Y162219D01*
Y162237D01*
Y162274D01*
X829497Y162320D01*
Y162376D01*
X829488Y162441D01*
X829460Y162589D01*
X829414Y162764D01*
X829349Y162940D01*
X829257Y163106D01*
X829127Y163264D01*
Y163273D01*
X829109Y163282D01*
X829062Y163328D01*
X828979Y163393D01*
X828868Y163467D01*
X828720Y163532D01*
X828554Y163596D01*
X828360Y163643D01*
X828249Y163661D01*
X828073D01*
X827999Y163652D01*
X827907Y163643D01*
X827796Y163615D01*
X827685Y163587D01*
X827565Y163541D01*
X827445Y163486D01*
X827435Y163476D01*
X827398Y163458D01*
X827343Y163412D01*
X827269Y163365D01*
X827195Y163301D01*
X827121Y163217D01*
X827038Y163134D01*
X826973Y163032D01*
X826233Y163134D01*
X826853Y166426D01*
X830033D01*
Y165677D01*
D02*
G37*
G36*
X824079Y160111D02*
X823293D01*
Y165113D01*
X823284Y165103D01*
X823238Y165067D01*
X823182Y165011D01*
X823090Y164946D01*
X822988Y164863D01*
X822859Y164771D01*
X822711Y164669D01*
X822544Y164567D01*
X822535D01*
X822526Y164558D01*
X822470Y164521D01*
X822378Y164475D01*
X822267Y164419D01*
X822138Y164355D01*
X821999Y164290D01*
X821860Y164225D01*
X821721Y164170D01*
Y164928D01*
X821731D01*
X821749Y164946D01*
X821786Y164956D01*
X821832Y164983D01*
X821888Y165011D01*
X821953Y165048D01*
X822110Y165140D01*
X822295Y165242D01*
X822480Y165372D01*
X822674Y165520D01*
X822868Y165677D01*
X822877Y165686D01*
X822886Y165695D01*
X822914Y165723D01*
X822951Y165751D01*
X823034Y165843D01*
X823145Y165954D01*
X823256Y166084D01*
X823376Y166231D01*
X823478Y166379D01*
X823571Y166537D01*
X824079D01*
Y160111D01*
D02*
G37*
G36*
X818042Y166500D02*
X818125D01*
X818319Y166490D01*
X818522Y166463D01*
X818744Y166435D01*
X818948Y166389D01*
X819050Y166361D01*
X819133Y166333D01*
X819142D01*
X819151Y166324D01*
X819207Y166296D01*
X819290Y166259D01*
X819392Y166194D01*
X819502Y166111D01*
X819623Y166000D01*
X819734Y165871D01*
X819845Y165723D01*
Y165714D01*
X819854Y165704D01*
X819891Y165649D01*
X819928Y165557D01*
X819983Y165436D01*
X820030Y165298D01*
X820076Y165131D01*
X820104Y164956D01*
X820113Y164761D01*
Y164752D01*
Y164734D01*
Y164697D01*
X820104Y164650D01*
Y164586D01*
X820094Y164521D01*
X820057Y164364D01*
X820002Y164179D01*
X819928Y163985D01*
X819817Y163791D01*
X819743Y163698D01*
X819669Y163606D01*
X819660Y163596D01*
X819650Y163587D01*
X819623Y163559D01*
X819586Y163532D01*
X819539Y163495D01*
X819484Y163458D01*
X819410Y163412D01*
X819336Y163356D01*
X819244Y163310D01*
X819142Y163264D01*
X819031Y163208D01*
X818911Y163162D01*
X818772Y163125D01*
X818633Y163079D01*
X818476Y163051D01*
X818310Y163023D01*
X818328Y163014D01*
X818365Y162995D01*
X818421Y162959D01*
X818495Y162922D01*
X818661Y162820D01*
X818744Y162755D01*
X818818Y162700D01*
X818837Y162681D01*
X818883Y162635D01*
X818957Y162561D01*
X819050Y162468D01*
X819151Y162339D01*
X819271Y162200D01*
X819392Y162034D01*
X819521Y161849D01*
X820621Y160111D01*
X819567D01*
X818726Y161442D01*
Y161451D01*
X818707Y161470D01*
X818689Y161498D01*
X818661Y161535D01*
X818596Y161636D01*
X818513Y161766D01*
X818411Y161905D01*
X818310Y162052D01*
X818208Y162191D01*
X818116Y162320D01*
X818106Y162330D01*
X818079Y162367D01*
X818033Y162422D01*
X817968Y162487D01*
X817829Y162626D01*
X817755Y162690D01*
X817681Y162746D01*
X817672Y162755D01*
X817653Y162764D01*
X817616Y162783D01*
X817561Y162810D01*
X817505Y162838D01*
X817441Y162866D01*
X817293Y162912D01*
X817284D01*
X817265Y162922D01*
X817228D01*
X817182Y162931D01*
X817117Y162940D01*
X817043D01*
X816942Y162949D01*
X815851D01*
Y160111D01*
X815000D01*
Y166509D01*
X817968D01*
X818042Y166500D01*
D02*
G37*
G36*
X542624Y249373D02*
X542698D01*
X542790Y249364D01*
X542892Y249355D01*
X542994Y249345D01*
X543225Y249308D01*
X543474Y249253D01*
X543715Y249179D01*
X543946Y249077D01*
X543955D01*
X543974Y249059D01*
X544001Y249040D01*
X544038Y249022D01*
X544140Y248948D01*
X544260Y248846D01*
X544399Y248717D01*
X544528Y248569D01*
X544658Y248384D01*
X544759Y248181D01*
Y248171D01*
X544769Y248153D01*
X544778Y248116D01*
X544796Y248070D01*
X544815Y248014D01*
X544833Y247940D01*
X544861Y247857D01*
X544880Y247755D01*
X544898Y247644D01*
X544926Y247524D01*
X544944Y247395D01*
X544963Y247256D01*
X544981Y247099D01*
X544991Y246932D01*
X545000Y246757D01*
Y246572D01*
Y242874D01*
X544149D01*
Y246572D01*
Y246581D01*
Y246609D01*
Y246655D01*
Y246710D01*
X544140Y246775D01*
Y246859D01*
X544131Y247034D01*
X544112Y247237D01*
X544085Y247441D01*
X544048Y247635D01*
X544029Y247718D01*
X544001Y247801D01*
X543992Y247820D01*
X543974Y247866D01*
X543927Y247931D01*
X543872Y248023D01*
X543807Y248116D01*
X543715Y248218D01*
X543604Y248319D01*
X543474Y248403D01*
X543456Y248412D01*
X543410Y248440D01*
X543326Y248467D01*
X543215Y248504D01*
X543086Y248550D01*
X542920Y248578D01*
X542744Y248606D01*
X542550Y248615D01*
X542457D01*
X542402Y248606D01*
X542319D01*
X542235Y248597D01*
X542032Y248560D01*
X541810Y248513D01*
X541598Y248440D01*
X541394Y248338D01*
X541302Y248273D01*
X541218Y248199D01*
X541209Y248190D01*
X541200Y248181D01*
X541181Y248153D01*
X541154Y248116D01*
X541126Y248060D01*
X541089Y248005D01*
X541052Y247922D01*
X541015Y247838D01*
X540978Y247737D01*
X540950Y247617D01*
X540913Y247478D01*
X540886Y247330D01*
X540858Y247164D01*
X540839Y246988D01*
X540821Y246784D01*
Y246572D01*
Y242874D01*
X539970D01*
Y246572D01*
Y246581D01*
Y246618D01*
Y246664D01*
Y246729D01*
X539980Y246812D01*
Y246905D01*
X539989Y247016D01*
X539998Y247127D01*
X540026Y247376D01*
X540063Y247635D01*
X540118Y247885D01*
X540155Y248005D01*
X540192Y248116D01*
Y248125D01*
X540201Y248144D01*
X540220Y248171D01*
X540238Y248208D01*
X540294Y248310D01*
X540377Y248440D01*
X540488Y248587D01*
X540617Y248735D01*
X540784Y248892D01*
X540987Y249031D01*
X540997D01*
X541015Y249050D01*
X541043Y249059D01*
X541089Y249087D01*
X541144Y249114D01*
X541218Y249142D01*
X541292Y249170D01*
X541385Y249207D01*
X541487Y249244D01*
X541598Y249272D01*
X541718Y249299D01*
X541856Y249327D01*
X541995Y249345D01*
X542143Y249364D01*
X542476Y249382D01*
X542559D01*
X542624Y249373D01*
D02*
G37*
G36*
X538990Y249262D02*
Y249225D01*
Y249170D01*
X538981Y249096D01*
X538972Y249013D01*
X538953Y248920D01*
X538935Y248828D01*
X538898Y248726D01*
Y248717D01*
X538889Y248708D01*
X538870Y248652D01*
X538833Y248569D01*
X538778Y248458D01*
X538704Y248328D01*
X538611Y248181D01*
X538509Y248033D01*
X538380Y247875D01*
Y247866D01*
X538362Y247857D01*
X538315Y247801D01*
X538232Y247718D01*
X538112Y247598D01*
X537973Y247459D01*
X537798Y247293D01*
X537585Y247108D01*
X537354Y246914D01*
X537345Y246905D01*
X537308Y246877D01*
X537252Y246831D01*
X537187Y246775D01*
X537104Y246701D01*
X537002Y246618D01*
X536901Y246526D01*
X536781Y246424D01*
X536549Y246202D01*
X536318Y245980D01*
X536207Y245869D01*
X536106Y245758D01*
X536013Y245657D01*
X535939Y245555D01*
Y245546D01*
X535921Y245536D01*
X535902Y245509D01*
X535884Y245472D01*
X535819Y245370D01*
X535745Y245250D01*
X535680Y245102D01*
X535616Y244945D01*
X535579Y244769D01*
X535560Y244603D01*
Y244593D01*
Y244584D01*
X535569Y244529D01*
X535579Y244436D01*
X535606Y244334D01*
X535643Y244205D01*
X535708Y244076D01*
X535791Y243946D01*
X535902Y243817D01*
X535921Y243798D01*
X535967Y243761D01*
X536032Y243715D01*
X536133Y243650D01*
X536263Y243595D01*
X536411Y243539D01*
X536586Y243502D01*
X536781Y243493D01*
X536836D01*
X536873Y243502D01*
X536984Y243512D01*
X537113Y243539D01*
X537252Y243576D01*
X537409Y243641D01*
X537557Y243724D01*
X537696Y243835D01*
X537714Y243854D01*
X537751Y243900D01*
X537807Y243974D01*
X537862Y244085D01*
X537927Y244214D01*
X537982Y244381D01*
X538019Y244566D01*
X538038Y244778D01*
X538842Y244695D01*
Y244686D01*
X538833Y244658D01*
Y244612D01*
X538824Y244547D01*
X538805Y244473D01*
X538787Y244390D01*
X538759Y244288D01*
X538731Y244186D01*
X538657Y243965D01*
X538546Y243743D01*
X538482Y243632D01*
X538399Y243521D01*
X538315Y243419D01*
X538223Y243327D01*
X538214Y243317D01*
X538195Y243308D01*
X538167Y243280D01*
X538121Y243253D01*
X538066Y243216D01*
X538001Y243179D01*
X537927Y243132D01*
X537835Y243086D01*
X537733Y243040D01*
X537622Y242994D01*
X537502Y242957D01*
X537372Y242920D01*
X537234Y242892D01*
X537086Y242864D01*
X536928Y242855D01*
X536762Y242846D01*
X536670D01*
X536605Y242855D01*
X536531Y242864D01*
X536438Y242874D01*
X536337Y242892D01*
X536235Y242911D01*
X535995Y242975D01*
X535754Y243068D01*
X535634Y243123D01*
X535514Y243188D01*
X535403Y243271D01*
X535301Y243364D01*
X535292Y243373D01*
X535274Y243382D01*
X535255Y243419D01*
X535218Y243456D01*
X535172Y243502D01*
X535126Y243567D01*
X535079Y243632D01*
X535024Y243715D01*
X534931Y243891D01*
X534839Y244112D01*
X534802Y244223D01*
X534784Y244353D01*
X534765Y244482D01*
X534756Y244621D01*
Y244639D01*
Y244686D01*
X534765Y244760D01*
X534774Y244861D01*
X534793Y244972D01*
X534830Y245102D01*
X534867Y245240D01*
X534922Y245379D01*
X534931Y245398D01*
X534950Y245444D01*
X534987Y245518D01*
X535042Y245620D01*
X535116Y245730D01*
X535209Y245869D01*
X535320Y246008D01*
X535449Y246165D01*
X535468Y246183D01*
X535514Y246239D01*
X535560Y246285D01*
X535606Y246332D01*
X535662Y246387D01*
X535736Y246461D01*
X535810Y246535D01*
X535902Y246618D01*
X535995Y246710D01*
X536106Y246812D01*
X536226Y246914D01*
X536355Y247034D01*
X536503Y247154D01*
X536651Y247284D01*
X536660Y247293D01*
X536679Y247311D01*
X536716Y247339D01*
X536762Y247376D01*
X536818Y247432D01*
X536882Y247487D01*
X537030Y247607D01*
X537187Y247746D01*
X537335Y247885D01*
X537465Y248005D01*
X537520Y248051D01*
X537566Y248097D01*
X537576Y248107D01*
X537603Y248134D01*
X537640Y248171D01*
X537687Y248227D01*
X537733Y248291D01*
X537788Y248356D01*
X537899Y248513D01*
X534747D01*
Y249272D01*
X538990D01*
Y249262D01*
D02*
G37*
%LPC*%
G36*
X626875Y247016D02*
X624860D01*
Y244149D01*
X626875Y247016D01*
D02*
G37*
G36*
X427859Y241744D02*
X427850D01*
X427840D01*
X427785Y241734D01*
X427702Y241725D01*
X427591Y241707D01*
X427480Y241660D01*
X427350Y241605D01*
X427230Y241522D01*
X427110Y241411D01*
X427101Y241392D01*
X427064Y241346D01*
X427018Y241272D01*
X426962Y241152D01*
X426907Y241013D01*
X426860Y240828D01*
X426823Y240616D01*
X426814Y240366D01*
Y238351D01*
X428931D01*
Y240255D01*
X428922Y240366D01*
X428913Y240495D01*
X428904Y240643D01*
X428885Y240791D01*
X428857Y240939D01*
X428820Y241069D01*
X428811Y241087D01*
X428793Y241124D01*
X428765Y241180D01*
X428728Y241254D01*
X428672Y241337D01*
X428608Y241420D01*
X428525Y241503D01*
X428432Y241568D01*
X428423Y241577D01*
X428386Y241596D01*
X428330Y241623D01*
X428256Y241660D01*
X428173Y241688D01*
X428081Y241716D01*
X427970Y241734D01*
X427859Y241744D01*
D02*
G37*
G36*
X438297Y276649D02*
X436180D01*
Y274745D01*
X436189Y274634D01*
X436198Y274505D01*
X436207Y274357D01*
X436226Y274209D01*
X436254Y274061D01*
X436291Y273931D01*
X436300Y273913D01*
X436318Y273876D01*
X436346Y273820D01*
X436383Y273746D01*
X436438Y273663D01*
X436503Y273580D01*
X436586Y273497D01*
X436679Y273432D01*
X436688Y273423D01*
X436725Y273404D01*
X436781Y273377D01*
X436855Y273340D01*
X436938Y273312D01*
X437030Y273284D01*
X437141Y273266D01*
X437252Y273256D01*
X437261D01*
X437271D01*
X437326Y273266D01*
X437409Y273275D01*
X437520Y273293D01*
X437631Y273340D01*
X437761Y273395D01*
X437881Y273478D01*
X438001Y273589D01*
X438010Y273608D01*
X438047Y273654D01*
X438093Y273728D01*
X438149Y273848D01*
X438204Y273987D01*
X438251Y274172D01*
X438288Y274384D01*
X438297Y274634D01*
Y276649D01*
D02*
G37*
G36*
X437400Y270326D02*
X437391D01*
X437382D01*
X437326Y270316D01*
X437243Y270307D01*
X437141Y270289D01*
X437021Y270252D01*
X436901Y270205D01*
X436771Y270131D01*
X436660Y270039D01*
X436651Y270030D01*
X436614Y269983D01*
X436568Y269919D01*
X436522Y269835D01*
X436466Y269725D01*
X436420Y269595D01*
X436383Y269447D01*
X436374Y269281D01*
Y269262D01*
X436383Y269207D01*
X436392Y269124D01*
X436411Y269013D01*
X436448Y268892D01*
X436494Y268772D01*
X436568Y268643D01*
X436660Y268532D01*
X436670Y268523D01*
X436716Y268486D01*
X436771Y268439D01*
X436855Y268384D01*
X436956Y268328D01*
X437076Y268282D01*
X437215Y268245D01*
X437363Y268236D01*
X437372D01*
X437382D01*
X437437D01*
X437520Y268255D01*
X437622Y268273D01*
X437733Y268310D01*
X437853Y268365D01*
X437973Y268439D01*
X438093Y268541D01*
X438103Y268550D01*
X438140Y268597D01*
X438186Y268661D01*
X438241Y268745D01*
X438297Y268855D01*
X438343Y268976D01*
X438380Y269124D01*
X438389Y269281D01*
Y269355D01*
X438371Y269438D01*
X438352Y269549D01*
X438315Y269669D01*
X438269Y269799D01*
X438195Y269919D01*
X438093Y270039D01*
X438084Y270048D01*
X438047Y270085D01*
X437982Y270131D01*
X437899Y270178D01*
X437798Y270233D01*
X437677Y270279D01*
X437548Y270316D01*
X437400Y270326D01*
D02*
G37*
G36*
X434451Y270584D02*
X434432D01*
X434395D01*
X434330Y270575D01*
X434247Y270566D01*
X434146Y270547D01*
X434035Y270520D01*
X433924Y270483D01*
X433803Y270436D01*
X433794Y270427D01*
X433748Y270409D01*
X433693Y270372D01*
X433628Y270316D01*
X433545Y270252D01*
X433461Y270168D01*
X433387Y270076D01*
X433313Y269965D01*
X433304Y269946D01*
X433286Y269909D01*
X433258Y269845D01*
X433230Y269762D01*
X433203Y269660D01*
X433175Y269540D01*
X433156Y269410D01*
X433147Y269281D01*
Y269225D01*
X433156Y269188D01*
X433166Y269077D01*
X433193Y268948D01*
X433240Y268800D01*
X433295Y268643D01*
X433387Y268495D01*
X433508Y268347D01*
X433526Y268328D01*
X433572Y268291D01*
X433656Y268227D01*
X433757Y268162D01*
X433887Y268097D01*
X434044Y268033D01*
X434229Y267996D01*
X434423Y267977D01*
X434432D01*
X434451D01*
X434478D01*
X434515Y267986D01*
X434617Y267996D01*
X434756Y268023D01*
X434894Y268070D01*
X435052Y268134D01*
X435209Y268227D01*
X435357Y268356D01*
X435375Y268375D01*
X435412Y268421D01*
X435477Y268504D01*
X435551Y268615D01*
X435616Y268754D01*
X435680Y268920D01*
X435717Y269105D01*
X435736Y269308D01*
Y269364D01*
X435727Y269401D01*
X435717Y269503D01*
X435690Y269632D01*
X435643Y269780D01*
X435579Y269928D01*
X435486Y270085D01*
X435366Y270224D01*
X435348Y270242D01*
X435301Y270279D01*
X435218Y270335D01*
X435116Y270399D01*
X434978Y270473D01*
X434821Y270529D01*
X434645Y270566D01*
X434451Y270584D01*
D02*
G37*
G36*
X676649Y156320D02*
X674745D01*
X674634Y156311D01*
X674504Y156302D01*
X674357Y156293D01*
X674209Y156274D01*
X674061Y156246D01*
X673931Y156209D01*
X673913Y156200D01*
X673876Y156182D01*
X673820Y156154D01*
X673746Y156117D01*
X673663Y156061D01*
X673580Y155997D01*
X673497Y155913D01*
X673432Y155821D01*
X673423Y155812D01*
X673404Y155775D01*
X673377Y155719D01*
X673340Y155645D01*
X673312Y155562D01*
X673284Y155470D01*
X673266Y155359D01*
X673256Y155248D01*
Y155239D01*
Y155229D01*
X673266Y155174D01*
X673275Y155091D01*
X673293Y154980D01*
X673340Y154869D01*
X673395Y154739D01*
X673478Y154619D01*
X673589Y154499D01*
X673608Y154490D01*
X673654Y154453D01*
X673728Y154406D01*
X673848Y154351D01*
X673987Y154296D01*
X674172Y154249D01*
X674384Y154212D01*
X674634Y154203D01*
X676649D01*
Y156320D01*
D02*
G37*
G36*
X664233Y159353D02*
X664186D01*
X664149Y159344D01*
X664057Y159334D01*
X663937Y159307D01*
X663807Y159251D01*
X663660Y159186D01*
X663512Y159085D01*
X663438Y159029D01*
X663373Y158955D01*
Y158946D01*
X663354Y158937D01*
X663317Y158881D01*
X663262Y158789D01*
X663188Y158669D01*
X663123Y158511D01*
X663068Y158327D01*
X663031Y158114D01*
X663012Y157864D01*
Y157855D01*
Y157837D01*
Y157800D01*
X663021Y157753D01*
Y157698D01*
X663031Y157633D01*
X663058Y157485D01*
X663095Y157319D01*
X663160Y157143D01*
X663253Y156977D01*
X663373Y156820D01*
X663391Y156801D01*
X663438Y156755D01*
X663512Y156699D01*
X663613Y156625D01*
X663743Y156552D01*
X663891Y156496D01*
X664066Y156450D01*
X664260Y156431D01*
X664316D01*
X664353Y156440D01*
X664445Y156450D01*
X664575Y156477D01*
X664714Y156524D01*
X664871Y156598D01*
X665019Y156690D01*
X665166Y156820D01*
X665185Y156838D01*
X665222Y156884D01*
X665287Y156967D01*
X665351Y157088D01*
X665416Y157226D01*
X665481Y157402D01*
X665518Y157596D01*
X665536Y157818D01*
Y157837D01*
Y157883D01*
X665527Y157966D01*
X665518Y158068D01*
X665499Y158188D01*
X665462Y158317D01*
X665425Y158456D01*
X665370Y158595D01*
X665361Y158613D01*
X665333Y158659D01*
X665296Y158724D01*
X665240Y158807D01*
X665176Y158891D01*
X665092Y158992D01*
X665000Y159075D01*
X664889Y159159D01*
X664871Y159168D01*
X664834Y159186D01*
X664769Y159223D01*
X664686Y159251D01*
X664593Y159288D01*
X664482Y159325D01*
X664362Y159344D01*
X664233Y159353D01*
D02*
G37*
G36*
X817866Y165797D02*
X815851D01*
Y163680D01*
X817755D01*
X817866Y163689D01*
X817996Y163698D01*
X818143Y163707D01*
X818291Y163726D01*
X818439Y163754D01*
X818569Y163791D01*
X818587Y163800D01*
X818624Y163818D01*
X818680Y163846D01*
X818754Y163883D01*
X818837Y163939D01*
X818920Y164003D01*
X819003Y164086D01*
X819068Y164179D01*
X819077Y164188D01*
X819096Y164225D01*
X819123Y164281D01*
X819160Y164355D01*
X819188Y164438D01*
X819216Y164530D01*
X819234Y164641D01*
X819244Y164752D01*
Y164761D01*
Y164771D01*
X819234Y164826D01*
X819225Y164909D01*
X819207Y165020D01*
X819160Y165131D01*
X819105Y165261D01*
X819022Y165381D01*
X818911Y165501D01*
X818892Y165510D01*
X818846Y165547D01*
X818772Y165593D01*
X818652Y165649D01*
X818513Y165704D01*
X818328Y165751D01*
X818116Y165788D01*
X817866Y165797D01*
D02*
G37*
%LPD*%
D10*
X734000Y379000D02*
X847000D01*
X734000Y271000D02*
Y379000D01*
Y271000D02*
X847000D01*
Y379000D01*
X735464Y228000D02*
X786526D01*
X735464D02*
Y267000D01*
X786526D01*
Y228000D02*
Y267000D01*
X607964Y228000D02*
X659026D01*
X607964D02*
Y267000D01*
X659026D01*
Y228000D02*
Y267000D01*
X424250Y222000D02*
X440750D01*
Y253000D01*
X424250D02*
X440750D01*
X424250Y222000D02*
Y253000D01*
Y293000D02*
X440750D01*
X424250Y262000D02*
Y293000D01*
Y262000D02*
X440750D01*
Y293000D01*
X662000Y151750D02*
X693000D01*
X662000D02*
Y168250D01*
X693000D01*
Y151750D02*
Y168250D01*
X799500Y151750D02*
Y168250D01*
Y151750D02*
X830500D01*
Y168250D01*
X799500D02*
X830500D01*
X570531Y228000D02*
Y267000D01*
X519469D02*
X570531D01*
X519469Y228000D02*
Y267000D01*
Y228000D02*
X570531D01*
M02*
