G04*
G04 #@! TF.GenerationSoftware,Altium Limited,Altium Designer,26.1.1 (7)*
G04*
G04 Layer_Color=32896*
%FSLAX44Y44*%
%MOMM*%
G71*
G04*
G04 #@! TF.SameCoordinates,A118C6E1-3479-42CE-8D72-1BDF69DDE12E*
G04*
G04*
G04 #@! TF.FilePolarity,Positive*
G04*
G01*
G75*
%ADD12C,0.2032*%
%ADD13C,0.1524*%
%ADD38C,0.1200*%
%ADD39C,0.0600*%
D12*
X178000Y312500D02*
Y356710D01*
X282000Y312500D02*
Y356710D01*
X178000Y312500D02*
X282000D01*
X178000Y342740D02*
X282000D01*
X178000Y356710D02*
X282000D01*
D13*
X308750Y317340D02*
Y337660D01*
X296250Y317340D02*
Y337660D01*
Y317340D02*
X308750D01*
X296250Y337660D02*
X308750D01*
X166250Y314840D02*
Y335160D01*
X153750Y314840D02*
Y335160D01*
Y314840D02*
X166250D01*
X153750Y335160D02*
X166250D01*
X615340Y209250D02*
Y221750D01*
X635660Y209250D02*
Y221750D01*
X615340Y209250D02*
X635660D01*
X615340Y221750D02*
X635660D01*
X615500Y189250D02*
X635500D01*
X615500Y201750D02*
X635500D01*
X615500Y189250D02*
Y201750D01*
X635500Y189250D02*
Y201750D01*
X693750Y200340D02*
Y220660D01*
X681250Y200340D02*
Y220660D01*
Y200340D02*
X693750D01*
X681250Y220660D02*
X693750D01*
X687500Y186750D02*
X707500D01*
X687500Y174250D02*
X707500D01*
Y186750D01*
X687500Y174250D02*
Y186750D01*
X681250Y237840D02*
Y258160D01*
X693750Y237840D02*
Y258160D01*
X681250D02*
X693750D01*
X681250Y237840D02*
X693750D01*
X713750Y238000D02*
Y258000D01*
X701250Y238000D02*
Y258000D01*
Y238000D02*
X713750D01*
X701250Y258000D02*
X713750D01*
X743840Y222750D02*
X764160D01*
X743840Y210250D02*
X764160D01*
Y222750D01*
X743840Y210250D02*
Y222750D01*
X744000Y190250D02*
X764000D01*
X744000Y202750D02*
X764000D01*
X744000Y190250D02*
Y202750D01*
X764000Y190250D02*
Y202750D01*
X811250Y199840D02*
Y220160D01*
X798750Y199840D02*
Y220160D01*
Y199840D02*
X811250D01*
X798750Y220160D02*
X811250D01*
X831250Y237500D02*
Y257500D01*
X818750Y237500D02*
Y257500D01*
Y237500D02*
X831250D01*
X818750Y257500D02*
X831250D01*
X798750Y237340D02*
Y257660D01*
X811250Y237340D02*
Y257660D01*
X798750D02*
X811250D01*
X798750Y237340D02*
X811250D01*
X805000Y186250D02*
X825000D01*
X805000Y173750D02*
X825000D01*
Y186250D01*
X805000Y173750D02*
Y186250D01*
X557500Y273750D02*
Y286250D01*
X577500Y273750D02*
Y286250D01*
X557500Y273750D02*
X577500D01*
X557500Y286250D02*
X577500D01*
Y293750D02*
Y306250D01*
X557500Y293750D02*
Y306250D01*
X577500D01*
X557500Y293750D02*
X577500D01*
X449840Y241250D02*
Y253750D01*
X470160Y241250D02*
Y253750D01*
X449840Y241250D02*
X470160D01*
X449840Y253750D02*
X470160D01*
X578750Y237500D02*
X591250D01*
X578750Y257500D02*
X591250D01*
Y237500D02*
Y257500D01*
X578750Y237500D02*
Y257500D01*
X449840Y261250D02*
Y273750D01*
X470160Y261250D02*
Y273750D01*
X449840Y261250D02*
X470160D01*
X449840Y273750D02*
X470160D01*
X507500Y241250D02*
Y253750D01*
X487500Y241250D02*
Y253750D01*
X507500D01*
X487500Y241250D02*
X507500D01*
Y261250D02*
Y273750D01*
X487500Y261250D02*
Y273750D01*
X507500D01*
X487500Y261250D02*
X507500D01*
X527450Y217660D02*
X539950D01*
X527450Y197340D02*
X539950D01*
X527450D02*
Y217660D01*
X539950Y197340D02*
Y217660D01*
X548400Y197500D02*
X560900D01*
X548400Y217500D02*
X560900D01*
Y197500D02*
Y217500D01*
X548400Y197500D02*
Y217500D01*
X501250Y207500D02*
X513750D01*
X501250Y227500D02*
X513750D01*
Y207500D02*
Y227500D01*
X501250Y207500D02*
Y227500D01*
D38*
X180470Y313367D02*
X187134D01*
Y311701D01*
X180470Y305036D01*
Y303370D01*
X190467Y311701D02*
X192133Y313367D01*
X195465D01*
X197131Y311701D01*
Y310035D01*
X195465Y308368D01*
X197131Y306702D01*
Y305036D01*
X195465Y303370D01*
X192133D01*
X190467Y305036D01*
Y306702D01*
X192133Y308368D01*
X190467Y310035D01*
Y311701D01*
X192133Y308368D02*
X195465D01*
X200464Y311701D02*
X202130Y313367D01*
X205462D01*
X207128Y311701D01*
Y305036D01*
X205462Y303370D01*
X202130D01*
X200464Y305036D01*
Y311701D01*
X210460Y305036D02*
X212127Y303370D01*
X215459D01*
X217125Y305036D01*
Y311701D01*
X215459Y313367D01*
X212127D01*
X210460Y311701D01*
Y310035D01*
X212127Y308368D01*
X217125D01*
X181740Y355277D02*
Y346946D01*
X183406Y345280D01*
X186738D01*
X188405Y346946D01*
Y355277D01*
X191737Y353611D02*
X193403Y355277D01*
X196735D01*
X198401Y353611D01*
Y351945D01*
X195069Y348612D01*
Y346946D02*
Y345280D01*
D39*
X301745Y341948D02*
X302578Y342781D01*
Y344447D01*
X301745Y345280D01*
X298413D01*
X297580Y344447D01*
Y342781D01*
X298413Y341948D01*
X296747Y340282D02*
Y336949D01*
X301745Y335283D02*
X302578Y334450D01*
Y332784D01*
X301745Y331951D01*
X298413D01*
X297580Y332784D01*
Y334450D01*
X298413Y335283D01*
X301745D01*
Y330285D02*
X302578Y329452D01*
Y327786D01*
X301745Y326953D01*
X300912D01*
X300079Y327786D01*
X299246Y326953D01*
X298413D01*
X297580Y327786D01*
Y329452D01*
X298413Y330285D01*
X299246D01*
X300079Y329452D01*
X300912Y330285D01*
X301745D01*
X300079Y329452D02*
Y327786D01*
X301745Y325286D02*
X302578Y324454D01*
Y322787D01*
X301745Y321954D01*
X298413D01*
X297580Y322787D01*
Y324454D01*
X298413Y325286D01*
X301745D01*
X302578Y316956D02*
Y320288D01*
X300079D01*
X300912Y318622D01*
Y317789D01*
X300079Y316956D01*
X298413D01*
X297580Y317789D01*
Y319455D01*
X298413Y320288D01*
X311745Y341948D02*
X312578Y342781D01*
Y344447D01*
X311745Y345280D01*
X308413D01*
X307580Y344447D01*
Y342781D01*
X308413Y341948D01*
X311745Y340282D02*
X312578Y339449D01*
Y337783D01*
X311745Y336949D01*
X310912D01*
X309246Y338615D01*
X308413D02*
X307580D01*
X159245Y339448D02*
X160078Y340281D01*
Y341947D01*
X159245Y342780D01*
X155913D01*
X155080Y341947D01*
Y340281D01*
X155913Y339448D01*
X154247Y337782D02*
Y334449D01*
X159245Y332783D02*
X160078Y331950D01*
Y330284D01*
X159245Y329451D01*
X155913D01*
X155080Y330284D01*
Y331950D01*
X155913Y332783D01*
X159245D01*
Y327785D02*
X160078Y326952D01*
Y325286D01*
X159245Y324453D01*
X158412D01*
X157579Y325286D01*
X156746Y324453D01*
X155913D01*
X155080Y325286D01*
Y326952D01*
X155913Y327785D01*
X156746D01*
X157579Y326952D01*
X158412Y327785D01*
X159245D01*
X157579Y326952D02*
Y325286D01*
X159245Y322787D02*
X160078Y321954D01*
Y320287D01*
X159245Y319454D01*
X155913D01*
X155080Y320287D01*
Y321954D01*
X155913Y322787D01*
X159245D01*
X160078Y314456D02*
Y317788D01*
X157579D01*
X158412Y316122D01*
Y315289D01*
X157579Y314456D01*
X155913D01*
X155080Y315289D01*
Y316955D01*
X155913Y317788D01*
X169245Y339448D02*
X170078Y340281D01*
Y341947D01*
X169245Y342780D01*
X165913D01*
X165080Y341947D01*
Y340281D01*
X165913Y339448D01*
X165080Y335283D02*
X170078D01*
X167579Y337782D01*
Y334449D01*
X611052Y224745D02*
X610219Y225578D01*
X608553D01*
X607720Y224745D01*
Y221413D01*
X608553Y220580D01*
X610219D01*
X611052Y221413D01*
X612718D02*
X613551Y220580D01*
X615218D01*
X616051Y221413D01*
Y224745D01*
X615218Y225578D01*
X613551D01*
X612718Y224745D01*
Y223912D01*
X613551Y223079D01*
X616051D01*
X607720Y210580D02*
X609386D01*
X608553D01*
Y215578D01*
X607720Y214745D01*
X611885D02*
X612718Y215578D01*
X614384D01*
X615218Y214745D01*
Y211413D01*
X614384Y210580D01*
X612718D01*
X611885Y211413D01*
Y214745D01*
X616884D02*
X617717Y215578D01*
X619383D01*
X620216Y214745D01*
Y211413D01*
X619383Y210580D01*
X617717D01*
X616884Y211413D01*
Y214745D01*
X621882Y210580D02*
Y213912D01*
X624381D01*
X625214Y213079D01*
Y210580D01*
X630213Y215578D02*
X626880D01*
Y213079D01*
X628546D01*
X626880D01*
Y210580D01*
X643280Y191690D02*
Y186692D01*
X640781D01*
X639948Y187525D01*
Y189191D01*
X640781Y190024D01*
X643280D01*
X641614D02*
X639948Y191690D01*
X638282D02*
X636615D01*
X637449D01*
Y186692D01*
X638282Y187525D01*
X634116D02*
X633283Y186692D01*
X631617D01*
X630784Y187525D01*
Y190857D01*
X631617Y191690D01*
X633283D01*
X634116Y190857D01*
Y187525D01*
X643280Y199310D02*
X641614D01*
X642447D01*
Y194312D01*
X643280Y195145D01*
X639115D02*
X638282Y194312D01*
X636615D01*
X635782Y195145D01*
Y198477D01*
X636615Y199310D01*
X638282D01*
X639115Y198477D01*
Y195145D01*
X686745Y224948D02*
X687578Y225781D01*
Y227447D01*
X686745Y228280D01*
X683413D01*
X682580Y227447D01*
Y225781D01*
X683413Y224948D01*
X681747Y223282D02*
Y219949D01*
X686745Y218283D02*
X687578Y217450D01*
Y215784D01*
X686745Y214951D01*
X683413D01*
X682580Y215784D01*
Y217450D01*
X683413Y218283D01*
X686745D01*
Y213285D02*
X687578Y212452D01*
Y210786D01*
X686745Y209953D01*
X685912D01*
X685079Y210786D01*
X684246Y209953D01*
X683413D01*
X682580Y210786D01*
Y212452D01*
X683413Y213285D01*
X684246D01*
X685079Y212452D01*
X685912Y213285D01*
X686745D01*
X685079Y212452D02*
Y210786D01*
X686745Y208287D02*
X687578Y207453D01*
Y205787D01*
X686745Y204954D01*
X683413D01*
X682580Y205787D01*
Y207453D01*
X683413Y208287D01*
X686745D01*
X687578Y199956D02*
Y203288D01*
X685079D01*
X685912Y201622D01*
Y200789D01*
X685079Y199956D01*
X683413D01*
X682580Y200789D01*
Y202455D01*
X683413Y203288D01*
X696745Y224948D02*
X697578Y225781D01*
Y227447D01*
X696745Y228280D01*
X693413D01*
X692580Y227447D01*
Y225781D01*
X693413Y224948D01*
X692580Y223282D02*
Y221616D01*
Y222449D01*
X697578D01*
X696745Y223282D01*
Y219116D02*
X697578Y218283D01*
Y216617D01*
X696745Y215784D01*
X695912D01*
X695079Y216617D01*
Y217450D01*
Y216617D01*
X694246Y215784D01*
X693413D01*
X692580Y216617D01*
Y218283D01*
X693413Y219116D01*
X679720Y184310D02*
Y189308D01*
X682219D01*
X683052Y188475D01*
Y186809D01*
X682219Y185976D01*
X679720D01*
X681386D02*
X683052Y184310D01*
X684718D02*
X686385D01*
X685551D01*
Y189308D01*
X684718Y188475D01*
X691383Y184310D02*
Y189308D01*
X688884Y186809D01*
X692216D01*
X679720Y176690D02*
X681386D01*
X680553D01*
Y181688D01*
X679720Y180855D01*
X683885D02*
X684718Y181688D01*
X686385D01*
X687218Y180855D01*
Y177523D01*
X686385Y176690D01*
X684718D01*
X683885Y177523D01*
Y180855D01*
X688884D02*
X689717Y181688D01*
X691383D01*
X692216Y180855D01*
Y177523D01*
X691383Y176690D01*
X689717D01*
X688884Y177523D01*
Y180855D01*
X693882Y176690D02*
Y181688D01*
Y178356D02*
X696381Y180022D01*
X693882Y178356D02*
X696381Y176690D01*
X688255Y233552D02*
X687422Y232719D01*
Y231053D01*
X688255Y230220D01*
X691587D01*
X692420Y231053D01*
Y232719D01*
X691587Y233552D01*
X693253Y235218D02*
Y238551D01*
X688255Y240217D02*
X687422Y241050D01*
Y242716D01*
X688255Y243549D01*
X691587D01*
X692420Y242716D01*
Y241050D01*
X691587Y240217D01*
X688255D01*
Y245215D02*
X687422Y246048D01*
Y247714D01*
X688255Y248547D01*
X689088D01*
X689921Y247714D01*
X690754Y248547D01*
X691587D01*
X692420Y247714D01*
Y246048D01*
X691587Y245215D01*
X690754D01*
X689921Y246048D01*
X689088Y245215D01*
X688255D01*
X689921Y246048D02*
Y247714D01*
X688255Y250214D02*
X687422Y251047D01*
Y252713D01*
X688255Y253546D01*
X691587D01*
X692420Y252713D01*
Y251047D01*
X691587Y250214D01*
X688255D01*
X687422Y258544D02*
Y255212D01*
X689921D01*
X689088Y256878D01*
Y257711D01*
X689921Y258544D01*
X691587D01*
X692420Y257711D01*
Y256045D01*
X691587Y255212D01*
X678255Y233552D02*
X677422Y232719D01*
Y231053D01*
X678255Y230220D01*
X681587D01*
X682420Y231053D01*
Y232719D01*
X681587Y233552D01*
X682420Y235218D02*
Y236884D01*
Y236051D01*
X677422D01*
X678255Y235218D01*
X682420Y239384D02*
Y241050D01*
Y240217D01*
X677422D01*
X678255Y239384D01*
X711310Y265780D02*
X716308D01*
Y263281D01*
X715475Y262448D01*
X713809D01*
X712976Y263281D01*
Y265780D01*
Y264114D02*
X711310Y262448D01*
Y260782D02*
Y259116D01*
Y259949D01*
X716308D01*
X715475Y260782D01*
X711310Y253284D02*
Y256616D01*
X714642Y253284D01*
X715475D01*
X716308Y254117D01*
Y255783D01*
X715475Y256616D01*
X703690Y265780D02*
X708688D01*
Y263281D01*
X707855Y262448D01*
X706189D01*
X705356Y263281D01*
Y265780D01*
Y264114D02*
X703690Y262448D01*
X702857Y260782D02*
Y257449D01*
X707855Y255783D02*
X708688Y254950D01*
Y253284D01*
X707855Y252451D01*
X704523D01*
X703690Y253284D01*
Y254950D01*
X704523Y255783D01*
X707855D01*
Y250785D02*
X708688Y249952D01*
Y248286D01*
X707855Y247453D01*
X707022D01*
X706189Y248286D01*
X705356Y247453D01*
X704523D01*
X703690Y248286D01*
Y249952D01*
X704523Y250785D01*
X705356D01*
X706189Y249952D01*
X707022Y250785D01*
X707855D01*
X706189Y249952D02*
Y248286D01*
X707855Y245787D02*
X708688Y244953D01*
Y243287D01*
X707855Y242454D01*
X704523D01*
X703690Y243287D01*
Y244953D01*
X704523Y245787D01*
X707855D01*
X708688Y237456D02*
Y240788D01*
X706189D01*
X707022Y239122D01*
Y238289D01*
X706189Y237456D01*
X704523D01*
X703690Y238289D01*
Y239955D01*
X704523Y240788D01*
X736220Y211580D02*
X737886D01*
X737053D01*
Y216578D01*
X736220Y215745D01*
X740385D02*
X741218Y216578D01*
X742885D01*
X743718Y215745D01*
Y212413D01*
X742885Y211580D01*
X741218D01*
X740385Y212413D01*
Y215745D01*
X745384D02*
X746217Y216578D01*
X747883D01*
X748716Y215745D01*
Y212413D01*
X747883Y211580D01*
X746217D01*
X745384Y212413D01*
Y215745D01*
X750382Y211580D02*
Y214912D01*
X752881D01*
X753714Y214079D01*
Y211580D01*
X758713Y216578D02*
X755380D01*
Y214079D01*
X757047D01*
X755380D01*
Y211580D01*
X739552Y225745D02*
X738719Y226578D01*
X737053D01*
X736220Y225745D01*
Y222413D01*
X737053Y221580D01*
X738719D01*
X739552Y222413D01*
X741218Y225745D02*
X742051Y226578D01*
X743717D01*
X744551Y225745D01*
Y224912D01*
X743717Y224079D01*
X744551Y223246D01*
Y222413D01*
X743717Y221580D01*
X742051D01*
X741218Y222413D01*
Y223246D01*
X742051Y224079D01*
X741218Y224912D01*
Y225745D01*
X742051Y224079D02*
X743717D01*
X771780Y192690D02*
Y187692D01*
X769281D01*
X768448Y188525D01*
Y190191D01*
X769281Y191024D01*
X771780D01*
X770114D02*
X768448Y192690D01*
X766782Y191857D02*
X765949Y192690D01*
X764282D01*
X763449Y191857D01*
Y188525D01*
X764282Y187692D01*
X765949D01*
X766782Y188525D01*
Y189358D01*
X765949Y190191D01*
X763449D01*
X771780Y200310D02*
X770114D01*
X770947D01*
Y195312D01*
X771780Y196145D01*
X767615D02*
X766782Y195312D01*
X765116D01*
X764282Y196145D01*
Y199477D01*
X765116Y200310D01*
X766782D01*
X767615Y199477D01*
Y196145D01*
X804245Y224448D02*
X805078Y225281D01*
Y226947D01*
X804245Y227780D01*
X800913D01*
X800080Y226947D01*
Y225281D01*
X800913Y224448D01*
X799247Y222782D02*
Y219449D01*
X804245Y217783D02*
X805078Y216950D01*
Y215284D01*
X804245Y214451D01*
X800913D01*
X800080Y215284D01*
Y216950D01*
X800913Y217783D01*
X804245D01*
Y212785D02*
X805078Y211952D01*
Y210286D01*
X804245Y209453D01*
X803412D01*
X802579Y210286D01*
X801746Y209453D01*
X800913D01*
X800080Y210286D01*
Y211952D01*
X800913Y212785D01*
X801746D01*
X802579Y211952D01*
X803412Y212785D01*
X804245D01*
X802579Y211952D02*
Y210286D01*
X804245Y207787D02*
X805078Y206954D01*
Y205287D01*
X804245Y204454D01*
X800913D01*
X800080Y205287D01*
Y206954D01*
X800913Y207787D01*
X804245D01*
X805078Y199456D02*
Y202788D01*
X802579D01*
X803412Y201122D01*
Y200289D01*
X802579Y199456D01*
X800913D01*
X800080Y200289D01*
Y201955D01*
X800913Y202788D01*
X814245Y224448D02*
X815078Y225281D01*
Y226947D01*
X814245Y227780D01*
X810913D01*
X810080Y226947D01*
Y225281D01*
X810913Y224448D01*
X810080Y222782D02*
Y221115D01*
Y221949D01*
X815078D01*
X814245Y222782D01*
X810080Y215284D02*
Y218616D01*
X813412Y215284D01*
X814245D01*
X815078Y216117D01*
Y217783D01*
X814245Y218616D01*
X828810Y265280D02*
X833808D01*
Y262781D01*
X832975Y261948D01*
X831309D01*
X830476Y262781D01*
Y265280D01*
Y263614D02*
X828810Y261948D01*
Y260282D02*
Y258615D01*
Y259449D01*
X833808D01*
X832975Y260282D01*
X828810Y256116D02*
Y254450D01*
Y255283D01*
X833808D01*
X832975Y256116D01*
X821190Y265280D02*
X826188D01*
Y262781D01*
X825355Y261948D01*
X823689D01*
X822856Y262781D01*
Y265280D01*
Y263614D02*
X821190Y261948D01*
X820357Y260282D02*
Y256949D01*
X825355Y255283D02*
X826188Y254450D01*
Y252784D01*
X825355Y251951D01*
X822023D01*
X821190Y252784D01*
Y254450D01*
X822023Y255283D01*
X825355D01*
Y250285D02*
X826188Y249452D01*
Y247786D01*
X825355Y246953D01*
X824522D01*
X823689Y247786D01*
X822856Y246953D01*
X822023D01*
X821190Y247786D01*
Y249452D01*
X822023Y250285D01*
X822856D01*
X823689Y249452D01*
X824522Y250285D01*
X825355D01*
X823689Y249452D02*
Y247786D01*
X825355Y245287D02*
X826188Y244454D01*
Y242787D01*
X825355Y241954D01*
X822023D01*
X821190Y242787D01*
Y244454D01*
X822023Y245287D01*
X825355D01*
X826188Y236956D02*
Y240288D01*
X823689D01*
X824522Y238622D01*
Y237789D01*
X823689Y236956D01*
X822023D01*
X821190Y237789D01*
Y239455D01*
X822023Y240288D01*
X805755Y233052D02*
X804922Y232219D01*
Y230553D01*
X805755Y229720D01*
X809087D01*
X809920Y230553D01*
Y232219D01*
X809087Y233052D01*
X810753Y234718D02*
Y238051D01*
X805755Y239717D02*
X804922Y240550D01*
Y242216D01*
X805755Y243049D01*
X809087D01*
X809920Y242216D01*
Y240550D01*
X809087Y239717D01*
X805755D01*
Y244715D02*
X804922Y245548D01*
Y247214D01*
X805755Y248047D01*
X806588D01*
X807421Y247214D01*
X808254Y248047D01*
X809087D01*
X809920Y247214D01*
Y245548D01*
X809087Y244715D01*
X808254D01*
X807421Y245548D01*
X806588Y244715D01*
X805755D01*
X807421Y245548D02*
Y247214D01*
X805755Y249713D02*
X804922Y250546D01*
Y252213D01*
X805755Y253046D01*
X809087D01*
X809920Y252213D01*
Y250546D01*
X809087Y249713D01*
X805755D01*
X804922Y258044D02*
Y254712D01*
X807421D01*
X806588Y256378D01*
Y257211D01*
X807421Y258044D01*
X809087D01*
X809920Y257211D01*
Y255545D01*
X809087Y254712D01*
X795755Y233052D02*
X794922Y232219D01*
Y230553D01*
X795755Y229720D01*
X799087D01*
X799920Y230553D01*
Y232219D01*
X799087Y233052D01*
X799920Y234718D02*
Y236385D01*
Y235551D01*
X794922D01*
X795755Y234718D01*
Y238884D02*
X794922Y239717D01*
Y241383D01*
X795755Y242216D01*
X799087D01*
X799920Y241383D01*
Y239717D01*
X799087Y238884D01*
X795755D01*
X797220Y183810D02*
Y188808D01*
X799719D01*
X800552Y187975D01*
Y186309D01*
X799719Y185476D01*
X797220D01*
X798886D02*
X800552Y183810D01*
X802218D02*
X803885D01*
X803052D01*
Y188808D01*
X802218Y187975D01*
X806384D02*
X807217Y188808D01*
X808883D01*
X809716Y187975D01*
Y187142D01*
X808883Y186309D01*
X808050D01*
X808883D01*
X809716Y185476D01*
Y184643D01*
X808883Y183810D01*
X807217D01*
X806384Y184643D01*
X797220Y176190D02*
X798886D01*
X798053D01*
Y181188D01*
X797220Y180355D01*
X801385D02*
X802218Y181188D01*
X803885D01*
X804718Y180355D01*
Y177023D01*
X803885Y176190D01*
X802218D01*
X801385Y177023D01*
Y180355D01*
X806384D02*
X807217Y181188D01*
X808883D01*
X809716Y180355D01*
Y177023D01*
X808883Y176190D01*
X807217D01*
X806384Y177023D01*
Y180355D01*
X811382Y176190D02*
Y181188D01*
Y177856D02*
X813881Y179522D01*
X811382Y177856D02*
X813881Y176190D01*
X549720Y276190D02*
Y281188D01*
X552219D01*
X553052Y280355D01*
Y278689D01*
X552219Y277856D01*
X549720D01*
X551386D02*
X553052Y276190D01*
X554718Y275357D02*
X558051D01*
X559717Y280355D02*
X560550Y281188D01*
X562216D01*
X563049Y280355D01*
Y277023D01*
X562216Y276190D01*
X560550D01*
X559717Y277023D01*
Y280355D01*
X564715D02*
X565548Y281188D01*
X567214D01*
X568047Y280355D01*
Y279522D01*
X567214Y278689D01*
X568047Y277856D01*
Y277023D01*
X567214Y276190D01*
X565548D01*
X564715Y277023D01*
Y277856D01*
X565548Y278689D01*
X564715Y279522D01*
Y280355D01*
X565548Y278689D02*
X567214D01*
X569713Y280355D02*
X570546Y281188D01*
X572213D01*
X573046Y280355D01*
Y277023D01*
X572213Y276190D01*
X570546D01*
X569713Y277023D01*
Y280355D01*
X578044Y281188D02*
X574712D01*
Y278689D01*
X576378Y279522D01*
X577211D01*
X578044Y278689D01*
Y277023D01*
X577211Y276190D01*
X575545D01*
X574712Y277023D01*
X549720Y283810D02*
Y288808D01*
X552219D01*
X553052Y287975D01*
Y286309D01*
X552219Y285476D01*
X549720D01*
X551386D02*
X553052Y283810D01*
X558051Y288808D02*
X554718D01*
Y286309D01*
X556384Y287142D01*
X557217D01*
X558051Y286309D01*
Y284643D01*
X557217Y283810D01*
X555551D01*
X554718Y284643D01*
X585280Y303810D02*
Y298812D01*
X582781D01*
X581948Y299645D01*
Y301311D01*
X582781Y302144D01*
X585280D01*
X583614D02*
X581948Y303810D01*
X580282Y304643D02*
X576949D01*
X575283Y299645D02*
X574450Y298812D01*
X572784D01*
X571951Y299645D01*
Y302977D01*
X572784Y303810D01*
X574450D01*
X575283Y302977D01*
Y299645D01*
X570285D02*
X569452Y298812D01*
X567786D01*
X566953Y299645D01*
Y300478D01*
X567786Y301311D01*
X566953Y302144D01*
Y302977D01*
X567786Y303810D01*
X569452D01*
X570285Y302977D01*
Y302144D01*
X569452Y301311D01*
X570285Y300478D01*
Y299645D01*
X569452Y301311D02*
X567786D01*
X565286Y299645D02*
X564453Y298812D01*
X562787D01*
X561954Y299645D01*
Y302977D01*
X562787Y303810D01*
X564453D01*
X565286Y302977D01*
Y299645D01*
X556956Y298812D02*
X560288D01*
Y301311D01*
X558622Y300478D01*
X557789D01*
X556956Y301311D01*
Y302977D01*
X557789Y303810D01*
X559455D01*
X560288Y302977D01*
X585280Y296190D02*
Y291192D01*
X582781D01*
X581948Y292025D01*
Y293691D01*
X582781Y294524D01*
X585280D01*
X583614D02*
X581948Y296190D01*
X576949Y291192D02*
X578615Y292025D01*
X580282Y293691D01*
Y295357D01*
X579449Y296190D01*
X577782D01*
X576949Y295357D01*
Y294524D01*
X577782Y293691D01*
X580282D01*
X445552Y256745D02*
X444719Y257578D01*
X443053D01*
X442220Y256745D01*
Y253413D01*
X443053Y252580D01*
X444719D01*
X445552Y253413D01*
X450551Y252580D02*
X447218D01*
X450551Y255912D01*
Y256745D01*
X449717Y257578D01*
X448051D01*
X447218Y256745D01*
X445552Y246745D02*
X444719Y247578D01*
X443053D01*
X442220Y246745D01*
Y243413D01*
X443053Y242580D01*
X444719D01*
X445552Y243413D01*
X447218Y241747D02*
X450551D01*
X452217Y246745D02*
X453050Y247578D01*
X454716D01*
X455549Y246745D01*
Y243413D01*
X454716Y242580D01*
X453050D01*
X452217Y243413D01*
Y246745D01*
X457215D02*
X458048Y247578D01*
X459714D01*
X460547Y246745D01*
Y245912D01*
X459714Y245079D01*
X460547Y244246D01*
Y243413D01*
X459714Y242580D01*
X458048D01*
X457215Y243413D01*
Y244246D01*
X458048Y245079D01*
X457215Y245912D01*
Y246745D01*
X458048Y245079D02*
X459714D01*
X462213Y246745D02*
X463046Y247578D01*
X464713D01*
X465546Y246745D01*
Y243413D01*
X464713Y242580D01*
X463046D01*
X462213Y243413D01*
Y246745D01*
X470544Y247578D02*
X467212D01*
Y245079D01*
X468878Y245912D01*
X469711D01*
X470544Y245079D01*
Y243413D01*
X469711Y242580D01*
X468045D01*
X467212Y243413D01*
X583812Y229720D02*
X588810D01*
Y232219D01*
X587977Y233052D01*
X584645D01*
X583812Y232219D01*
Y229720D01*
X588810Y234718D02*
X583812D01*
X588810Y238051D01*
X583812D01*
X588810Y239717D02*
X583812D01*
Y242216D01*
X584645Y243049D01*
X586311D01*
X587144Y242216D01*
Y239717D01*
X581190Y229720D02*
X576192D01*
Y232219D01*
X577025Y233052D01*
X578691D01*
X579524Y232219D01*
Y229720D01*
Y231386D02*
X581190Y233052D01*
X576192Y234718D02*
Y238051D01*
X577025D01*
X580357Y234718D01*
X581190D01*
X445552Y276745D02*
X444719Y277578D01*
X443053D01*
X442220Y276745D01*
Y273413D01*
X443053Y272580D01*
X444719D01*
X445552Y273413D01*
X447218Y276745D02*
X448051Y277578D01*
X449717D01*
X450551Y276745D01*
Y275912D01*
X449717Y275079D01*
X448884D01*
X449717D01*
X450551Y274246D01*
Y273413D01*
X449717Y272580D01*
X448051D01*
X447218Y273413D01*
X445552Y266745D02*
X444719Y267578D01*
X443053D01*
X442220Y266745D01*
Y263413D01*
X443053Y262580D01*
X444719D01*
X445552Y263413D01*
X447218Y261747D02*
X450551D01*
X452217Y266745D02*
X453050Y267578D01*
X454716D01*
X455549Y266745D01*
Y263413D01*
X454716Y262580D01*
X453050D01*
X452217Y263413D01*
Y266745D01*
X457215D02*
X458048Y267578D01*
X459714D01*
X460547Y266745D01*
Y265912D01*
X459714Y265079D01*
X460547Y264246D01*
Y263413D01*
X459714Y262580D01*
X458048D01*
X457215Y263413D01*
Y264246D01*
X458048Y265079D01*
X457215Y265912D01*
Y266745D01*
X458048Y265079D02*
X459714D01*
X462213Y266745D02*
X463046Y267578D01*
X464713D01*
X465546Y266745D01*
Y263413D01*
X464713Y262580D01*
X463046D01*
X462213Y263413D01*
Y266745D01*
X470544Y267578D02*
X467212D01*
Y265079D01*
X468878Y265912D01*
X469711D01*
X470544Y265079D01*
Y263413D01*
X469711Y262580D01*
X468045D01*
X467212Y263413D01*
X515280Y251310D02*
Y246312D01*
X512781D01*
X511948Y247145D01*
Y248811D01*
X512781Y249644D01*
X515280D01*
X513614D02*
X511948Y251310D01*
X510282Y252143D02*
X506949D01*
X505283Y247145D02*
X504450Y246312D01*
X502784D01*
X501951Y247145D01*
Y250477D01*
X502784Y251310D01*
X504450D01*
X505283Y250477D01*
Y247145D01*
X500285D02*
X499452Y246312D01*
X497786D01*
X496953Y247145D01*
Y247978D01*
X497786Y248811D01*
X496953Y249644D01*
Y250477D01*
X497786Y251310D01*
X499452D01*
X500285Y250477D01*
Y249644D01*
X499452Y248811D01*
X500285Y247978D01*
Y247145D01*
X499452Y248811D02*
X497786D01*
X495286Y247145D02*
X494453Y246312D01*
X492787D01*
X491954Y247145D01*
Y250477D01*
X492787Y251310D01*
X494453D01*
X495286Y250477D01*
Y247145D01*
X486956Y246312D02*
X490288D01*
Y248811D01*
X488622Y247978D01*
X487789D01*
X486956Y248811D01*
Y250477D01*
X487789Y251310D01*
X489455D01*
X490288Y250477D01*
X515280Y243690D02*
Y238692D01*
X512781D01*
X511948Y239525D01*
Y241191D01*
X512781Y242024D01*
X515280D01*
X513614D02*
X511948Y243690D01*
X510282D02*
X508615D01*
X509449D01*
Y238692D01*
X510282Y239525D01*
X515280Y271310D02*
Y266312D01*
X512781D01*
X511948Y267145D01*
Y268811D01*
X512781Y269644D01*
X515280D01*
X513614D02*
X511948Y271310D01*
X510282Y272143D02*
X506949D01*
X505283Y267145D02*
X504450Y266312D01*
X502784D01*
X501951Y267145D01*
Y270477D01*
X502784Y271310D01*
X504450D01*
X505283Y270477D01*
Y267145D01*
X500285D02*
X499452Y266312D01*
X497786D01*
X496953Y267145D01*
Y267978D01*
X497786Y268811D01*
X496953Y269644D01*
Y270477D01*
X497786Y271310D01*
X499452D01*
X500285Y270477D01*
Y269644D01*
X499452Y268811D01*
X500285Y267978D01*
Y267145D01*
X499452Y268811D02*
X497786D01*
X495286Y267145D02*
X494453Y266312D01*
X492787D01*
X491954Y267145D01*
Y270477D01*
X492787Y271310D01*
X494453D01*
X495286Y270477D01*
Y267145D01*
X486956Y266312D02*
X490288D01*
Y268811D01*
X488622Y267978D01*
X487789D01*
X486956Y268811D01*
Y270477D01*
X487789Y271310D01*
X489455D01*
X490288Y270477D01*
X515280Y263690D02*
Y258692D01*
X512781D01*
X511948Y259525D01*
Y261191D01*
X512781Y262024D01*
X515280D01*
X513614D02*
X511948Y263690D01*
X506949D02*
X510282D01*
X506949Y260358D01*
Y259525D01*
X507782Y258692D01*
X509449D01*
X510282Y259525D01*
X542945Y221948D02*
X543778Y222781D01*
Y224447D01*
X542945Y225280D01*
X539613D01*
X538780Y224447D01*
Y222781D01*
X539613Y221948D01*
X543778Y216950D02*
X542945Y218616D01*
X541279Y220282D01*
X539613D01*
X538780Y219449D01*
Y217782D01*
X539613Y216950D01*
X540446D01*
X541279Y217782D01*
Y220282D01*
X528780Y225280D02*
Y223614D01*
Y224447D01*
X533778D01*
X532945Y225280D01*
Y221115D02*
X533778Y220282D01*
Y218616D01*
X532945Y217782D01*
X529613D01*
X528780Y218616D01*
Y220282D01*
X529613Y221115D01*
X532945D01*
Y216116D02*
X533778Y215283D01*
Y213617D01*
X532945Y212784D01*
X529613D01*
X528780Y213617D01*
Y215283D01*
X529613Y216116D01*
X532945D01*
X528780Y211118D02*
X532112D01*
Y208619D01*
X531279Y207786D01*
X528780D01*
X533778Y202787D02*
Y206120D01*
X531279D01*
Y204454D01*
Y206120D01*
X528780D01*
X558460Y189720D02*
Y191386D01*
Y190553D01*
X553462D01*
X554295Y189720D01*
Y193885D02*
X553462Y194718D01*
Y196385D01*
X554295Y197218D01*
X557627D01*
X558460Y196385D01*
Y194718D01*
X557627Y193885D01*
X554295D01*
X550840Y189720D02*
X545842D01*
Y192219D01*
X546675Y193052D01*
X548341D01*
X549174Y192219D01*
Y189720D01*
Y191386D02*
X550840Y193052D01*
Y197218D02*
X545842D01*
X548341Y194718D01*
Y198051D01*
X511310Y199720D02*
X506312D01*
Y202219D01*
X507145Y203052D01*
X508811D01*
X509644Y202219D01*
Y199720D01*
Y201386D02*
X511310Y203052D01*
X512143Y204718D02*
Y208051D01*
X507145Y209717D02*
X506312Y210550D01*
Y212216D01*
X507145Y213049D01*
X510477D01*
X511310Y212216D01*
Y210550D01*
X510477Y209717D01*
X507145D01*
Y214715D02*
X506312Y215548D01*
Y217214D01*
X507145Y218047D01*
X507978D01*
X508811Y217214D01*
X509644Y218047D01*
X510477D01*
X511310Y217214D01*
Y215548D01*
X510477Y214715D01*
X509644D01*
X508811Y215548D01*
X507978Y214715D01*
X507145D01*
X508811Y215548D02*
Y217214D01*
X507145Y219713D02*
X506312Y220547D01*
Y222213D01*
X507145Y223046D01*
X510477D01*
X511310Y222213D01*
Y220547D01*
X510477Y219713D01*
X507145D01*
X506312Y228044D02*
Y224712D01*
X508811D01*
X507978Y226378D01*
Y227211D01*
X508811Y228044D01*
X510477D01*
X511310Y227211D01*
Y225545D01*
X510477Y224712D01*
X503690Y199720D02*
X498692D01*
Y202219D01*
X499525Y203052D01*
X501191D01*
X502024Y202219D01*
Y199720D01*
Y201386D02*
X503690Y203052D01*
X499525Y204718D02*
X498692Y205551D01*
Y207218D01*
X499525Y208051D01*
X500358D01*
X501191Y207218D01*
Y206385D01*
Y207218D01*
X502024Y208051D01*
X502857D01*
X503690Y207218D01*
Y205551D01*
X502857Y204718D01*
M02*
