G04*
G04 #@! TF.GenerationSoftware,Altium Limited,Altium Designer,26.1.1 (7)*
G04*
G04 Layer_Color=16711935*
%FSLAX44Y44*%
%MOMM*%
G71*
G04*
G04 #@! TF.SameCoordinates,A118C6E1-3479-42CE-8D72-1BDF69DDE12E*
G04*
G04*
G04 #@! TF.FilePolarity,Negative*
G04*
G01*
G75*
%ADD16R,1.9050X5.0800*%
%ADD24C,2.0000*%
%ADD25R,2.0000X2.0000*%
%ADD26C,4.0000*%
%ADD27C,2.0320*%
%ADD28O,2.0000X4.5000*%
%ADD29R,2.0320X2.0320*%
%ADD30O,2.0000X4.0000*%
%ADD31O,4.0000X2.0000*%
%ADD32C,0.9000*%
D16*
X668180Y422500D02*
D03*
X581820D02*
D03*
X918180Y27500D02*
D03*
X831820D02*
D03*
X668180D02*
D03*
X581820D02*
D03*
X418180D02*
D03*
X331820D02*
D03*
X168180D02*
D03*
X81820D02*
D03*
D24*
X745000Y325000D02*
D03*
X820000Y300000D02*
D03*
D25*
Y350000D02*
D03*
D26*
X960000Y410000D02*
D03*
Y40000D02*
D03*
X40000Y410000D02*
D03*
Y40000D02*
D03*
D27*
X230000Y327500D02*
D03*
X255400D02*
D03*
D28*
X137000Y225000D02*
D03*
D29*
X204600Y327500D02*
D03*
D30*
X75000Y225000D02*
D03*
D31*
X105000Y175000D02*
D03*
D32*
X330000Y362500D02*
D03*
X850000Y400000D02*
D03*
X900000D02*
D03*
X800000D02*
D03*
X750000Y350000D02*
D03*
X900000D02*
D03*
X950000D02*
D03*
X800000D02*
D03*
X850000D02*
D03*
X700000Y400000D02*
D03*
X750000D02*
D03*
X700000Y350000D02*
D03*
Y300000D02*
D03*
X900000D02*
D03*
X950000D02*
D03*
X850000D02*
D03*
Y250000D02*
D03*
X900000D02*
D03*
X950000D02*
D03*
X794000Y248000D02*
D03*
X750000Y300000D02*
D03*
X778000Y216000D02*
D03*
X640000Y370000D02*
D03*
Y390000D02*
D03*
Y350000D02*
D03*
X610000Y370000D02*
D03*
Y350000D02*
D03*
X640000Y330000D02*
D03*
Y310000D02*
D03*
X610000Y330000D02*
D03*
Y310000D02*
D03*
X500000Y400000D02*
D03*
X550000D02*
D03*
X610000Y390000D02*
D03*
X550000Y350000D02*
D03*
X450000D02*
D03*
X500000D02*
D03*
X640000Y290000D02*
D03*
X610000D02*
D03*
X592500Y280000D02*
D03*
X664229Y247500D02*
D03*
X650000Y215500D02*
D03*
X500000Y300000D02*
D03*
X540000Y247500D02*
D03*
X950000Y200000D02*
D03*
X900000D02*
D03*
Y150000D02*
D03*
X850000Y200000D02*
D03*
X855000Y150000D02*
D03*
X950000D02*
D03*
X885000Y120000D02*
D03*
X870000Y135000D02*
D03*
X845000Y115000D02*
D03*
X840000Y165000D02*
D03*
X815000Y145000D02*
D03*
X830000Y130000D02*
D03*
X750000Y150000D02*
D03*
Y100000D02*
D03*
X950000D02*
D03*
X890000Y80000D02*
D03*
Y100000D02*
D03*
X860000Y60000D02*
D03*
X890000D02*
D03*
X860000Y100000D02*
D03*
Y80000D02*
D03*
X800000Y100000D02*
D03*
X750000Y50000D02*
D03*
X800000D02*
D03*
X655000Y165000D02*
D03*
X640000Y150000D02*
D03*
X550000D02*
D03*
X665000Y135000D02*
D03*
X650000Y120000D02*
D03*
X625000Y135000D02*
D03*
X610000Y120000D02*
D03*
X520000Y197500D02*
D03*
X450000Y200000D02*
D03*
X500000Y100000D02*
D03*
Y150000D02*
D03*
X450000Y100000D02*
D03*
X700000D02*
D03*
X640000Y80000D02*
D03*
Y100000D02*
D03*
X610000Y60000D02*
D03*
X700000Y50000D02*
D03*
X640000Y60000D02*
D03*
X610000Y100000D02*
D03*
Y80000D02*
D03*
X550000Y100000D02*
D03*
X500000Y50000D02*
D03*
X550000D02*
D03*
X450000Y400000D02*
D03*
X400000D02*
D03*
Y350000D02*
D03*
X350000Y400000D02*
D03*
Y350000D02*
D03*
X400000Y300000D02*
D03*
X450000D02*
D03*
X350000D02*
D03*
X302500Y362500D02*
D03*
X300000Y300000D02*
D03*
X415000Y285000D02*
D03*
X375000D02*
D03*
X395000D02*
D03*
X405000Y215000D02*
D03*
X385000Y250000D02*
D03*
X375000Y235000D02*
D03*
X335000Y285000D02*
D03*
X355000D02*
D03*
X315000D02*
D03*
X325000Y250000D02*
D03*
X365000D02*
D03*
X360000Y220000D02*
D03*
X345000Y250000D02*
D03*
X305000Y245000D02*
D03*
X300000Y400000D02*
D03*
X150000D02*
D03*
X160000Y350000D02*
D03*
X200000Y300000D02*
D03*
X100000Y400000D02*
D03*
X137500Y362500D02*
D03*
X50000Y350000D02*
D03*
X100000Y300000D02*
D03*
Y350000D02*
D03*
X50000Y300000D02*
D03*
X295000Y280000D02*
D03*
X280000Y265000D02*
D03*
X250000Y250000D02*
D03*
X265000D02*
D03*
X290000Y230000D02*
D03*
X275000Y215000D02*
D03*
X250000Y235000D02*
D03*
X260000Y200000D02*
D03*
X150000Y250000D02*
D03*
X200000D02*
D03*
X50000D02*
D03*
X100000D02*
D03*
X235000Y220000D02*
D03*
X220000Y205000D02*
D03*
X50000Y200000D02*
D03*
X390000Y160000D02*
D03*
Y180000D02*
D03*
X450000Y150000D02*
D03*
X390000Y200000D02*
D03*
X360000Y140000D02*
D03*
X390000D02*
D03*
Y120000D02*
D03*
X360000D02*
D03*
Y100000D02*
D03*
Y180000D02*
D03*
Y160000D02*
D03*
X300000Y200000D02*
D03*
X360000D02*
D03*
X300000Y150000D02*
D03*
Y100000D02*
D03*
X250000Y150000D02*
D03*
Y100000D02*
D03*
X390000D02*
D03*
Y80000D02*
D03*
X360000D02*
D03*
Y60000D02*
D03*
X450000Y50000D02*
D03*
X390000Y60000D02*
D03*
X250000Y50000D02*
D03*
X300000D02*
D03*
X245000Y185000D02*
D03*
X230000Y170000D02*
D03*
X205000Y190000D02*
D03*
X190000Y175000D02*
D03*
X215000Y155000D02*
D03*
X200000Y140000D02*
D03*
X175000Y160000D02*
D03*
X185000Y125000D02*
D03*
X150000Y200000D02*
D03*
X100000Y150000D02*
D03*
Y200000D02*
D03*
X50000Y150000D02*
D03*
X160000Y145000D02*
D03*
X170000Y110000D02*
D03*
X145000Y130000D02*
D03*
X130000Y115000D02*
D03*
X200000Y100000D02*
D03*
X155000Y95000D02*
D03*
X115000Y100000D02*
D03*
X140000Y80000D02*
D03*
X200000Y50000D02*
D03*
X140000Y60000D02*
D03*
X110000Y80000D02*
D03*
Y60000D02*
D03*
X50000Y100000D02*
D03*
X100000D02*
D03*
X577500Y217500D02*
D03*
X592500Y297500D02*
D03*
X667500Y195500D02*
D03*
X707500D02*
D03*
M02*
