M48
;Layer_Color=9474304
;FILE_FORMAT=4:4
METRIC,LZ
;TYPE=PLATED
T01F00S00C0.5000
T03F00S00C1.0160
T04F00S00C1.3000
T05F00S00C3.0000
%
T01
X0005Y001
Y0015
Y002
Y0025
X001
X0015
X002
X0025
X00265
X0025Y00235
X00235Y0022
X0022Y00205
X00205Y0019
X0019Y00175
X00175Y0016
X0016Y00145
X00145Y0013
X0013Y00115
X00115Y001
X001
X0011Y0008
Y0006
X0014
Y0008
X00155Y00095
X0017Y0011
X00185Y00125
X002Y0014
X00215Y00155
X0023Y0017
X00245Y00185
X0026Y002
X00275Y00215
X0025Y0015
Y001
Y0005
X002
Y001
X0015Y002
X001
Y0015
X003
Y002
X0029Y0023
X00305Y00245
X00325Y0025
X00345
X00365
X00385
X00375Y00235
X0036Y0022
Y002
Y0018
Y0016
Y0014
Y0012
Y001
Y0008
Y0006
X0039
Y0008
Y001
Y0012
Y0014
Y0016
Y0018
Y002
X00405Y00215
X0045Y002
Y0015
X005
X0055
Y001
X005
X0045
Y0005
X005
X0055
X0061Y0006
Y0008
Y001
Y0012
X00625Y00135
X0064Y0015
X00655Y00165
X00665Y00135
X0065Y0012
X0064Y001
Y0008
Y0006
X006675Y001955
X0065Y002155
X00664229Y002475
X005775Y002175
X0054Y002475
X0052Y001975
X0028Y00265
X003Y001
Y0005
X007
X0075
Y001
Y0015
X00815Y00145
X0083Y0013
X00845Y00115
X0086Y001
Y0008
Y0006
X0089
Y0008
Y001
X00885Y0012
X0087Y00135
X00855Y0015
X0084Y00165
X0085Y002
Y0025
X009
X0095
Y002
X009
Y0015
X0095
Y001
X008
Y0005
X007Y001
X007075Y001955
X00778Y00216
X00794Y00248
X0075Y003
Y0035
Y004
X008
Y0035
X0085
Y004
X009
Y0035
X0095
Y003
X009
X0085
X007
Y0035
Y004
X0064Y0039
Y0037
Y0035
Y0033
Y0031
Y0029
X0061
Y0031
Y0033
Y0035
Y0037
Y0039
X0055Y004
Y0035
X005
Y004
X0045
Y0035
X004
Y004
X0035
Y0035
X0033Y003625
X003025
X003Y004
Y003
X00295Y0028
X00315Y00285
X00335
X00355
X0035Y003
X00375Y00285
X00395
X004Y003
X00415Y00285
X0045Y003
X005
X005925Y002975
X005925Y0028
X002Y003
X0016Y0035
X001375Y003625
X0015Y004
X001
Y0035
X0005
Y003
X001
T03
X002046Y003275
X0023
X002554
T04
X00745Y00325
X0082Y003
Y0035
T05
X0004Y0004
X0096
Y0041
X0004
M30
