G04*
G04 #@! TF.GenerationSoftware,Altium Limited,Altium Designer,26.1.1 (7)*
G04*
G04 Layer_Physical_Order=2*
G04 Layer_Color=16711680*
%FSLAX44Y44*%
%MOMM*%
G71*
G04*
G04 #@! TF.SameCoordinates,A118C6E1-3479-42CE-8D72-1BDF69DDE12E*
G04*
G04*
G04 #@! TF.FilePolarity,Positive*
G04*
G01*
G75*
%ADD16R,1.9050X5.0800*%
%ADD24C,2.0000*%
%ADD25R,2.0000X2.0000*%
%ADD26C,4.0000*%
%ADD27C,2.0320*%
%ADD28O,2.0000X4.5000*%
%ADD29R,2.0320X2.0320*%
%ADD30O,2.0000X4.0000*%
%ADD31O,4.0000X2.0000*%
%ADD32C,0.9000*%
%ADD33C,0.8000*%
G36*
X997451Y2549D02*
X930205D01*
Y55400D01*
X919430D01*
Y27500D01*
X916930D01*
Y55400D01*
X906155D01*
Y2549D01*
X843845D01*
Y55400D01*
X833070D01*
Y27500D01*
X830570D01*
Y55400D01*
X819795D01*
Y2549D01*
X680205D01*
Y55400D01*
X669430D01*
Y27500D01*
X666930D01*
Y55400D01*
X656155D01*
Y2549D01*
X593845D01*
Y55400D01*
X583070D01*
Y27500D01*
X580570D01*
Y55400D01*
X569795D01*
Y2549D01*
X430205D01*
Y55400D01*
X419430D01*
Y27500D01*
X416930D01*
Y55400D01*
X406155D01*
Y2549D01*
X343845D01*
Y55400D01*
X333070D01*
Y27500D01*
X330570D01*
Y55400D01*
X319795D01*
Y2549D01*
X180205D01*
Y55400D01*
X169430D01*
Y27500D01*
X166930D01*
Y55400D01*
X156155D01*
Y2549D01*
X93845D01*
Y55400D01*
X83070D01*
Y27500D01*
X80570D01*
Y55400D01*
X69795D01*
Y2549D01*
X2549D01*
Y447451D01*
X569795D01*
Y394600D01*
X580570D01*
Y422500D01*
X583070D01*
Y394600D01*
X593845D01*
Y447451D01*
X656155D01*
Y394600D01*
X666930D01*
Y422500D01*
X669430D01*
Y394600D01*
X680205D01*
Y447451D01*
X997451D01*
Y2549D01*
D02*
G37*
%LPC*%
G36*
X962216Y432500D02*
X961250D01*
Y411250D01*
X982500D01*
Y412216D01*
X981635Y416563D01*
X979939Y420658D01*
X977477Y424343D01*
X974343Y427477D01*
X970658Y429939D01*
X966563Y431635D01*
X962216Y432500D01*
D02*
G37*
G36*
X958750D02*
X957784D01*
X953437Y431635D01*
X949342Y429939D01*
X945657Y427477D01*
X942523Y424343D01*
X940061Y420658D01*
X938365Y416563D01*
X937500Y412216D01*
Y411250D01*
X958750D01*
Y432500D01*
D02*
G37*
G36*
X42216D02*
X41250D01*
Y411250D01*
X62500D01*
Y412216D01*
X61635Y416563D01*
X59939Y420658D01*
X57477Y424343D01*
X54343Y427477D01*
X50658Y429939D01*
X46563Y431635D01*
X42216Y432500D01*
D02*
G37*
G36*
X38750D02*
X37784D01*
X33437Y431635D01*
X29342Y429939D01*
X25657Y427477D01*
X22523Y424343D01*
X20061Y420658D01*
X18365Y416563D01*
X17500Y412216D01*
Y411250D01*
X38750D01*
Y432500D01*
D02*
G37*
G36*
X982500Y408750D02*
X961250D01*
Y387500D01*
X962216D01*
X966563Y388365D01*
X970658Y390061D01*
X974343Y392523D01*
X977477Y395657D01*
X979939Y399342D01*
X981635Y403437D01*
X982500Y407784D01*
Y408750D01*
D02*
G37*
G36*
X958750D02*
X937500D01*
Y407784D01*
X938365Y403437D01*
X940061Y399342D01*
X942523Y395657D01*
X945657Y392523D01*
X949342Y390061D01*
X953437Y388365D01*
X957784Y387500D01*
X958750D01*
Y408750D01*
D02*
G37*
G36*
X62500D02*
X41250D01*
Y387500D01*
X42216D01*
X46563Y388365D01*
X50658Y390061D01*
X54343Y392523D01*
X57477Y395657D01*
X59939Y399342D01*
X61635Y403437D01*
X62500Y407784D01*
Y408750D01*
D02*
G37*
G36*
X38750D02*
X17500D01*
Y407784D01*
X18365Y403437D01*
X20061Y399342D01*
X22523Y395657D01*
X25657Y392523D01*
X29342Y390061D01*
X33437Y388365D01*
X37784Y387500D01*
X38750D01*
Y408750D01*
D02*
G37*
G36*
X831500Y361500D02*
X808500D01*
Y338500D01*
X831500D01*
Y361500D01*
D02*
G37*
G36*
X228750Y340160D02*
X228333D01*
X225113Y339297D01*
X222227Y337631D01*
X219869Y335273D01*
X218203Y332387D01*
X217530Y329876D01*
X216260Y330043D01*
Y339160D01*
X192940D01*
Y315840D01*
X216260D01*
Y324957D01*
X217530Y325124D01*
X218203Y322613D01*
X219869Y319727D01*
X222227Y317369D01*
X225113Y315703D01*
X228333Y314840D01*
X228750D01*
Y327500D01*
Y340160D01*
D02*
G37*
G36*
X746646Y337500D02*
X746250D01*
Y326250D01*
X757500D01*
Y326646D01*
X756648Y329825D01*
X755003Y332675D01*
X752675Y335003D01*
X749825Y336648D01*
X746646Y337500D01*
D02*
G37*
G36*
X743750D02*
X743354D01*
X740175Y336648D01*
X737325Y335003D01*
X734997Y332675D01*
X733352Y329825D01*
X732500Y326646D01*
Y326250D01*
X743750D01*
Y337500D01*
D02*
G37*
G36*
X231667Y340160D02*
X231250D01*
Y327500D01*
Y314840D01*
X231667D01*
X234887Y315703D01*
X237773Y317369D01*
X240131Y319727D01*
X241797Y322613D01*
X242560Y325461D01*
X243875D01*
X244535Y322999D01*
X246070Y320341D01*
X248241Y318170D01*
X250899Y316635D01*
X253865Y315840D01*
X256935D01*
X259901Y316635D01*
X262559Y318170D01*
X264730Y320341D01*
X266265Y322999D01*
X267060Y325965D01*
Y329035D01*
X266265Y332001D01*
X264730Y334659D01*
X262559Y336830D01*
X259901Y338365D01*
X256935Y339160D01*
X253865D01*
X250899Y338365D01*
X248241Y336830D01*
X246070Y334659D01*
X244535Y332001D01*
X243875Y329539D01*
X242560D01*
X241797Y332387D01*
X240131Y335273D01*
X237773Y337631D01*
X234887Y339297D01*
X231667Y340160D01*
D02*
G37*
G36*
X757500Y323750D02*
X746250D01*
Y312500D01*
X746646D01*
X749825Y313352D01*
X752675Y314998D01*
X755003Y317325D01*
X756648Y320175D01*
X757500Y323354D01*
Y323750D01*
D02*
G37*
G36*
X743750D02*
X732500D01*
Y323354D01*
X733352Y320175D01*
X734997Y317325D01*
X737325Y314998D01*
X740175Y313352D01*
X743354Y312500D01*
X743750D01*
Y323750D01*
D02*
G37*
G36*
X821514Y311500D02*
X818486D01*
X815561Y310716D01*
X812939Y309202D01*
X810798Y307061D01*
X809284Y304439D01*
X808500Y301514D01*
Y298486D01*
X809284Y295561D01*
X810798Y292939D01*
X812939Y290798D01*
X815561Y289284D01*
X818486Y288500D01*
X821514D01*
X824439Y289284D01*
X827061Y290798D01*
X829202Y292939D01*
X830716Y295561D01*
X831500Y298486D01*
Y301514D01*
X830716Y304439D01*
X829202Y307061D01*
X827061Y309202D01*
X824439Y310716D01*
X821514Y311500D01*
D02*
G37*
G36*
X138250Y249943D02*
Y226250D01*
X149608D01*
Y237500D01*
X149178Y240763D01*
X147919Y243804D01*
X145915Y246415D01*
X143304Y248419D01*
X140263Y249678D01*
X138250Y249943D01*
D02*
G37*
G36*
X135750D02*
X133737Y249678D01*
X130696Y248419D01*
X128085Y246415D01*
X126081Y243804D01*
X124822Y240763D01*
X124392Y237500D01*
Y226250D01*
X135750D01*
Y249943D01*
D02*
G37*
G36*
X593694Y303500D02*
X591306D01*
X589101Y302586D01*
X587413Y300899D01*
X587021Y299952D01*
X573535Y286465D01*
X572319Y284646D01*
X571892Y282500D01*
Y219641D01*
X571500Y218694D01*
Y216306D01*
X572413Y214101D01*
X574101Y212413D01*
X576306Y211500D01*
X578694D01*
X580899Y212413D01*
X582587Y214101D01*
X583500Y216306D01*
Y218694D01*
X583108Y219641D01*
Y280177D01*
X594952Y292021D01*
X595899Y292413D01*
X597587Y294101D01*
X598500Y296306D01*
Y298694D01*
X597587Y300899D01*
X595899Y302586D01*
X593694Y303500D01*
D02*
G37*
G36*
X75000Y246599D02*
X71998Y246204D01*
X69200Y245045D01*
X66798Y243202D01*
X64955Y240800D01*
X63796Y238002D01*
X63401Y235000D01*
Y215000D01*
X63796Y211998D01*
X64955Y209200D01*
X66798Y206798D01*
X69200Y204955D01*
X71998Y203796D01*
X75000Y203401D01*
X78002Y203796D01*
X80800Y204955D01*
X83202Y206798D01*
X85045Y209200D01*
X86204Y211998D01*
X86599Y215000D01*
Y235000D01*
X86204Y238002D01*
X85045Y240800D01*
X83202Y243202D01*
X80800Y245045D01*
X78002Y246204D01*
X75000Y246599D01*
D02*
G37*
G36*
X708693Y201500D02*
X706307D01*
X705359Y201108D01*
X669640D01*
X668693Y201500D01*
X666307D01*
X664101Y200587D01*
X662413Y198899D01*
X661500Y196693D01*
Y194307D01*
X662413Y192101D01*
X664101Y190413D01*
X666307Y189500D01*
X668693D01*
X669640Y189892D01*
X705359D01*
X706307Y189500D01*
X708693D01*
X710899Y190413D01*
X712587Y192101D01*
X713500Y194307D01*
Y196693D01*
X712587Y198899D01*
X710899Y200587D01*
X708693Y201500D01*
D02*
G37*
G36*
X149608Y223750D02*
X138250D01*
Y200057D01*
X140263Y200322D01*
X143304Y201581D01*
X145915Y203585D01*
X147919Y206196D01*
X149178Y209237D01*
X149608Y212500D01*
Y223750D01*
D02*
G37*
G36*
X135750D02*
X124392D01*
Y212500D01*
X124822Y209237D01*
X126081Y206196D01*
X128085Y203585D01*
X130696Y201581D01*
X133737Y200322D01*
X135750Y200057D01*
Y223750D01*
D02*
G37*
G36*
X115000Y186599D02*
X95000D01*
X91998Y186204D01*
X89200Y185045D01*
X86798Y183202D01*
X84955Y180800D01*
X83796Y178002D01*
X83401Y175000D01*
X83796Y171998D01*
X84955Y169200D01*
X86798Y166798D01*
X89200Y164955D01*
X91998Y163796D01*
X95000Y163401D01*
X115000D01*
X118002Y163796D01*
X120800Y164955D01*
X123202Y166798D01*
X125045Y169200D01*
X126204Y171998D01*
X126599Y175000D01*
X126204Y178002D01*
X125045Y180800D01*
X123202Y183202D01*
X120800Y185045D01*
X118002Y186204D01*
X115000Y186599D01*
D02*
G37*
G36*
X962216Y62500D02*
X961250D01*
Y41250D01*
X982500D01*
Y42216D01*
X981635Y46563D01*
X979939Y50658D01*
X977477Y54343D01*
X974343Y57477D01*
X970658Y59939D01*
X966563Y61635D01*
X962216Y62500D01*
D02*
G37*
G36*
X958750D02*
X957784D01*
X953437Y61635D01*
X949342Y59939D01*
X945657Y57477D01*
X942523Y54343D01*
X940061Y50658D01*
X938365Y46563D01*
X937500Y42216D01*
Y41250D01*
X958750D01*
Y62500D01*
D02*
G37*
G36*
X42216D02*
X41250D01*
Y41250D01*
X62500D01*
Y42216D01*
X61635Y46563D01*
X59939Y50658D01*
X57477Y54343D01*
X54343Y57477D01*
X50658Y59939D01*
X46563Y61635D01*
X42216Y62500D01*
D02*
G37*
G36*
X38750D02*
X37784D01*
X33437Y61635D01*
X29342Y59939D01*
X25657Y57477D01*
X22523Y54343D01*
X20061Y50658D01*
X18365Y46563D01*
X17500Y42216D01*
Y41250D01*
X38750D01*
Y62500D01*
D02*
G37*
G36*
X982500Y38750D02*
X961250D01*
Y17500D01*
X962216D01*
X966563Y18365D01*
X970658Y20061D01*
X974343Y22523D01*
X977477Y25657D01*
X979939Y29342D01*
X981635Y33437D01*
X982500Y37784D01*
Y38750D01*
D02*
G37*
G36*
X958750D02*
X937500D01*
Y37784D01*
X938365Y33437D01*
X940061Y29342D01*
X942523Y25657D01*
X945657Y22523D01*
X949342Y20061D01*
X953437Y18365D01*
X957784Y17500D01*
X958750D01*
Y38750D01*
D02*
G37*
G36*
X62500D02*
X41250D01*
Y17500D01*
X42216D01*
X46563Y18365D01*
X50658Y20061D01*
X54343Y22523D01*
X57477Y25657D01*
X59939Y29342D01*
X61635Y33437D01*
X62500Y37784D01*
Y38750D01*
D02*
G37*
G36*
X38750D02*
X17500D01*
Y37784D01*
X18365Y33437D01*
X20061Y29342D01*
X22523Y25657D01*
X25657Y22523D01*
X29342Y20061D01*
X33437Y18365D01*
X37784Y17500D01*
X38750D01*
Y38750D01*
D02*
G37*
%LPD*%
D16*
X668180Y422500D02*
D03*
X581820D02*
D03*
X918180Y27500D02*
D03*
X831820D02*
D03*
X668180D02*
D03*
X581820D02*
D03*
X418180D02*
D03*
X331820D02*
D03*
X168180D02*
D03*
X81820D02*
D03*
D24*
X745000Y325000D02*
D03*
X820000Y300000D02*
D03*
D25*
Y350000D02*
D03*
D26*
X960000Y410000D02*
D03*
Y40000D02*
D03*
X40000Y410000D02*
D03*
Y40000D02*
D03*
D27*
X230000Y327500D02*
D03*
X255400D02*
D03*
D28*
X137000Y225000D02*
D03*
D29*
X204600Y327500D02*
D03*
D30*
X75000Y225000D02*
D03*
D31*
X105000Y175000D02*
D03*
D32*
X330000Y362500D02*
D03*
X850000Y400000D02*
D03*
X900000D02*
D03*
X800000D02*
D03*
X750000Y350000D02*
D03*
X900000D02*
D03*
X950000D02*
D03*
X800000D02*
D03*
X850000D02*
D03*
X700000Y400000D02*
D03*
X750000D02*
D03*
X700000Y350000D02*
D03*
Y300000D02*
D03*
X900000D02*
D03*
X950000D02*
D03*
X850000D02*
D03*
Y250000D02*
D03*
X900000D02*
D03*
X950000D02*
D03*
X794000Y248000D02*
D03*
X750000Y300000D02*
D03*
X778000Y216000D02*
D03*
X640000Y370000D02*
D03*
Y390000D02*
D03*
Y350000D02*
D03*
X610000Y370000D02*
D03*
Y350000D02*
D03*
X640000Y330000D02*
D03*
Y310000D02*
D03*
X610000Y330000D02*
D03*
Y310000D02*
D03*
X500000Y400000D02*
D03*
X550000D02*
D03*
X610000Y390000D02*
D03*
X550000Y350000D02*
D03*
X450000D02*
D03*
X500000D02*
D03*
X640000Y290000D02*
D03*
X610000D02*
D03*
X592500Y280000D02*
D03*
X664229Y247500D02*
D03*
X650000Y215500D02*
D03*
X500000Y300000D02*
D03*
X540000Y247500D02*
D03*
X950000Y200000D02*
D03*
X900000D02*
D03*
Y150000D02*
D03*
X850000Y200000D02*
D03*
X855000Y150000D02*
D03*
X950000D02*
D03*
X885000Y120000D02*
D03*
X870000Y135000D02*
D03*
X845000Y115000D02*
D03*
X840000Y165000D02*
D03*
X815000Y145000D02*
D03*
X830000Y130000D02*
D03*
X750000Y150000D02*
D03*
Y100000D02*
D03*
X950000D02*
D03*
X890000Y80000D02*
D03*
Y100000D02*
D03*
X860000Y60000D02*
D03*
X890000D02*
D03*
X860000Y100000D02*
D03*
Y80000D02*
D03*
X800000Y100000D02*
D03*
X750000Y50000D02*
D03*
X800000D02*
D03*
X655000Y165000D02*
D03*
X640000Y150000D02*
D03*
X550000D02*
D03*
X665000Y135000D02*
D03*
X650000Y120000D02*
D03*
X625000Y135000D02*
D03*
X610000Y120000D02*
D03*
X520000Y197500D02*
D03*
X450000Y200000D02*
D03*
X500000Y100000D02*
D03*
Y150000D02*
D03*
X450000Y100000D02*
D03*
X700000D02*
D03*
X640000Y80000D02*
D03*
Y100000D02*
D03*
X610000Y60000D02*
D03*
X700000Y50000D02*
D03*
X640000Y60000D02*
D03*
X610000Y100000D02*
D03*
Y80000D02*
D03*
X550000Y100000D02*
D03*
X500000Y50000D02*
D03*
X550000D02*
D03*
X450000Y400000D02*
D03*
X400000D02*
D03*
Y350000D02*
D03*
X350000Y400000D02*
D03*
Y350000D02*
D03*
X400000Y300000D02*
D03*
X450000D02*
D03*
X350000D02*
D03*
X302500Y362500D02*
D03*
X300000Y300000D02*
D03*
X415000Y285000D02*
D03*
X375000D02*
D03*
X395000D02*
D03*
X405000Y215000D02*
D03*
X385000Y250000D02*
D03*
X375000Y235000D02*
D03*
X335000Y285000D02*
D03*
X355000D02*
D03*
X315000D02*
D03*
X325000Y250000D02*
D03*
X365000D02*
D03*
X360000Y220000D02*
D03*
X345000Y250000D02*
D03*
X305000Y245000D02*
D03*
X300000Y400000D02*
D03*
X150000D02*
D03*
X160000Y350000D02*
D03*
X200000Y300000D02*
D03*
X100000Y400000D02*
D03*
X137500Y362500D02*
D03*
X50000Y350000D02*
D03*
X100000Y300000D02*
D03*
Y350000D02*
D03*
X50000Y300000D02*
D03*
X295000Y280000D02*
D03*
X280000Y265000D02*
D03*
X250000Y250000D02*
D03*
X265000D02*
D03*
X290000Y230000D02*
D03*
X275000Y215000D02*
D03*
X250000Y235000D02*
D03*
X260000Y200000D02*
D03*
X150000Y250000D02*
D03*
X200000D02*
D03*
X50000D02*
D03*
X100000D02*
D03*
X235000Y220000D02*
D03*
X220000Y205000D02*
D03*
X50000Y200000D02*
D03*
X390000Y160000D02*
D03*
Y180000D02*
D03*
X450000Y150000D02*
D03*
X390000Y200000D02*
D03*
X360000Y140000D02*
D03*
X390000D02*
D03*
Y120000D02*
D03*
X360000D02*
D03*
Y100000D02*
D03*
Y180000D02*
D03*
Y160000D02*
D03*
X300000Y200000D02*
D03*
X360000D02*
D03*
X300000Y150000D02*
D03*
Y100000D02*
D03*
X250000Y150000D02*
D03*
Y100000D02*
D03*
X390000D02*
D03*
Y80000D02*
D03*
X360000D02*
D03*
Y60000D02*
D03*
X450000Y50000D02*
D03*
X390000Y60000D02*
D03*
X250000Y50000D02*
D03*
X300000D02*
D03*
X245000Y185000D02*
D03*
X230000Y170000D02*
D03*
X205000Y190000D02*
D03*
X190000Y175000D02*
D03*
X215000Y155000D02*
D03*
X200000Y140000D02*
D03*
X175000Y160000D02*
D03*
X185000Y125000D02*
D03*
X150000Y200000D02*
D03*
X100000Y150000D02*
D03*
Y200000D02*
D03*
X50000Y150000D02*
D03*
X160000Y145000D02*
D03*
X170000Y110000D02*
D03*
X145000Y130000D02*
D03*
X130000Y115000D02*
D03*
X200000Y100000D02*
D03*
X155000Y95000D02*
D03*
X115000Y100000D02*
D03*
X140000Y80000D02*
D03*
X200000Y50000D02*
D03*
X140000Y60000D02*
D03*
X110000Y80000D02*
D03*
Y60000D02*
D03*
X50000Y100000D02*
D03*
X100000D02*
D03*
X577500Y217500D02*
D03*
X592500Y297500D02*
D03*
X667500Y195500D02*
D03*
X707500D02*
D03*
D33*
X577500Y217500D02*
Y282500D01*
X592500Y297500D01*
X667500Y195500D02*
X707500D01*
M02*
