G04*
G04 #@! TF.GenerationSoftware,Altium Limited,Altium Designer,26.1.1 (7)*
G04*
G04 Layer_Color=2752767*
%FSLAX44Y44*%
%MOMM*%
G71*
G04*
G04 #@! TF.SameCoordinates,A118C6E1-3479-42CE-8D72-1BDF69DDE12E*
G04*
G04*
G04 #@! TF.FilePolarity,Positive*
G04*
G01*
G75*
%ADD42C,0.1270*%
%ADD43C,0.1693*%
D42*
X745000Y319920D02*
X739920Y330080D01*
X750080D01*
X745000Y319920D01*
X820000Y294920D02*
X814920Y305080D01*
X825080D01*
X820000Y294920D01*
Y344920D02*
X814920Y355080D01*
X825080D01*
X820000Y344920D01*
X954920Y404920D02*
Y415080D01*
X965080D01*
Y404920D01*
X954920D01*
Y34920D02*
Y45080D01*
X965080D01*
Y34920D01*
X954920D01*
X34920Y404920D02*
Y415080D01*
X45080D01*
Y404920D01*
X34920D01*
X131920Y219920D02*
X134460Y225000D01*
X131920Y230080D01*
X137000Y227540D01*
X142080Y230080D01*
X139540Y225000D01*
X142080Y219920D01*
X137000Y222460D01*
X131920Y219920D01*
X34920Y34920D02*
Y45080D01*
X45080D01*
Y34920D01*
X34920D01*
X75000Y219920D02*
X77540Y222460D01*
X80080D01*
X77540Y225000D01*
X80080Y227540D01*
X77540D01*
X75000Y230080D01*
X72460Y227540D01*
X69920D01*
X72460Y225000D01*
X69920Y222460D01*
X72460D01*
X75000Y219920D01*
X105000Y169920D02*
X107540Y172460D01*
X110080D01*
X107540Y175000D01*
X110080Y177540D01*
X107540D01*
X105000Y180080D01*
X102460Y177540D01*
X99920D01*
X102460Y175000D01*
X99920Y172460D01*
X102460D01*
X105000Y169920D01*
X327460Y359960D02*
Y357420D01*
X332540D01*
Y359960D01*
X335080D01*
Y365040D01*
X332540D01*
Y367580D01*
X327460D01*
Y365040D01*
X324920D01*
Y359960D01*
X327460D01*
X847460Y397460D02*
Y394920D01*
X852540D01*
Y397460D01*
X855080D01*
Y402540D01*
X852540D01*
Y405080D01*
X847460D01*
Y402540D01*
X844920D01*
Y397460D01*
X847460D01*
X897460D02*
Y394920D01*
X902540D01*
Y397460D01*
X905080D01*
Y402540D01*
X902540D01*
Y405080D01*
X897460D01*
Y402540D01*
X894920D01*
Y397460D01*
X897460D01*
X797460D02*
Y394920D01*
X802540D01*
Y397460D01*
X805080D01*
Y402540D01*
X802540D01*
Y405080D01*
X797460D01*
Y402540D01*
X794920D01*
Y397460D01*
X797460D01*
X747460Y347460D02*
Y344920D01*
X752540D01*
Y347460D01*
X755080D01*
Y352540D01*
X752540D01*
Y355080D01*
X747460D01*
Y352540D01*
X744920D01*
Y347460D01*
X747460D01*
X897460D02*
Y344920D01*
X902540D01*
Y347460D01*
X905080D01*
Y352540D01*
X902540D01*
Y355080D01*
X897460D01*
Y352540D01*
X894920D01*
Y347460D01*
X897460D01*
X947460D02*
Y344920D01*
X952540D01*
Y347460D01*
X955080D01*
Y352540D01*
X952540D01*
Y355080D01*
X947460D01*
Y352540D01*
X944920D01*
Y347460D01*
X947460D01*
X797460D02*
Y344920D01*
X802540D01*
Y347460D01*
X805080D01*
Y352540D01*
X802540D01*
Y355080D01*
X797460D01*
Y352540D01*
X794920D01*
Y347460D01*
X797460D01*
X847460D02*
Y344920D01*
X852540D01*
Y347460D01*
X855080D01*
Y352540D01*
X852540D01*
Y355080D01*
X847460D01*
Y352540D01*
X844920D01*
Y347460D01*
X847460D01*
X697460Y397460D02*
Y394920D01*
X702540D01*
Y397460D01*
X705080D01*
Y402540D01*
X702540D01*
Y405080D01*
X697460D01*
Y402540D01*
X694920D01*
Y397460D01*
X697460D01*
X747460D02*
Y394920D01*
X752540D01*
Y397460D01*
X755080D01*
Y402540D01*
X752540D01*
Y405080D01*
X747460D01*
Y402540D01*
X744920D01*
Y397460D01*
X747460D01*
X697460Y347460D02*
Y344920D01*
X702540D01*
Y347460D01*
X705080D01*
Y352540D01*
X702540D01*
Y355080D01*
X697460D01*
Y352540D01*
X694920D01*
Y347460D01*
X697460D01*
Y297460D02*
Y294920D01*
X702540D01*
Y297460D01*
X705080D01*
Y302540D01*
X702540D01*
Y305080D01*
X697460D01*
Y302540D01*
X694920D01*
Y297460D01*
X697460D01*
X897460D02*
Y294920D01*
X902540D01*
Y297460D01*
X905080D01*
Y302540D01*
X902540D01*
Y305080D01*
X897460D01*
Y302540D01*
X894920D01*
Y297460D01*
X897460D01*
X947460D02*
Y294920D01*
X952540D01*
Y297460D01*
X955080D01*
Y302540D01*
X952540D01*
Y305080D01*
X947460D01*
Y302540D01*
X944920D01*
Y297460D01*
X947460D01*
X847460D02*
Y294920D01*
X852540D01*
Y297460D01*
X855080D01*
Y302540D01*
X852540D01*
Y305080D01*
X847460D01*
Y302540D01*
X844920D01*
Y297460D01*
X847460D01*
Y247460D02*
Y244920D01*
X852540D01*
Y247460D01*
X855080D01*
Y252540D01*
X852540D01*
Y255080D01*
X847460D01*
Y252540D01*
X844920D01*
Y247460D01*
X847460D01*
X897460D02*
Y244920D01*
X902540D01*
Y247460D01*
X905080D01*
Y252540D01*
X902540D01*
Y255080D01*
X897460D01*
Y252540D01*
X894920D01*
Y247460D01*
X897460D01*
X947460D02*
Y244920D01*
X952540D01*
Y247460D01*
X955080D01*
Y252540D01*
X952540D01*
Y255080D01*
X947460D01*
Y252540D01*
X944920D01*
Y247460D01*
X947460D01*
X791460Y245460D02*
Y242920D01*
X796540D01*
Y245460D01*
X799080D01*
Y250540D01*
X796540D01*
Y253080D01*
X791460D01*
Y250540D01*
X788920D01*
Y245460D01*
X791460D01*
X747460Y297460D02*
Y294920D01*
X752540D01*
Y297460D01*
X755080D01*
Y302540D01*
X752540D01*
Y305080D01*
X747460D01*
Y302540D01*
X744920D01*
Y297460D01*
X747460D01*
X775460Y213460D02*
Y210920D01*
X780540D01*
Y213460D01*
X783080D01*
Y218540D01*
X780540D01*
Y221080D01*
X775460D01*
Y218540D01*
X772920D01*
Y213460D01*
X775460D01*
X637460Y367460D02*
Y364920D01*
X642540D01*
Y367460D01*
X645080D01*
Y372540D01*
X642540D01*
Y375080D01*
X637460D01*
Y372540D01*
X634920D01*
Y367460D01*
X637460D01*
Y387460D02*
Y384920D01*
X642540D01*
Y387460D01*
X645080D01*
Y392540D01*
X642540D01*
Y395080D01*
X637460D01*
Y392540D01*
X634920D01*
Y387460D01*
X637460D01*
Y347460D02*
Y344920D01*
X642540D01*
Y347460D01*
X645080D01*
Y352540D01*
X642540D01*
Y355080D01*
X637460D01*
Y352540D01*
X634920D01*
Y347460D01*
X637460D01*
X607460Y367460D02*
Y364920D01*
X612540D01*
Y367460D01*
X615080D01*
Y372540D01*
X612540D01*
Y375080D01*
X607460D01*
Y372540D01*
X604920D01*
Y367460D01*
X607460D01*
Y347460D02*
Y344920D01*
X612540D01*
Y347460D01*
X615080D01*
Y352540D01*
X612540D01*
Y355080D01*
X607460D01*
Y352540D01*
X604920D01*
Y347460D01*
X607460D01*
X637460Y327460D02*
Y324920D01*
X642540D01*
Y327460D01*
X645080D01*
Y332540D01*
X642540D01*
Y335080D01*
X637460D01*
Y332540D01*
X634920D01*
Y327460D01*
X637460D01*
Y307460D02*
Y304920D01*
X642540D01*
Y307460D01*
X645080D01*
Y312540D01*
X642540D01*
Y315080D01*
X637460D01*
Y312540D01*
X634920D01*
Y307460D01*
X637460D01*
X607460Y327460D02*
Y324920D01*
X612540D01*
Y327460D01*
X615080D01*
Y332540D01*
X612540D01*
Y335080D01*
X607460D01*
Y332540D01*
X604920D01*
Y327460D01*
X607460D01*
Y307460D02*
Y304920D01*
X612540D01*
Y307460D01*
X615080D01*
Y312540D01*
X612540D01*
Y315080D01*
X607460D01*
Y312540D01*
X604920D01*
Y307460D01*
X607460D01*
X497460Y397460D02*
Y394920D01*
X502540D01*
Y397460D01*
X505080D01*
Y402540D01*
X502540D01*
Y405080D01*
X497460D01*
Y402540D01*
X494920D01*
Y397460D01*
X497460D01*
X547460D02*
Y394920D01*
X552540D01*
Y397460D01*
X555080D01*
Y402540D01*
X552540D01*
Y405080D01*
X547460D01*
Y402540D01*
X544920D01*
Y397460D01*
X547460D01*
X607460Y387460D02*
Y384920D01*
X612540D01*
Y387460D01*
X615080D01*
Y392540D01*
X612540D01*
Y395080D01*
X607460D01*
Y392540D01*
X604920D01*
Y387460D01*
X607460D01*
X547460Y347460D02*
Y344920D01*
X552540D01*
Y347460D01*
X555080D01*
Y352540D01*
X552540D01*
Y355080D01*
X547460D01*
Y352540D01*
X544920D01*
Y347460D01*
X547460D01*
X447460D02*
Y344920D01*
X452540D01*
Y347460D01*
X455080D01*
Y352540D01*
X452540D01*
Y355080D01*
X447460D01*
Y352540D01*
X444920D01*
Y347460D01*
X447460D01*
X497460D02*
Y344920D01*
X502540D01*
Y347460D01*
X505080D01*
Y352540D01*
X502540D01*
Y355080D01*
X497460D01*
Y352540D01*
X494920D01*
Y347460D01*
X497460D01*
X637460Y287460D02*
Y284920D01*
X642540D01*
Y287460D01*
X645080D01*
Y292540D01*
X642540D01*
Y295080D01*
X637460D01*
Y292540D01*
X634920D01*
Y287460D01*
X637460D01*
X607460D02*
Y284920D01*
X612540D01*
Y287460D01*
X615080D01*
Y292540D01*
X612540D01*
Y295080D01*
X607460D01*
Y292540D01*
X604920D01*
Y287460D01*
X607460D01*
X589960Y277460D02*
Y274920D01*
X595040D01*
Y277460D01*
X597580D01*
Y282540D01*
X595040D01*
Y285080D01*
X589960D01*
Y282540D01*
X587420D01*
Y277460D01*
X589960D01*
X661689Y244960D02*
Y242420D01*
X666769D01*
Y244960D01*
X669309D01*
Y250040D01*
X666769D01*
Y252580D01*
X661689D01*
Y250040D01*
X659149D01*
Y244960D01*
X661689D01*
X647460Y212960D02*
Y210420D01*
X652540D01*
Y212960D01*
X655080D01*
Y218040D01*
X652540D01*
Y220580D01*
X647460D01*
Y218040D01*
X644920D01*
Y212960D01*
X647460D01*
X497460Y297460D02*
Y294920D01*
X502540D01*
Y297460D01*
X505080D01*
Y302540D01*
X502540D01*
Y305080D01*
X497460D01*
Y302540D01*
X494920D01*
Y297460D01*
X497460D01*
X537460Y244960D02*
Y242420D01*
X542540D01*
Y244960D01*
X545080D01*
Y250040D01*
X542540D01*
Y252580D01*
X537460D01*
Y250040D01*
X534920D01*
Y244960D01*
X537460D01*
X947460Y197460D02*
Y194920D01*
X952540D01*
Y197460D01*
X955080D01*
Y202540D01*
X952540D01*
Y205080D01*
X947460D01*
Y202540D01*
X944920D01*
Y197460D01*
X947460D01*
X897460D02*
Y194920D01*
X902540D01*
Y197460D01*
X905080D01*
Y202540D01*
X902540D01*
Y205080D01*
X897460D01*
Y202540D01*
X894920D01*
Y197460D01*
X897460D01*
Y147460D02*
Y144920D01*
X902540D01*
Y147460D01*
X905080D01*
Y152540D01*
X902540D01*
Y155080D01*
X897460D01*
Y152540D01*
X894920D01*
Y147460D01*
X897460D01*
X847460Y197460D02*
Y194920D01*
X852540D01*
Y197460D01*
X855080D01*
Y202540D01*
X852540D01*
Y205080D01*
X847460D01*
Y202540D01*
X844920D01*
Y197460D01*
X847460D01*
X852460Y147460D02*
Y144920D01*
X857540D01*
Y147460D01*
X860080D01*
Y152540D01*
X857540D01*
Y155080D01*
X852460D01*
Y152540D01*
X849920D01*
Y147460D01*
X852460D01*
X947460D02*
Y144920D01*
X952540D01*
Y147460D01*
X955080D01*
Y152540D01*
X952540D01*
Y155080D01*
X947460D01*
Y152540D01*
X944920D01*
Y147460D01*
X947460D01*
X882460Y117460D02*
Y114920D01*
X887540D01*
Y117460D01*
X890080D01*
Y122540D01*
X887540D01*
Y125080D01*
X882460D01*
Y122540D01*
X879920D01*
Y117460D01*
X882460D01*
X867460Y132460D02*
Y129920D01*
X872540D01*
Y132460D01*
X875080D01*
Y137540D01*
X872540D01*
Y140080D01*
X867460D01*
Y137540D01*
X864920D01*
Y132460D01*
X867460D01*
X842460Y112460D02*
Y109920D01*
X847540D01*
Y112460D01*
X850080D01*
Y117540D01*
X847540D01*
Y120080D01*
X842460D01*
Y117540D01*
X839920D01*
Y112460D01*
X842460D01*
X837460Y162460D02*
Y159920D01*
X842540D01*
Y162460D01*
X845080D01*
Y167540D01*
X842540D01*
Y170080D01*
X837460D01*
Y167540D01*
X834920D01*
Y162460D01*
X837460D01*
X812460Y142460D02*
Y139920D01*
X817540D01*
Y142460D01*
X820080D01*
Y147540D01*
X817540D01*
Y150080D01*
X812460D01*
Y147540D01*
X809920D01*
Y142460D01*
X812460D01*
X827460Y127460D02*
Y124920D01*
X832540D01*
Y127460D01*
X835080D01*
Y132540D01*
X832540D01*
Y135080D01*
X827460D01*
Y132540D01*
X824920D01*
Y127460D01*
X827460D01*
X747460Y147460D02*
Y144920D01*
X752540D01*
Y147460D01*
X755080D01*
Y152540D01*
X752540D01*
Y155080D01*
X747460D01*
Y152540D01*
X744920D01*
Y147460D01*
X747460D01*
Y97460D02*
Y94920D01*
X752540D01*
Y97460D01*
X755080D01*
Y102540D01*
X752540D01*
Y105080D01*
X747460D01*
Y102540D01*
X744920D01*
Y97460D01*
X747460D01*
X947460D02*
Y94920D01*
X952540D01*
Y97460D01*
X955080D01*
Y102540D01*
X952540D01*
Y105080D01*
X947460D01*
Y102540D01*
X944920D01*
Y97460D01*
X947460D01*
X887460Y77460D02*
Y74920D01*
X892540D01*
Y77460D01*
X895080D01*
Y82540D01*
X892540D01*
Y85080D01*
X887460D01*
Y82540D01*
X884920D01*
Y77460D01*
X887460D01*
Y97460D02*
Y94920D01*
X892540D01*
Y97460D01*
X895080D01*
Y102540D01*
X892540D01*
Y105080D01*
X887460D01*
Y102540D01*
X884920D01*
Y97460D01*
X887460D01*
X857460Y57460D02*
Y54920D01*
X862540D01*
Y57460D01*
X865080D01*
Y62540D01*
X862540D01*
Y65080D01*
X857460D01*
Y62540D01*
X854920D01*
Y57460D01*
X857460D01*
X887460D02*
Y54920D01*
X892540D01*
Y57460D01*
X895080D01*
Y62540D01*
X892540D01*
Y65080D01*
X887460D01*
Y62540D01*
X884920D01*
Y57460D01*
X887460D01*
X857460Y97460D02*
Y94920D01*
X862540D01*
Y97460D01*
X865080D01*
Y102540D01*
X862540D01*
Y105080D01*
X857460D01*
Y102540D01*
X854920D01*
Y97460D01*
X857460D01*
Y77460D02*
Y74920D01*
X862540D01*
Y77460D01*
X865080D01*
Y82540D01*
X862540D01*
Y85080D01*
X857460D01*
Y82540D01*
X854920D01*
Y77460D01*
X857460D01*
X797460Y97460D02*
Y94920D01*
X802540D01*
Y97460D01*
X805080D01*
Y102540D01*
X802540D01*
Y105080D01*
X797460D01*
Y102540D01*
X794920D01*
Y97460D01*
X797460D01*
X747460Y47460D02*
Y44920D01*
X752540D01*
Y47460D01*
X755080D01*
Y52540D01*
X752540D01*
Y55080D01*
X747460D01*
Y52540D01*
X744920D01*
Y47460D01*
X747460D01*
X797460D02*
Y44920D01*
X802540D01*
Y47460D01*
X805080D01*
Y52540D01*
X802540D01*
Y55080D01*
X797460D01*
Y52540D01*
X794920D01*
Y47460D01*
X797460D01*
X652460Y162460D02*
Y159920D01*
X657540D01*
Y162460D01*
X660080D01*
Y167540D01*
X657540D01*
Y170080D01*
X652460D01*
Y167540D01*
X649920D01*
Y162460D01*
X652460D01*
X637460Y147460D02*
Y144920D01*
X642540D01*
Y147460D01*
X645080D01*
Y152540D01*
X642540D01*
Y155080D01*
X637460D01*
Y152540D01*
X634920D01*
Y147460D01*
X637460D01*
X547460D02*
Y144920D01*
X552540D01*
Y147460D01*
X555080D01*
Y152540D01*
X552540D01*
Y155080D01*
X547460D01*
Y152540D01*
X544920D01*
Y147460D01*
X547460D01*
X662460Y132460D02*
Y129920D01*
X667540D01*
Y132460D01*
X670080D01*
Y137540D01*
X667540D01*
Y140080D01*
X662460D01*
Y137540D01*
X659920D01*
Y132460D01*
X662460D01*
X647460Y117460D02*
Y114920D01*
X652540D01*
Y117460D01*
X655080D01*
Y122540D01*
X652540D01*
Y125080D01*
X647460D01*
Y122540D01*
X644920D01*
Y117460D01*
X647460D01*
X622460Y132460D02*
Y129920D01*
X627540D01*
Y132460D01*
X630080D01*
Y137540D01*
X627540D01*
Y140080D01*
X622460D01*
Y137540D01*
X619920D01*
Y132460D01*
X622460D01*
X607460Y117460D02*
Y114920D01*
X612540D01*
Y117460D01*
X615080D01*
Y122540D01*
X612540D01*
Y125080D01*
X607460D01*
Y122540D01*
X604920D01*
Y117460D01*
X607460D01*
X517460Y194960D02*
Y192420D01*
X522540D01*
Y194960D01*
X525080D01*
Y200040D01*
X522540D01*
Y202580D01*
X517460D01*
Y200040D01*
X514920D01*
Y194960D01*
X517460D01*
X447460Y197460D02*
Y194920D01*
X452540D01*
Y197460D01*
X455080D01*
Y202540D01*
X452540D01*
Y205080D01*
X447460D01*
Y202540D01*
X444920D01*
Y197460D01*
X447460D01*
X497460Y97460D02*
Y94920D01*
X502540D01*
Y97460D01*
X505080D01*
Y102540D01*
X502540D01*
Y105080D01*
X497460D01*
Y102540D01*
X494920D01*
Y97460D01*
X497460D01*
Y147460D02*
Y144920D01*
X502540D01*
Y147460D01*
X505080D01*
Y152540D01*
X502540D01*
Y155080D01*
X497460D01*
Y152540D01*
X494920D01*
Y147460D01*
X497460D01*
X447460Y97460D02*
Y94920D01*
X452540D01*
Y97460D01*
X455080D01*
Y102540D01*
X452540D01*
Y105080D01*
X447460D01*
Y102540D01*
X444920D01*
Y97460D01*
X447460D01*
X697460D02*
Y94920D01*
X702540D01*
Y97460D01*
X705080D01*
Y102540D01*
X702540D01*
Y105080D01*
X697460D01*
Y102540D01*
X694920D01*
Y97460D01*
X697460D01*
X637460Y77460D02*
Y74920D01*
X642540D01*
Y77460D01*
X645080D01*
Y82540D01*
X642540D01*
Y85080D01*
X637460D01*
Y82540D01*
X634920D01*
Y77460D01*
X637460D01*
Y97460D02*
Y94920D01*
X642540D01*
Y97460D01*
X645080D01*
Y102540D01*
X642540D01*
Y105080D01*
X637460D01*
Y102540D01*
X634920D01*
Y97460D01*
X637460D01*
X607460Y57460D02*
Y54920D01*
X612540D01*
Y57460D01*
X615080D01*
Y62540D01*
X612540D01*
Y65080D01*
X607460D01*
Y62540D01*
X604920D01*
Y57460D01*
X607460D01*
X697460Y47460D02*
Y44920D01*
X702540D01*
Y47460D01*
X705080D01*
Y52540D01*
X702540D01*
Y55080D01*
X697460D01*
Y52540D01*
X694920D01*
Y47460D01*
X697460D01*
X637460Y57460D02*
Y54920D01*
X642540D01*
Y57460D01*
X645080D01*
Y62540D01*
X642540D01*
Y65080D01*
X637460D01*
Y62540D01*
X634920D01*
Y57460D01*
X637460D01*
X607460Y97460D02*
Y94920D01*
X612540D01*
Y97460D01*
X615080D01*
Y102540D01*
X612540D01*
Y105080D01*
X607460D01*
Y102540D01*
X604920D01*
Y97460D01*
X607460D01*
Y77460D02*
Y74920D01*
X612540D01*
Y77460D01*
X615080D01*
Y82540D01*
X612540D01*
Y85080D01*
X607460D01*
Y82540D01*
X604920D01*
Y77460D01*
X607460D01*
X547460Y97460D02*
Y94920D01*
X552540D01*
Y97460D01*
X555080D01*
Y102540D01*
X552540D01*
Y105080D01*
X547460D01*
Y102540D01*
X544920D01*
Y97460D01*
X547460D01*
X497460Y47460D02*
Y44920D01*
X502540D01*
Y47460D01*
X505080D01*
Y52540D01*
X502540D01*
Y55080D01*
X497460D01*
Y52540D01*
X494920D01*
Y47460D01*
X497460D01*
X547460D02*
Y44920D01*
X552540D01*
Y47460D01*
X555080D01*
Y52540D01*
X552540D01*
Y55080D01*
X547460D01*
Y52540D01*
X544920D01*
Y47460D01*
X547460D01*
X447460Y397460D02*
Y394920D01*
X452540D01*
Y397460D01*
X455080D01*
Y402540D01*
X452540D01*
Y405080D01*
X447460D01*
Y402540D01*
X444920D01*
Y397460D01*
X447460D01*
X397460D02*
Y394920D01*
X402540D01*
Y397460D01*
X405080D01*
Y402540D01*
X402540D01*
Y405080D01*
X397460D01*
Y402540D01*
X394920D01*
Y397460D01*
X397460D01*
Y347460D02*
Y344920D01*
X402540D01*
Y347460D01*
X405080D01*
Y352540D01*
X402540D01*
Y355080D01*
X397460D01*
Y352540D01*
X394920D01*
Y347460D01*
X397460D01*
X347460Y397460D02*
Y394920D01*
X352540D01*
Y397460D01*
X355080D01*
Y402540D01*
X352540D01*
Y405080D01*
X347460D01*
Y402540D01*
X344920D01*
Y397460D01*
X347460D01*
Y347460D02*
Y344920D01*
X352540D01*
Y347460D01*
X355080D01*
Y352540D01*
X352540D01*
Y355080D01*
X347460D01*
Y352540D01*
X344920D01*
Y347460D01*
X347460D01*
X397460Y297460D02*
Y294920D01*
X402540D01*
Y297460D01*
X405080D01*
Y302540D01*
X402540D01*
Y305080D01*
X397460D01*
Y302540D01*
X394920D01*
Y297460D01*
X397460D01*
X447460D02*
Y294920D01*
X452540D01*
Y297460D01*
X455080D01*
Y302540D01*
X452540D01*
Y305080D01*
X447460D01*
Y302540D01*
X444920D01*
Y297460D01*
X447460D01*
X347460D02*
Y294920D01*
X352540D01*
Y297460D01*
X355080D01*
Y302540D01*
X352540D01*
Y305080D01*
X347460D01*
Y302540D01*
X344920D01*
Y297460D01*
X347460D01*
X299960Y359960D02*
Y357420D01*
X305040D01*
Y359960D01*
X307580D01*
Y365040D01*
X305040D01*
Y367580D01*
X299960D01*
Y365040D01*
X297420D01*
Y359960D01*
X299960D01*
X297460Y297460D02*
Y294920D01*
X302540D01*
Y297460D01*
X305080D01*
Y302540D01*
X302540D01*
Y305080D01*
X297460D01*
Y302540D01*
X294920D01*
Y297460D01*
X297460D01*
X412460Y282460D02*
Y279920D01*
X417540D01*
Y282460D01*
X420080D01*
Y287540D01*
X417540D01*
Y290080D01*
X412460D01*
Y287540D01*
X409920D01*
Y282460D01*
X412460D01*
X372460D02*
Y279920D01*
X377540D01*
Y282460D01*
X380080D01*
Y287540D01*
X377540D01*
Y290080D01*
X372460D01*
Y287540D01*
X369920D01*
Y282460D01*
X372460D01*
X392460D02*
Y279920D01*
X397540D01*
Y282460D01*
X400080D01*
Y287540D01*
X397540D01*
Y290080D01*
X392460D01*
Y287540D01*
X389920D01*
Y282460D01*
X392460D01*
X402460Y212460D02*
Y209920D01*
X407540D01*
Y212460D01*
X410080D01*
Y217540D01*
X407540D01*
Y220080D01*
X402460D01*
Y217540D01*
X399920D01*
Y212460D01*
X402460D01*
X382460Y247460D02*
Y244920D01*
X387540D01*
Y247460D01*
X390080D01*
Y252540D01*
X387540D01*
Y255080D01*
X382460D01*
Y252540D01*
X379920D01*
Y247460D01*
X382460D01*
X372460Y232460D02*
Y229920D01*
X377540D01*
Y232460D01*
X380080D01*
Y237540D01*
X377540D01*
Y240080D01*
X372460D01*
Y237540D01*
X369920D01*
Y232460D01*
X372460D01*
X332460Y282460D02*
Y279920D01*
X337540D01*
Y282460D01*
X340080D01*
Y287540D01*
X337540D01*
Y290080D01*
X332460D01*
Y287540D01*
X329920D01*
Y282460D01*
X332460D01*
X352460D02*
Y279920D01*
X357540D01*
Y282460D01*
X360080D01*
Y287540D01*
X357540D01*
Y290080D01*
X352460D01*
Y287540D01*
X349920D01*
Y282460D01*
X352460D01*
X312460D02*
Y279920D01*
X317540D01*
Y282460D01*
X320080D01*
Y287540D01*
X317540D01*
Y290080D01*
X312460D01*
Y287540D01*
X309920D01*
Y282460D01*
X312460D01*
X322460Y247460D02*
Y244920D01*
X327540D01*
Y247460D01*
X330080D01*
Y252540D01*
X327540D01*
Y255080D01*
X322460D01*
Y252540D01*
X319920D01*
Y247460D01*
X322460D01*
X362460D02*
Y244920D01*
X367540D01*
Y247460D01*
X370080D01*
Y252540D01*
X367540D01*
Y255080D01*
X362460D01*
Y252540D01*
X359920D01*
Y247460D01*
X362460D01*
X357460Y217460D02*
Y214920D01*
X362540D01*
Y217460D01*
X365080D01*
Y222540D01*
X362540D01*
Y225080D01*
X357460D01*
Y222540D01*
X354920D01*
Y217460D01*
X357460D01*
X342460Y247460D02*
Y244920D01*
X347540D01*
Y247460D01*
X350080D01*
Y252540D01*
X347540D01*
Y255080D01*
X342460D01*
Y252540D01*
X339920D01*
Y247460D01*
X342460D01*
X302460Y242460D02*
Y239920D01*
X307540D01*
Y242460D01*
X310080D01*
Y247540D01*
X307540D01*
Y250080D01*
X302460D01*
Y247540D01*
X299920D01*
Y242460D01*
X302460D01*
X297460Y397460D02*
Y394920D01*
X302540D01*
Y397460D01*
X305080D01*
Y402540D01*
X302540D01*
Y405080D01*
X297460D01*
Y402540D01*
X294920D01*
Y397460D01*
X297460D01*
X147460D02*
Y394920D01*
X152540D01*
Y397460D01*
X155080D01*
Y402540D01*
X152540D01*
Y405080D01*
X147460D01*
Y402540D01*
X144920D01*
Y397460D01*
X147460D01*
X157460Y347460D02*
Y344920D01*
X162540D01*
Y347460D01*
X165080D01*
Y352540D01*
X162540D01*
Y355080D01*
X157460D01*
Y352540D01*
X154920D01*
Y347460D01*
X157460D01*
X197460Y297460D02*
Y294920D01*
X202540D01*
Y297460D01*
X205080D01*
Y302540D01*
X202540D01*
Y305080D01*
X197460D01*
Y302540D01*
X194920D01*
Y297460D01*
X197460D01*
X97460Y397460D02*
Y394920D01*
X102540D01*
Y397460D01*
X105080D01*
Y402540D01*
X102540D01*
Y405080D01*
X97460D01*
Y402540D01*
X94920D01*
Y397460D01*
X97460D01*
X134960Y359960D02*
Y357420D01*
X140040D01*
Y359960D01*
X142580D01*
Y365040D01*
X140040D01*
Y367580D01*
X134960D01*
Y365040D01*
X132420D01*
Y359960D01*
X134960D01*
X47460Y347460D02*
Y344920D01*
X52540D01*
Y347460D01*
X55080D01*
Y352540D01*
X52540D01*
Y355080D01*
X47460D01*
Y352540D01*
X44920D01*
Y347460D01*
X47460D01*
X97460Y297460D02*
Y294920D01*
X102540D01*
Y297460D01*
X105080D01*
Y302540D01*
X102540D01*
Y305080D01*
X97460D01*
Y302540D01*
X94920D01*
Y297460D01*
X97460D01*
Y347460D02*
Y344920D01*
X102540D01*
Y347460D01*
X105080D01*
Y352540D01*
X102540D01*
Y355080D01*
X97460D01*
Y352540D01*
X94920D01*
Y347460D01*
X97460D01*
X47460Y297460D02*
Y294920D01*
X52540D01*
Y297460D01*
X55080D01*
Y302540D01*
X52540D01*
Y305080D01*
X47460D01*
Y302540D01*
X44920D01*
Y297460D01*
X47460D01*
X292460Y277460D02*
Y274920D01*
X297540D01*
Y277460D01*
X300080D01*
Y282540D01*
X297540D01*
Y285080D01*
X292460D01*
Y282540D01*
X289920D01*
Y277460D01*
X292460D01*
X277460Y262460D02*
Y259920D01*
X282540D01*
Y262460D01*
X285080D01*
Y267540D01*
X282540D01*
Y270080D01*
X277460D01*
Y267540D01*
X274920D01*
Y262460D01*
X277460D01*
X247460Y247460D02*
Y244920D01*
X252540D01*
Y247460D01*
X255080D01*
Y252540D01*
X252540D01*
Y255080D01*
X247460D01*
Y252540D01*
X244920D01*
Y247460D01*
X247460D01*
X262460D02*
Y244920D01*
X267540D01*
Y247460D01*
X270080D01*
Y252540D01*
X267540D01*
Y255080D01*
X262460D01*
Y252540D01*
X259920D01*
Y247460D01*
X262460D01*
X287460Y227460D02*
Y224920D01*
X292540D01*
Y227460D01*
X295080D01*
Y232540D01*
X292540D01*
Y235080D01*
X287460D01*
Y232540D01*
X284920D01*
Y227460D01*
X287460D01*
X272460Y212460D02*
Y209920D01*
X277540D01*
Y212460D01*
X280080D01*
Y217540D01*
X277540D01*
Y220080D01*
X272460D01*
Y217540D01*
X269920D01*
Y212460D01*
X272460D01*
X247460Y232460D02*
Y229920D01*
X252540D01*
Y232460D01*
X255080D01*
Y237540D01*
X252540D01*
Y240080D01*
X247460D01*
Y237540D01*
X244920D01*
Y232460D01*
X247460D01*
X257460Y197460D02*
Y194920D01*
X262540D01*
Y197460D01*
X265080D01*
Y202540D01*
X262540D01*
Y205080D01*
X257460D01*
Y202540D01*
X254920D01*
Y197460D01*
X257460D01*
X147460Y247460D02*
Y244920D01*
X152540D01*
Y247460D01*
X155080D01*
Y252540D01*
X152540D01*
Y255080D01*
X147460D01*
Y252540D01*
X144920D01*
Y247460D01*
X147460D01*
X197460D02*
Y244920D01*
X202540D01*
Y247460D01*
X205080D01*
Y252540D01*
X202540D01*
Y255080D01*
X197460D01*
Y252540D01*
X194920D01*
Y247460D01*
X197460D01*
X47460D02*
Y244920D01*
X52540D01*
Y247460D01*
X55080D01*
Y252540D01*
X52540D01*
Y255080D01*
X47460D01*
Y252540D01*
X44920D01*
Y247460D01*
X47460D01*
X97460D02*
Y244920D01*
X102540D01*
Y247460D01*
X105080D01*
Y252540D01*
X102540D01*
Y255080D01*
X97460D01*
Y252540D01*
X94920D01*
Y247460D01*
X97460D01*
X232460Y217460D02*
Y214920D01*
X237540D01*
Y217460D01*
X240080D01*
Y222540D01*
X237540D01*
Y225080D01*
X232460D01*
Y222540D01*
X229920D01*
Y217460D01*
X232460D01*
X217460Y202460D02*
Y199920D01*
X222540D01*
Y202460D01*
X225080D01*
Y207540D01*
X222540D01*
Y210080D01*
X217460D01*
Y207540D01*
X214920D01*
Y202460D01*
X217460D01*
X47460Y197460D02*
Y194920D01*
X52540D01*
Y197460D01*
X55080D01*
Y202540D01*
X52540D01*
Y205080D01*
X47460D01*
Y202540D01*
X44920D01*
Y197460D01*
X47460D01*
X387460Y157460D02*
Y154920D01*
X392540D01*
Y157460D01*
X395080D01*
Y162540D01*
X392540D01*
Y165080D01*
X387460D01*
Y162540D01*
X384920D01*
Y157460D01*
X387460D01*
Y177460D02*
Y174920D01*
X392540D01*
Y177460D01*
X395080D01*
Y182540D01*
X392540D01*
Y185080D01*
X387460D01*
Y182540D01*
X384920D01*
Y177460D01*
X387460D01*
X447460Y147460D02*
Y144920D01*
X452540D01*
Y147460D01*
X455080D01*
Y152540D01*
X452540D01*
Y155080D01*
X447460D01*
Y152540D01*
X444920D01*
Y147460D01*
X447460D01*
X387460Y197460D02*
Y194920D01*
X392540D01*
Y197460D01*
X395080D01*
Y202540D01*
X392540D01*
Y205080D01*
X387460D01*
Y202540D01*
X384920D01*
Y197460D01*
X387460D01*
X357460Y137460D02*
Y134920D01*
X362540D01*
Y137460D01*
X365080D01*
Y142540D01*
X362540D01*
Y145080D01*
X357460D01*
Y142540D01*
X354920D01*
Y137460D01*
X357460D01*
X387460D02*
Y134920D01*
X392540D01*
Y137460D01*
X395080D01*
Y142540D01*
X392540D01*
Y145080D01*
X387460D01*
Y142540D01*
X384920D01*
Y137460D01*
X387460D01*
Y117460D02*
Y114920D01*
X392540D01*
Y117460D01*
X395080D01*
Y122540D01*
X392540D01*
Y125080D01*
X387460D01*
Y122540D01*
X384920D01*
Y117460D01*
X387460D01*
X357460D02*
Y114920D01*
X362540D01*
Y117460D01*
X365080D01*
Y122540D01*
X362540D01*
Y125080D01*
X357460D01*
Y122540D01*
X354920D01*
Y117460D01*
X357460D01*
Y97460D02*
Y94920D01*
X362540D01*
Y97460D01*
X365080D01*
Y102540D01*
X362540D01*
Y105080D01*
X357460D01*
Y102540D01*
X354920D01*
Y97460D01*
X357460D01*
Y177460D02*
Y174920D01*
X362540D01*
Y177460D01*
X365080D01*
Y182540D01*
X362540D01*
Y185080D01*
X357460D01*
Y182540D01*
X354920D01*
Y177460D01*
X357460D01*
Y157460D02*
Y154920D01*
X362540D01*
Y157460D01*
X365080D01*
Y162540D01*
X362540D01*
Y165080D01*
X357460D01*
Y162540D01*
X354920D01*
Y157460D01*
X357460D01*
X297460Y197460D02*
Y194920D01*
X302540D01*
Y197460D01*
X305080D01*
Y202540D01*
X302540D01*
Y205080D01*
X297460D01*
Y202540D01*
X294920D01*
Y197460D01*
X297460D01*
X357460D02*
Y194920D01*
X362540D01*
Y197460D01*
X365080D01*
Y202540D01*
X362540D01*
Y205080D01*
X357460D01*
Y202540D01*
X354920D01*
Y197460D01*
X357460D01*
X297460Y147460D02*
Y144920D01*
X302540D01*
Y147460D01*
X305080D01*
Y152540D01*
X302540D01*
Y155080D01*
X297460D01*
Y152540D01*
X294920D01*
Y147460D01*
X297460D01*
Y97460D02*
Y94920D01*
X302540D01*
Y97460D01*
X305080D01*
Y102540D01*
X302540D01*
Y105080D01*
X297460D01*
Y102540D01*
X294920D01*
Y97460D01*
X297460D01*
X247460Y147460D02*
Y144920D01*
X252540D01*
Y147460D01*
X255080D01*
Y152540D01*
X252540D01*
Y155080D01*
X247460D01*
Y152540D01*
X244920D01*
Y147460D01*
X247460D01*
Y97460D02*
Y94920D01*
X252540D01*
Y97460D01*
X255080D01*
Y102540D01*
X252540D01*
Y105080D01*
X247460D01*
Y102540D01*
X244920D01*
Y97460D01*
X247460D01*
X387460D02*
Y94920D01*
X392540D01*
Y97460D01*
X395080D01*
Y102540D01*
X392540D01*
Y105080D01*
X387460D01*
Y102540D01*
X384920D01*
Y97460D01*
X387460D01*
Y77460D02*
Y74920D01*
X392540D01*
Y77460D01*
X395080D01*
Y82540D01*
X392540D01*
Y85080D01*
X387460D01*
Y82540D01*
X384920D01*
Y77460D01*
X387460D01*
X357460D02*
Y74920D01*
X362540D01*
Y77460D01*
X365080D01*
Y82540D01*
X362540D01*
Y85080D01*
X357460D01*
Y82540D01*
X354920D01*
Y77460D01*
X357460D01*
Y57460D02*
Y54920D01*
X362540D01*
Y57460D01*
X365080D01*
Y62540D01*
X362540D01*
Y65080D01*
X357460D01*
Y62540D01*
X354920D01*
Y57460D01*
X357460D01*
X447460Y47460D02*
Y44920D01*
X452540D01*
Y47460D01*
X455080D01*
Y52540D01*
X452540D01*
Y55080D01*
X447460D01*
Y52540D01*
X444920D01*
Y47460D01*
X447460D01*
X387460Y57460D02*
Y54920D01*
X392540D01*
Y57460D01*
X395080D01*
Y62540D01*
X392540D01*
Y65080D01*
X387460D01*
Y62540D01*
X384920D01*
Y57460D01*
X387460D01*
X247460Y47460D02*
Y44920D01*
X252540D01*
Y47460D01*
X255080D01*
Y52540D01*
X252540D01*
Y55080D01*
X247460D01*
Y52540D01*
X244920D01*
Y47460D01*
X247460D01*
X297460D02*
Y44920D01*
X302540D01*
Y47460D01*
X305080D01*
Y52540D01*
X302540D01*
Y55080D01*
X297460D01*
Y52540D01*
X294920D01*
Y47460D01*
X297460D01*
X242460Y182460D02*
Y179920D01*
X247540D01*
Y182460D01*
X250080D01*
Y187540D01*
X247540D01*
Y190080D01*
X242460D01*
Y187540D01*
X239920D01*
Y182460D01*
X242460D01*
X227460Y167460D02*
Y164920D01*
X232540D01*
Y167460D01*
X235080D01*
Y172540D01*
X232540D01*
Y175080D01*
X227460D01*
Y172540D01*
X224920D01*
Y167460D01*
X227460D01*
X202460Y187460D02*
Y184920D01*
X207540D01*
Y187460D01*
X210080D01*
Y192540D01*
X207540D01*
Y195080D01*
X202460D01*
Y192540D01*
X199920D01*
Y187460D01*
X202460D01*
X187460Y172460D02*
Y169920D01*
X192540D01*
Y172460D01*
X195080D01*
Y177540D01*
X192540D01*
Y180080D01*
X187460D01*
Y177540D01*
X184920D01*
Y172460D01*
X187460D01*
X212460Y152460D02*
Y149920D01*
X217540D01*
Y152460D01*
X220080D01*
Y157540D01*
X217540D01*
Y160080D01*
X212460D01*
Y157540D01*
X209920D01*
Y152460D01*
X212460D01*
X197460Y137460D02*
Y134920D01*
X202540D01*
Y137460D01*
X205080D01*
Y142540D01*
X202540D01*
Y145080D01*
X197460D01*
Y142540D01*
X194920D01*
Y137460D01*
X197460D01*
X172460Y157460D02*
Y154920D01*
X177540D01*
Y157460D01*
X180080D01*
Y162540D01*
X177540D01*
Y165080D01*
X172460D01*
Y162540D01*
X169920D01*
Y157460D01*
X172460D01*
X182460Y122460D02*
Y119920D01*
X187540D01*
Y122460D01*
X190080D01*
Y127540D01*
X187540D01*
Y130080D01*
X182460D01*
Y127540D01*
X179920D01*
Y122460D01*
X182460D01*
X147460Y197460D02*
Y194920D01*
X152540D01*
Y197460D01*
X155080D01*
Y202540D01*
X152540D01*
Y205080D01*
X147460D01*
Y202540D01*
X144920D01*
Y197460D01*
X147460D01*
X97460Y147460D02*
Y144920D01*
X102540D01*
Y147460D01*
X105080D01*
Y152540D01*
X102540D01*
Y155080D01*
X97460D01*
Y152540D01*
X94920D01*
Y147460D01*
X97460D01*
Y197460D02*
Y194920D01*
X102540D01*
Y197460D01*
X105080D01*
Y202540D01*
X102540D01*
Y205080D01*
X97460D01*
Y202540D01*
X94920D01*
Y197460D01*
X97460D01*
X47460Y147460D02*
Y144920D01*
X52540D01*
Y147460D01*
X55080D01*
Y152540D01*
X52540D01*
Y155080D01*
X47460D01*
Y152540D01*
X44920D01*
Y147460D01*
X47460D01*
X157460Y142460D02*
Y139920D01*
X162540D01*
Y142460D01*
X165080D01*
Y147540D01*
X162540D01*
Y150080D01*
X157460D01*
Y147540D01*
X154920D01*
Y142460D01*
X157460D01*
X167460Y107460D02*
Y104920D01*
X172540D01*
Y107460D01*
X175080D01*
Y112540D01*
X172540D01*
Y115080D01*
X167460D01*
Y112540D01*
X164920D01*
Y107460D01*
X167460D01*
X142460Y127460D02*
Y124920D01*
X147540D01*
Y127460D01*
X150080D01*
Y132540D01*
X147540D01*
Y135080D01*
X142460D01*
Y132540D01*
X139920D01*
Y127460D01*
X142460D01*
X127460Y112460D02*
Y109920D01*
X132540D01*
Y112460D01*
X135080D01*
Y117540D01*
X132540D01*
Y120080D01*
X127460D01*
Y117540D01*
X124920D01*
Y112460D01*
X127460D01*
X197460Y97460D02*
Y94920D01*
X202540D01*
Y97460D01*
X205080D01*
Y102540D01*
X202540D01*
Y105080D01*
X197460D01*
Y102540D01*
X194920D01*
Y97460D01*
X197460D01*
X152460Y92460D02*
Y89920D01*
X157540D01*
Y92460D01*
X160080D01*
Y97540D01*
X157540D01*
Y100080D01*
X152460D01*
Y97540D01*
X149920D01*
Y92460D01*
X152460D01*
X112460Y97460D02*
Y94920D01*
X117540D01*
Y97460D01*
X120080D01*
Y102540D01*
X117540D01*
Y105080D01*
X112460D01*
Y102540D01*
X109920D01*
Y97460D01*
X112460D01*
X137460Y77460D02*
Y74920D01*
X142540D01*
Y77460D01*
X145080D01*
Y82540D01*
X142540D01*
Y85080D01*
X137460D01*
Y82540D01*
X134920D01*
Y77460D01*
X137460D01*
X197460Y47460D02*
Y44920D01*
X202540D01*
Y47460D01*
X205080D01*
Y52540D01*
X202540D01*
Y55080D01*
X197460D01*
Y52540D01*
X194920D01*
Y47460D01*
X197460D01*
X137460Y57460D02*
Y54920D01*
X142540D01*
Y57460D01*
X145080D01*
Y62540D01*
X142540D01*
Y65080D01*
X137460D01*
Y62540D01*
X134920D01*
Y57460D01*
X137460D01*
X107460Y77460D02*
Y74920D01*
X112540D01*
Y77460D01*
X115080D01*
Y82540D01*
X112540D01*
Y85080D01*
X107460D01*
Y82540D01*
X104920D01*
Y77460D01*
X107460D01*
Y57460D02*
Y54920D01*
X112540D01*
Y57460D01*
X115080D01*
Y62540D01*
X112540D01*
Y65080D01*
X107460D01*
Y62540D01*
X104920D01*
Y57460D01*
X107460D01*
X47460Y97460D02*
Y94920D01*
X52540D01*
Y97460D01*
X55080D01*
Y102540D01*
X52540D01*
Y105080D01*
X47460D01*
Y102540D01*
X44920D01*
Y97460D01*
X47460D01*
X97460D02*
Y94920D01*
X102540D01*
Y97460D01*
X105080D01*
Y102540D01*
X102540D01*
Y105080D01*
X97460D01*
Y102540D01*
X94920D01*
Y97460D01*
X97460D01*
X574960Y214960D02*
Y212420D01*
X580040D01*
Y214960D01*
X582580D01*
Y220040D01*
X580040D01*
Y222580D01*
X574960D01*
Y220040D01*
X572420D01*
Y214960D01*
X574960D01*
X589960Y294960D02*
Y292420D01*
X595040D01*
Y294960D01*
X597580D01*
Y300040D01*
X595040D01*
Y302580D01*
X589960D01*
Y300040D01*
X587420D01*
Y294960D01*
X589960D01*
X664960Y192960D02*
Y190420D01*
X670040D01*
Y192960D01*
X672580D01*
Y198040D01*
X670040D01*
Y200580D01*
X664960D01*
Y198040D01*
X662420D01*
Y192960D01*
X664960D01*
X704960D02*
Y190420D01*
X710040D01*
Y192960D01*
X712580D01*
Y198040D01*
X710040D01*
Y200580D01*
X704960D01*
Y198040D01*
X702420D01*
Y192960D01*
X704960D01*
D43*
X235080Y327500D02*
G03*
X235080Y327500I-5080J0D01*
G01*
X209680D02*
G03*
X209680Y327500I-5080J0D01*
G01*
X260480D02*
G03*
X260480Y327500I-5080J0D01*
G01*
M02*
