G04*
G04 #@! TF.GenerationSoftware,Altium Limited,Altium Designer,26.1.1 (7)*
G04*
G04 Layer_Color=8388736*
%FSLAX44Y44*%
%MOMM*%
G71*
G04*
G04 #@! TF.SameCoordinates,A118C6E1-3479-42CE-8D72-1BDF69DDE12E*
G04*
G04*
G04 #@! TF.FilePolarity,Positive*
G04*
G01*
G75*
%ADD10C,0.2000*%
D10*
X735500Y378000D02*
X846000D01*
X735500Y272000D02*
Y378000D01*
Y272000D02*
X846000D01*
Y378000D01*
X752995Y233000D02*
X768995D01*
X752995D02*
Y262000D01*
X768995D01*
Y233000D02*
Y262000D01*
X625495Y233000D02*
X641495D01*
X625495D02*
Y262000D01*
X641495D01*
Y233000D02*
Y262000D01*
X425500Y226500D02*
X439500D01*
Y248500D01*
X425500D02*
X439500D01*
X425500Y226500D02*
Y248500D01*
Y288500D02*
X439500D01*
X425500Y266500D02*
Y288500D01*
Y266500D02*
X439500D01*
Y288500D01*
X666500Y153000D02*
X688500D01*
X666500D02*
Y167000D01*
X688500D01*
Y153000D02*
Y167000D01*
X804000Y153000D02*
Y167000D01*
Y153000D02*
X826000D01*
Y167000D01*
X804000D02*
X826000D01*
X553000Y233000D02*
Y262000D01*
X537000D02*
X553000D01*
X537000Y233000D02*
Y262000D01*
Y233000D02*
X553000D01*
M02*
