G04*
G04 #@! TF.GenerationSoftware,Altium Limited,Altium Designer,26.1.1 (7)*
G04*
G04 Layer_Color=16711935*
%FSLAX44Y44*%
%MOMM*%
G71*
G04*
G04 #@! TF.SameCoordinates,A118C6E1-3479-42CE-8D72-1BDF69DDE12E*
G04*
G04*
G04 #@! TF.FilePolarity,Positive*
G04*
G01*
G75*
%ADD10C,0.2000*%
G36*
X69696Y-16612D02*
X68497D01*
Y-15245D01*
X69696D01*
Y-16612D01*
D02*
G37*
G36*
X47718D02*
X46520D01*
Y-15245D01*
X47718D01*
Y-16612D01*
D02*
G37*
G36*
X15521Y-15090D02*
X15648Y-15104D01*
X15803Y-15118D01*
X15958Y-15132D01*
X16141Y-15174D01*
X16522Y-15259D01*
X16945Y-15386D01*
X17156Y-15470D01*
X17353Y-15569D01*
X17551Y-15696D01*
X17748Y-15823D01*
X17762Y-15837D01*
X17790Y-15851D01*
X17847Y-15893D01*
X17917Y-15964D01*
X17988Y-16034D01*
X18087Y-16133D01*
X18185Y-16246D01*
X18298Y-16358D01*
X18411Y-16500D01*
X18523Y-16669D01*
X18650Y-16838D01*
X18763Y-17021D01*
X18862Y-17233D01*
X18975Y-17444D01*
X19059Y-17670D01*
X19144Y-17923D01*
X17875Y-18219D01*
Y-18205D01*
X17861Y-18177D01*
X17833Y-18121D01*
X17804Y-18050D01*
X17776Y-17966D01*
X17734Y-17853D01*
X17621Y-17627D01*
X17480Y-17373D01*
X17311Y-17120D01*
X17100Y-16880D01*
X16874Y-16669D01*
X16846Y-16640D01*
X16761Y-16584D01*
X16620Y-16514D01*
X16437Y-16415D01*
X16198Y-16330D01*
X15930Y-16246D01*
X15605Y-16189D01*
X15253Y-16175D01*
X15140D01*
X15070Y-16189D01*
X14971D01*
X14858Y-16204D01*
X14590Y-16246D01*
X14294Y-16302D01*
X13984Y-16401D01*
X13660Y-16542D01*
X13364Y-16725D01*
X13350D01*
X13336Y-16753D01*
X13237Y-16824D01*
X13110Y-16937D01*
X12955Y-17106D01*
X12772Y-17317D01*
X12603Y-17557D01*
X12448Y-17853D01*
X12307Y-18177D01*
Y-18191D01*
X12293Y-18219D01*
X12278Y-18262D01*
X12264Y-18332D01*
X12236Y-18417D01*
X12208Y-18515D01*
X12166Y-18755D01*
X12109Y-19037D01*
X12053Y-19347D01*
X12025Y-19685D01*
X12011Y-20052D01*
Y-20066D01*
Y-20108D01*
Y-20179D01*
Y-20263D01*
X12025Y-20362D01*
Y-20489D01*
X12039Y-20630D01*
X12053Y-20785D01*
X12095Y-21123D01*
X12166Y-21490D01*
X12250Y-21856D01*
X12363Y-22223D01*
Y-22237D01*
X12377Y-22265D01*
X12405Y-22308D01*
X12434Y-22378D01*
X12518Y-22547D01*
X12645Y-22745D01*
X12800Y-22970D01*
X12997Y-23210D01*
X13223Y-23421D01*
X13491Y-23619D01*
X13505D01*
X13533Y-23633D01*
X13575Y-23661D01*
X13632Y-23689D01*
X13702Y-23717D01*
X13787Y-23760D01*
X13984Y-23844D01*
X14238Y-23929D01*
X14520Y-23999D01*
X14830Y-24056D01*
X15154Y-24070D01*
X15253D01*
X15338Y-24056D01*
X15436D01*
X15535Y-24041D01*
X15789Y-23985D01*
X16085Y-23914D01*
X16381Y-23802D01*
X16691Y-23647D01*
X16846Y-23562D01*
X16987Y-23449D01*
X17001Y-23435D01*
X17015Y-23421D01*
X17057Y-23379D01*
X17114Y-23337D01*
X17170Y-23266D01*
X17241Y-23182D01*
X17325Y-23097D01*
X17396Y-22984D01*
X17480Y-22857D01*
X17579Y-22716D01*
X17664Y-22575D01*
X17748Y-22406D01*
X17819Y-22223D01*
X17889Y-22025D01*
X17960Y-21814D01*
X18016Y-21588D01*
X19313Y-21913D01*
Y-21927D01*
X19299Y-21983D01*
X19271Y-22068D01*
X19228Y-22181D01*
X19186Y-22308D01*
X19130Y-22462D01*
X19059Y-22632D01*
X18975Y-22815D01*
X18777Y-23210D01*
X18523Y-23604D01*
X18368Y-23802D01*
X18213Y-23999D01*
X18044Y-24168D01*
X17847Y-24337D01*
X17833Y-24351D01*
X17804Y-24380D01*
X17734Y-24408D01*
X17664Y-24464D01*
X17551Y-24535D01*
X17438Y-24605D01*
X17283Y-24676D01*
X17128Y-24746D01*
X16945Y-24831D01*
X16747Y-24901D01*
X16536Y-24972D01*
X16310Y-25042D01*
X16071Y-25099D01*
X15817Y-25127D01*
X15549Y-25155D01*
X15267Y-25169D01*
X15112D01*
X14999Y-25155D01*
X14872D01*
X14717Y-25141D01*
X14548Y-25113D01*
X14351Y-25085D01*
X13942Y-25014D01*
X13519Y-24901D01*
X13096Y-24746D01*
X12899Y-24648D01*
X12701Y-24535D01*
X12687Y-24521D01*
X12659Y-24507D01*
X12603Y-24464D01*
X12546Y-24408D01*
X12462Y-24351D01*
X12363Y-24267D01*
X12250Y-24168D01*
X12138Y-24056D01*
X12025Y-23929D01*
X11898Y-23802D01*
X11644Y-23477D01*
X11405Y-23097D01*
X11193Y-22674D01*
Y-22660D01*
X11165Y-22618D01*
X11151Y-22547D01*
X11108Y-22462D01*
X11080Y-22350D01*
X11038Y-22209D01*
X10982Y-22054D01*
X10939Y-21885D01*
X10897Y-21701D01*
X10841Y-21490D01*
X10770Y-21053D01*
X10714Y-20559D01*
X10685Y-20052D01*
Y-20038D01*
Y-19981D01*
Y-19897D01*
X10700Y-19798D01*
Y-19657D01*
X10714Y-19516D01*
X10728Y-19333D01*
X10756Y-19150D01*
X10826Y-18741D01*
X10925Y-18290D01*
X11066Y-17839D01*
X11264Y-17402D01*
X11278Y-17388D01*
X11292Y-17345D01*
X11320Y-17289D01*
X11376Y-17219D01*
X11433Y-17120D01*
X11503Y-17007D01*
X11686Y-16753D01*
X11926Y-16471D01*
X12208Y-16189D01*
X12532Y-15907D01*
X12913Y-15668D01*
X12927Y-15654D01*
X12969Y-15640D01*
X13026Y-15611D01*
X13096Y-15569D01*
X13209Y-15527D01*
X13322Y-15484D01*
X13463Y-15428D01*
X13618Y-15372D01*
X13787Y-15315D01*
X13970Y-15259D01*
X14365Y-15174D01*
X14816Y-15104D01*
X15281Y-15076D01*
X15422D01*
X15521Y-15090D01*
D02*
G37*
G36*
X52370Y-17782D02*
X52525Y-17810D01*
X52709Y-17867D01*
X52906Y-17937D01*
X53132Y-18036D01*
X53371Y-18163D01*
X52934Y-19262D01*
X52920Y-19248D01*
X52864Y-19220D01*
X52779Y-19178D01*
X52666Y-19136D01*
X52540Y-19093D01*
X52385Y-19051D01*
X52229Y-19023D01*
X52074Y-19009D01*
X52004D01*
X51933Y-19023D01*
X51835Y-19037D01*
X51736Y-19065D01*
X51609Y-19108D01*
X51482Y-19164D01*
X51370Y-19248D01*
X51355Y-19262D01*
X51313Y-19291D01*
X51271Y-19347D01*
X51200Y-19418D01*
X51130Y-19516D01*
X51059Y-19629D01*
X50989Y-19756D01*
X50932Y-19911D01*
X50918Y-19939D01*
X50904Y-20024D01*
X50876Y-20151D01*
X50834Y-20320D01*
X50792Y-20531D01*
X50763Y-20771D01*
X50749Y-21025D01*
X50735Y-21307D01*
Y-25000D01*
X49537D01*
Y-17923D01*
X50622D01*
Y-18995D01*
X50636Y-18981D01*
X50693Y-18882D01*
X50763Y-18755D01*
X50876Y-18600D01*
X50989Y-18445D01*
X51116Y-18276D01*
X51243Y-18135D01*
X51370Y-18022D01*
X51384Y-18008D01*
X51426Y-17980D01*
X51510Y-17937D01*
X51595Y-17895D01*
X51708Y-17853D01*
X51849Y-17810D01*
X51990Y-17782D01*
X52145Y-17768D01*
X52243D01*
X52370Y-17782D01*
D02*
G37*
G36*
X123095D02*
X123180D01*
X123292Y-17796D01*
X123560Y-17839D01*
X123856Y-17909D01*
X124166Y-18022D01*
X124476Y-18163D01*
X124773Y-18360D01*
X124787D01*
X124801Y-18389D01*
X124885Y-18473D01*
X125012Y-18600D01*
X125167Y-18783D01*
X125322Y-19009D01*
X125477Y-19291D01*
X125618Y-19615D01*
X125717Y-19996D01*
X124547Y-20179D01*
Y-20165D01*
X124533Y-20151D01*
X124519Y-20066D01*
X124476Y-19939D01*
X124406Y-19784D01*
X124335Y-19615D01*
X124223Y-19432D01*
X124096Y-19262D01*
X123955Y-19122D01*
X123941Y-19108D01*
X123884Y-19065D01*
X123786Y-19009D01*
X123673Y-18938D01*
X123518Y-18868D01*
X123349Y-18811D01*
X123151Y-18769D01*
X122940Y-18755D01*
X122855D01*
X122785Y-18769D01*
X122630Y-18783D01*
X122418Y-18840D01*
X122193Y-18910D01*
X121939Y-19023D01*
X121699Y-19192D01*
X121587Y-19291D01*
X121474Y-19404D01*
Y-19418D01*
X121446Y-19432D01*
X121418Y-19474D01*
X121389Y-19530D01*
X121347Y-19601D01*
X121291Y-19685D01*
X121248Y-19784D01*
X121192Y-19897D01*
X121136Y-20038D01*
X121093Y-20193D01*
X121037Y-20362D01*
X120995Y-20545D01*
X120966Y-20743D01*
X120938Y-20968D01*
X120910Y-21208D01*
Y-21462D01*
Y-21476D01*
Y-21518D01*
Y-21603D01*
X120924Y-21687D01*
Y-21814D01*
X120938Y-21941D01*
X120981Y-22251D01*
X121037Y-22589D01*
X121136Y-22942D01*
X121262Y-23252D01*
X121347Y-23407D01*
X121446Y-23534D01*
X121474Y-23562D01*
X121544Y-23633D01*
X121671Y-23731D01*
X121826Y-23844D01*
X122038Y-23971D01*
X122277Y-24070D01*
X122559Y-24140D01*
X122714Y-24154D01*
X122870Y-24168D01*
X122898D01*
X122982Y-24154D01*
X123123Y-24140D01*
X123278Y-24112D01*
X123462Y-24070D01*
X123659Y-23985D01*
X123856Y-23886D01*
X124039Y-23745D01*
X124068Y-23731D01*
X124110Y-23661D01*
X124195Y-23562D01*
X124293Y-23407D01*
X124392Y-23224D01*
X124505Y-22998D01*
X124589Y-22716D01*
X124646Y-22406D01*
X125830Y-22561D01*
Y-22575D01*
X125816Y-22618D01*
X125802Y-22674D01*
X125787Y-22759D01*
X125759Y-22871D01*
X125731Y-22984D01*
X125632Y-23266D01*
X125506Y-23562D01*
X125322Y-23886D01*
X125097Y-24197D01*
X124970Y-24337D01*
X124829Y-24478D01*
X124815Y-24492D01*
X124787Y-24507D01*
X124744Y-24535D01*
X124688Y-24577D01*
X124618Y-24634D01*
X124519Y-24690D01*
X124406Y-24746D01*
X124293Y-24817D01*
X124011Y-24944D01*
X123673Y-25042D01*
X123307Y-25127D01*
X123095Y-25141D01*
X122884Y-25155D01*
X122743D01*
X122644Y-25141D01*
X122517Y-25127D01*
X122376Y-25099D01*
X122221Y-25071D01*
X122052Y-25042D01*
X121671Y-24929D01*
X121488Y-24845D01*
X121291Y-24760D01*
X121093Y-24648D01*
X120910Y-24521D01*
X120727Y-24380D01*
X120557Y-24211D01*
X120543Y-24197D01*
X120515Y-24168D01*
X120473Y-24112D01*
X120417Y-24041D01*
X120360Y-23943D01*
X120276Y-23816D01*
X120205Y-23675D01*
X120120Y-23520D01*
X120036Y-23337D01*
X119965Y-23125D01*
X119881Y-22914D01*
X119824Y-22660D01*
X119768Y-22406D01*
X119726Y-22110D01*
X119698Y-21814D01*
X119684Y-21490D01*
Y-21476D01*
Y-21433D01*
Y-21377D01*
Y-21293D01*
X119698Y-21194D01*
Y-21081D01*
X119712Y-20954D01*
X119726Y-20813D01*
X119768Y-20503D01*
X119839Y-20165D01*
X119923Y-19826D01*
X120050Y-19488D01*
Y-19474D01*
X120064Y-19446D01*
X120092Y-19404D01*
X120120Y-19347D01*
X120205Y-19192D01*
X120332Y-19009D01*
X120501Y-18797D01*
X120698Y-18586D01*
X120938Y-18374D01*
X121206Y-18205D01*
X121220D01*
X121248Y-18191D01*
X121291Y-18163D01*
X121347Y-18135D01*
X121418Y-18107D01*
X121502Y-18064D01*
X121713Y-17980D01*
X121953Y-17909D01*
X122249Y-17839D01*
X122559Y-17782D01*
X122898Y-17768D01*
X123010D01*
X123095Y-17782D01*
D02*
G37*
G36*
X91264D02*
X91349D01*
X91461Y-17796D01*
X91729Y-17839D01*
X92025Y-17909D01*
X92335Y-18022D01*
X92646Y-18163D01*
X92942Y-18360D01*
X92956D01*
X92970Y-18389D01*
X93054Y-18473D01*
X93181Y-18600D01*
X93336Y-18783D01*
X93491Y-19009D01*
X93646Y-19291D01*
X93787Y-19615D01*
X93886Y-19996D01*
X92716Y-20179D01*
Y-20165D01*
X92702Y-20151D01*
X92688Y-20066D01*
X92646Y-19939D01*
X92575Y-19784D01*
X92505Y-19615D01*
X92392Y-19432D01*
X92265Y-19262D01*
X92124Y-19122D01*
X92110Y-19108D01*
X92053Y-19065D01*
X91955Y-19009D01*
X91842Y-18938D01*
X91687Y-18868D01*
X91518Y-18811D01*
X91320Y-18769D01*
X91109Y-18755D01*
X91024D01*
X90954Y-18769D01*
X90799Y-18783D01*
X90587Y-18840D01*
X90362Y-18910D01*
X90108Y-19023D01*
X89868Y-19192D01*
X89756Y-19291D01*
X89643Y-19404D01*
Y-19418D01*
X89615Y-19432D01*
X89586Y-19474D01*
X89558Y-19530D01*
X89516Y-19601D01*
X89460Y-19685D01*
X89417Y-19784D01*
X89361Y-19897D01*
X89305Y-20038D01*
X89262Y-20193D01*
X89206Y-20362D01*
X89164Y-20545D01*
X89135Y-20743D01*
X89107Y-20968D01*
X89079Y-21208D01*
Y-21462D01*
Y-21476D01*
Y-21518D01*
Y-21603D01*
X89093Y-21687D01*
Y-21814D01*
X89107Y-21941D01*
X89149Y-22251D01*
X89206Y-22589D01*
X89305Y-22942D01*
X89431Y-23252D01*
X89516Y-23407D01*
X89615Y-23534D01*
X89643Y-23562D01*
X89713Y-23633D01*
X89840Y-23731D01*
X89995Y-23844D01*
X90207Y-23971D01*
X90446Y-24070D01*
X90728Y-24140D01*
X90883Y-24154D01*
X91038Y-24168D01*
X91067D01*
X91151Y-24154D01*
X91292Y-24140D01*
X91447Y-24112D01*
X91630Y-24070D01*
X91828Y-23985D01*
X92025Y-23886D01*
X92208Y-23745D01*
X92237Y-23731D01*
X92279Y-23661D01*
X92364Y-23562D01*
X92462Y-23407D01*
X92561Y-23224D01*
X92674Y-22998D01*
X92758Y-22716D01*
X92815Y-22406D01*
X93999Y-22561D01*
Y-22575D01*
X93985Y-22618D01*
X93971Y-22674D01*
X93956Y-22759D01*
X93928Y-22871D01*
X93900Y-22984D01*
X93801Y-23266D01*
X93675Y-23562D01*
X93491Y-23886D01*
X93266Y-24197D01*
X93139Y-24337D01*
X92998Y-24478D01*
X92984Y-24492D01*
X92956Y-24507D01*
X92913Y-24535D01*
X92857Y-24577D01*
X92787Y-24634D01*
X92688Y-24690D01*
X92575Y-24746D01*
X92462Y-24817D01*
X92180Y-24944D01*
X91842Y-25042D01*
X91475Y-25127D01*
X91264Y-25141D01*
X91053Y-25155D01*
X90912D01*
X90813Y-25141D01*
X90686Y-25127D01*
X90545Y-25099D01*
X90390Y-25071D01*
X90221Y-25042D01*
X89840Y-24929D01*
X89657Y-24845D01*
X89460Y-24760D01*
X89262Y-24648D01*
X89079Y-24521D01*
X88896Y-24380D01*
X88727Y-24211D01*
X88712Y-24197D01*
X88684Y-24168D01*
X88642Y-24112D01*
X88586Y-24041D01*
X88529Y-23943D01*
X88445Y-23816D01*
X88374Y-23675D01*
X88289Y-23520D01*
X88205Y-23337D01*
X88134Y-23125D01*
X88050Y-22914D01*
X87993Y-22660D01*
X87937Y-22406D01*
X87895Y-22110D01*
X87867Y-21814D01*
X87852Y-21490D01*
Y-21476D01*
Y-21433D01*
Y-21377D01*
Y-21293D01*
X87867Y-21194D01*
Y-21081D01*
X87881Y-20954D01*
X87895Y-20813D01*
X87937Y-20503D01*
X88008Y-20165D01*
X88092Y-19826D01*
X88219Y-19488D01*
Y-19474D01*
X88233Y-19446D01*
X88261Y-19404D01*
X88289Y-19347D01*
X88374Y-19192D01*
X88501Y-19009D01*
X88670Y-18797D01*
X88868Y-18586D01*
X89107Y-18374D01*
X89375Y-18205D01*
X89389D01*
X89417Y-18191D01*
X89460Y-18163D01*
X89516Y-18135D01*
X89586Y-18107D01*
X89671Y-18064D01*
X89882Y-17980D01*
X90122Y-17909D01*
X90418Y-17839D01*
X90728Y-17782D01*
X91067Y-17768D01*
X91179D01*
X91264Y-17782D01*
D02*
G37*
G36*
X57149D02*
X57234D01*
X57347Y-17796D01*
X57614Y-17839D01*
X57910Y-17909D01*
X58221Y-18022D01*
X58531Y-18163D01*
X58827Y-18360D01*
X58841D01*
X58855Y-18389D01*
X58940Y-18473D01*
X59066Y-18600D01*
X59222Y-18783D01*
X59377Y-19009D01*
X59532Y-19291D01*
X59673Y-19615D01*
X59771Y-19996D01*
X58601Y-20179D01*
Y-20165D01*
X58587Y-20151D01*
X58573Y-20066D01*
X58531Y-19939D01*
X58460Y-19784D01*
X58390Y-19615D01*
X58277Y-19432D01*
X58150Y-19262D01*
X58009Y-19122D01*
X57995Y-19108D01*
X57939Y-19065D01*
X57840Y-19009D01*
X57727Y-18938D01*
X57572Y-18868D01*
X57403Y-18811D01*
X57206Y-18769D01*
X56994Y-18755D01*
X56910D01*
X56839Y-18769D01*
X56684Y-18783D01*
X56473Y-18840D01*
X56247Y-18910D01*
X55993Y-19023D01*
X55754Y-19192D01*
X55641Y-19291D01*
X55528Y-19404D01*
Y-19418D01*
X55500Y-19432D01*
X55472Y-19474D01*
X55444Y-19530D01*
X55401Y-19601D01*
X55345Y-19685D01*
X55303Y-19784D01*
X55246Y-19897D01*
X55190Y-20038D01*
X55148Y-20193D01*
X55091Y-20362D01*
X55049Y-20545D01*
X55021Y-20743D01*
X54992Y-20968D01*
X54964Y-21208D01*
Y-21462D01*
Y-21476D01*
Y-21518D01*
Y-21603D01*
X54978Y-21687D01*
Y-21814D01*
X54992Y-21941D01*
X55035Y-22251D01*
X55091Y-22589D01*
X55190Y-22942D01*
X55317Y-23252D01*
X55401Y-23407D01*
X55500Y-23534D01*
X55528Y-23562D01*
X55599Y-23633D01*
X55725Y-23731D01*
X55880Y-23844D01*
X56092Y-23971D01*
X56332Y-24070D01*
X56614Y-24140D01*
X56769Y-24154D01*
X56924Y-24168D01*
X56952D01*
X57036Y-24154D01*
X57177Y-24140D01*
X57333Y-24112D01*
X57516Y-24070D01*
X57713Y-23985D01*
X57910Y-23886D01*
X58094Y-23745D01*
X58122Y-23731D01*
X58164Y-23661D01*
X58249Y-23562D01*
X58348Y-23407D01*
X58446Y-23224D01*
X58559Y-22998D01*
X58643Y-22716D01*
X58700Y-22406D01*
X59884Y-22561D01*
Y-22575D01*
X59870Y-22618D01*
X59856Y-22674D01*
X59842Y-22759D01*
X59814Y-22871D01*
X59785Y-22984D01*
X59687Y-23266D01*
X59560Y-23562D01*
X59377Y-23886D01*
X59151Y-24197D01*
X59024Y-24337D01*
X58883Y-24478D01*
X58869Y-24492D01*
X58841Y-24507D01*
X58799Y-24535D01*
X58742Y-24577D01*
X58672Y-24634D01*
X58573Y-24690D01*
X58460Y-24746D01*
X58348Y-24817D01*
X58066Y-24944D01*
X57727Y-25042D01*
X57361Y-25127D01*
X57149Y-25141D01*
X56938Y-25155D01*
X56797D01*
X56698Y-25141D01*
X56571Y-25127D01*
X56430Y-25099D01*
X56275Y-25071D01*
X56106Y-25042D01*
X55725Y-24929D01*
X55542Y-24845D01*
X55345Y-24760D01*
X55148Y-24648D01*
X54964Y-24521D01*
X54781Y-24380D01*
X54612Y-24211D01*
X54598Y-24197D01*
X54570Y-24168D01*
X54527Y-24112D01*
X54471Y-24041D01*
X54414Y-23943D01*
X54330Y-23816D01*
X54259Y-23675D01*
X54175Y-23520D01*
X54090Y-23337D01*
X54020Y-23125D01*
X53935Y-22914D01*
X53879Y-22660D01*
X53822Y-22406D01*
X53780Y-22110D01*
X53752Y-21814D01*
X53738Y-21490D01*
Y-21476D01*
Y-21433D01*
Y-21377D01*
Y-21293D01*
X53752Y-21194D01*
Y-21081D01*
X53766Y-20954D01*
X53780Y-20813D01*
X53822Y-20503D01*
X53893Y-20165D01*
X53977Y-19826D01*
X54104Y-19488D01*
Y-19474D01*
X54118Y-19446D01*
X54147Y-19404D01*
X54175Y-19347D01*
X54259Y-19192D01*
X54386Y-19009D01*
X54555Y-18797D01*
X54753Y-18586D01*
X54992Y-18374D01*
X55260Y-18205D01*
X55274D01*
X55303Y-18191D01*
X55345Y-18163D01*
X55401Y-18135D01*
X55472Y-18107D01*
X55556Y-18064D01*
X55768Y-17980D01*
X56007Y-17909D01*
X56303Y-17839D01*
X56614Y-17782D01*
X56952Y-17768D01*
X57065D01*
X57149Y-17782D01*
D02*
G37*
G36*
X42756D02*
X42841D01*
X42954Y-17796D01*
X43221Y-17839D01*
X43517Y-17909D01*
X43828Y-18022D01*
X44138Y-18163D01*
X44434Y-18360D01*
X44448D01*
X44462Y-18389D01*
X44546Y-18473D01*
X44673Y-18600D01*
X44829Y-18783D01*
X44984Y-19009D01*
X45139Y-19291D01*
X45280Y-19615D01*
X45378Y-19996D01*
X44208Y-20179D01*
Y-20165D01*
X44194Y-20151D01*
X44180Y-20066D01*
X44138Y-19939D01*
X44067Y-19784D01*
X43997Y-19615D01*
X43884Y-19432D01*
X43757Y-19262D01*
X43616Y-19122D01*
X43602Y-19108D01*
X43546Y-19065D01*
X43447Y-19009D01*
X43334Y-18938D01*
X43179Y-18868D01*
X43010Y-18811D01*
X42813Y-18769D01*
X42601Y-18755D01*
X42517D01*
X42446Y-18769D01*
X42291Y-18783D01*
X42080Y-18840D01*
X41854Y-18910D01*
X41600Y-19023D01*
X41361Y-19192D01*
X41248Y-19291D01*
X41135Y-19404D01*
Y-19418D01*
X41107Y-19432D01*
X41079Y-19474D01*
X41051Y-19530D01*
X41008Y-19601D01*
X40952Y-19685D01*
X40910Y-19784D01*
X40853Y-19897D01*
X40797Y-20038D01*
X40754Y-20193D01*
X40698Y-20362D01*
X40656Y-20545D01*
X40628Y-20743D01*
X40599Y-20968D01*
X40571Y-21208D01*
Y-21462D01*
Y-21476D01*
Y-21518D01*
Y-21603D01*
X40585Y-21687D01*
Y-21814D01*
X40599Y-21941D01*
X40642Y-22251D01*
X40698Y-22589D01*
X40797Y-22942D01*
X40924Y-23252D01*
X41008Y-23407D01*
X41107Y-23534D01*
X41135Y-23562D01*
X41206Y-23633D01*
X41332Y-23731D01*
X41487Y-23844D01*
X41699Y-23971D01*
X41939Y-24070D01*
X42221Y-24140D01*
X42376Y-24154D01*
X42531Y-24168D01*
X42559D01*
X42643Y-24154D01*
X42784Y-24140D01*
X42940Y-24112D01*
X43123Y-24070D01*
X43320Y-23985D01*
X43517Y-23886D01*
X43701Y-23745D01*
X43729Y-23731D01*
X43771Y-23661D01*
X43856Y-23562D01*
X43954Y-23407D01*
X44053Y-23224D01*
X44166Y-22998D01*
X44250Y-22716D01*
X44307Y-22406D01*
X45491Y-22561D01*
Y-22575D01*
X45477Y-22618D01*
X45463Y-22674D01*
X45449Y-22759D01*
X45420Y-22871D01*
X45392Y-22984D01*
X45294Y-23266D01*
X45167Y-23562D01*
X44984Y-23886D01*
X44758Y-24197D01*
X44631Y-24337D01*
X44490Y-24478D01*
X44476Y-24492D01*
X44448Y-24507D01*
X44405Y-24535D01*
X44349Y-24577D01*
X44279Y-24634D01*
X44180Y-24690D01*
X44067Y-24746D01*
X43954Y-24817D01*
X43672Y-24944D01*
X43334Y-25042D01*
X42968Y-25127D01*
X42756Y-25141D01*
X42545Y-25155D01*
X42404D01*
X42305Y-25141D01*
X42178Y-25127D01*
X42037Y-25099D01*
X41882Y-25071D01*
X41713Y-25042D01*
X41332Y-24929D01*
X41149Y-24845D01*
X40952Y-24760D01*
X40754Y-24648D01*
X40571Y-24521D01*
X40388Y-24380D01*
X40219Y-24211D01*
X40205Y-24197D01*
X40176Y-24168D01*
X40134Y-24112D01*
X40078Y-24041D01*
X40021Y-23943D01*
X39937Y-23816D01*
X39866Y-23675D01*
X39782Y-23520D01*
X39697Y-23337D01*
X39627Y-23125D01*
X39542Y-22914D01*
X39486Y-22660D01*
X39429Y-22406D01*
X39387Y-22110D01*
X39359Y-21814D01*
X39345Y-21490D01*
Y-21476D01*
Y-21433D01*
Y-21377D01*
Y-21293D01*
X39359Y-21194D01*
Y-21081D01*
X39373Y-20954D01*
X39387Y-20813D01*
X39429Y-20503D01*
X39500Y-20165D01*
X39584Y-19826D01*
X39711Y-19488D01*
Y-19474D01*
X39725Y-19446D01*
X39753Y-19404D01*
X39782Y-19347D01*
X39866Y-19192D01*
X39993Y-19009D01*
X40162Y-18797D01*
X40360Y-18586D01*
X40599Y-18374D01*
X40867Y-18205D01*
X40881D01*
X40910Y-18191D01*
X40952Y-18163D01*
X41008Y-18135D01*
X41079Y-18107D01*
X41163Y-18064D01*
X41375Y-17980D01*
X41614Y-17909D01*
X41910Y-17839D01*
X42221Y-17782D01*
X42559Y-17768D01*
X42672D01*
X42756Y-17782D01*
D02*
G37*
G36*
X30168Y-25000D02*
X28927D01*
Y-16838D01*
X26079Y-25000D01*
X24924D01*
X22104Y-16697D01*
Y-25000D01*
X20864D01*
Y-15245D01*
X22795D01*
X25107Y-22167D01*
Y-22181D01*
X25121Y-22209D01*
X25135Y-22251D01*
X25163Y-22322D01*
X25220Y-22491D01*
X25290Y-22702D01*
X25361Y-22942D01*
X25445Y-23182D01*
X25516Y-23407D01*
X25572Y-23604D01*
X25586Y-23576D01*
X25600Y-23506D01*
X25642Y-23379D01*
X25699Y-23210D01*
X25769Y-22984D01*
X25868Y-22716D01*
X25967Y-22406D01*
X26093Y-22040D01*
X28434Y-15245D01*
X30168D01*
Y-25000D01*
D02*
G37*
G36*
X66622D02*
X65551D01*
Y-23971D01*
X65537Y-23985D01*
X65509Y-24027D01*
X65466Y-24084D01*
X65396Y-24154D01*
X65311Y-24239D01*
X65213Y-24351D01*
X65100Y-24450D01*
X64959Y-24563D01*
X64804Y-24676D01*
X64635Y-24774D01*
X64451Y-24873D01*
X64254Y-24972D01*
X64029Y-25042D01*
X63803Y-25099D01*
X63549Y-25141D01*
X63295Y-25155D01*
X63197D01*
X63070Y-25141D01*
X62915Y-25127D01*
X62732Y-25099D01*
X62534Y-25056D01*
X62337Y-25000D01*
X62126Y-24915D01*
X62097Y-24901D01*
X62041Y-24873D01*
X61942Y-24817D01*
X61829Y-24746D01*
X61688Y-24662D01*
X61562Y-24563D01*
X61435Y-24450D01*
X61322Y-24323D01*
X61308Y-24309D01*
X61280Y-24253D01*
X61237Y-24182D01*
X61181Y-24070D01*
X61111Y-23943D01*
X61054Y-23788D01*
X60998Y-23619D01*
X60955Y-23435D01*
Y-23421D01*
X60941Y-23365D01*
X60927Y-23280D01*
Y-23167D01*
X60913Y-22998D01*
X60899Y-22815D01*
X60885Y-22575D01*
Y-22308D01*
Y-17923D01*
X62083D01*
Y-21856D01*
Y-21871D01*
Y-21899D01*
Y-21941D01*
Y-22011D01*
Y-22167D01*
X62097Y-22364D01*
Y-22575D01*
X62111Y-22787D01*
X62126Y-22970D01*
X62154Y-23125D01*
Y-23139D01*
X62182Y-23196D01*
X62210Y-23280D01*
X62252Y-23393D01*
X62323Y-23506D01*
X62407Y-23633D01*
X62506Y-23745D01*
X62633Y-23858D01*
X62647Y-23872D01*
X62703Y-23900D01*
X62774Y-23943D01*
X62887Y-23985D01*
X63014Y-24041D01*
X63169Y-24084D01*
X63338Y-24112D01*
X63535Y-24126D01*
X63634D01*
X63733Y-24112D01*
X63859Y-24098D01*
X64015Y-24056D01*
X64184Y-24013D01*
X64367Y-23943D01*
X64550Y-23858D01*
X64578Y-23844D01*
X64635Y-23802D01*
X64719Y-23745D01*
X64818Y-23661D01*
X64931Y-23548D01*
X65044Y-23421D01*
X65142Y-23280D01*
X65227Y-23111D01*
X65241Y-23083D01*
X65255Y-23026D01*
X65283Y-22914D01*
X65325Y-22759D01*
X65368Y-22561D01*
X65396Y-22322D01*
X65410Y-22040D01*
X65424Y-21715D01*
Y-17923D01*
X66622D01*
Y-25000D01*
D02*
G37*
G36*
X106771Y-15259D02*
X107053Y-15273D01*
X107335Y-15301D01*
X107617Y-15344D01*
X107856Y-15386D01*
X107870D01*
X107898Y-15400D01*
X107941D01*
X107997Y-15428D01*
X108152Y-15470D01*
X108350Y-15541D01*
X108575Y-15640D01*
X108815Y-15767D01*
X109054Y-15907D01*
X109280Y-16091D01*
X109294Y-16105D01*
X109308Y-16119D01*
X109350Y-16161D01*
X109407Y-16204D01*
X109548Y-16344D01*
X109717Y-16542D01*
X109900Y-16781D01*
X110098Y-17063D01*
X110281Y-17388D01*
X110436Y-17754D01*
Y-17768D01*
X110450Y-17796D01*
X110478Y-17853D01*
X110492Y-17937D01*
X110535Y-18036D01*
X110563Y-18149D01*
X110591Y-18276D01*
X110633Y-18431D01*
X110675Y-18586D01*
X110704Y-18769D01*
X110774Y-19164D01*
X110816Y-19601D01*
X110831Y-20080D01*
Y-20094D01*
Y-20122D01*
Y-20193D01*
Y-20263D01*
X110816Y-20362D01*
Y-20475D01*
X110802Y-20743D01*
X110760Y-21053D01*
X110718Y-21377D01*
X110647Y-21715D01*
X110563Y-22054D01*
Y-22068D01*
X110549Y-22096D01*
X110535Y-22138D01*
X110520Y-22195D01*
X110464Y-22350D01*
X110379Y-22547D01*
X110295Y-22773D01*
X110182Y-22998D01*
X110041Y-23238D01*
X109900Y-23463D01*
X109886Y-23492D01*
X109830Y-23562D01*
X109745Y-23661D01*
X109632Y-23788D01*
X109506Y-23929D01*
X109350Y-24070D01*
X109195Y-24225D01*
X109012Y-24351D01*
X108984Y-24366D01*
X108927Y-24408D01*
X108829Y-24464D01*
X108688Y-24535D01*
X108519Y-24619D01*
X108321Y-24690D01*
X108096Y-24774D01*
X107842Y-24845D01*
X107814D01*
X107772Y-24859D01*
X107729Y-24873D01*
X107588Y-24887D01*
X107391Y-24915D01*
X107165Y-24944D01*
X106898Y-24972D01*
X106601Y-24986D01*
X106277Y-25000D01*
X102767D01*
Y-15245D01*
X106517D01*
X106771Y-15259D01*
D02*
G37*
G36*
X83482D02*
X83722Y-15273D01*
X83976Y-15287D01*
X84215Y-15315D01*
X84427Y-15344D01*
X84455D01*
X84554Y-15372D01*
X84681Y-15400D01*
X84850Y-15442D01*
X85033Y-15513D01*
X85231Y-15597D01*
X85442Y-15696D01*
X85625Y-15809D01*
X85653Y-15823D01*
X85710Y-15865D01*
X85794Y-15950D01*
X85907Y-16048D01*
X86034Y-16175D01*
X86161Y-16344D01*
X86302Y-16528D01*
X86415Y-16739D01*
X86429Y-16767D01*
X86457Y-16838D01*
X86513Y-16965D01*
X86570Y-17134D01*
X86612Y-17331D01*
X86668Y-17557D01*
X86697Y-17810D01*
X86711Y-18078D01*
Y-18092D01*
Y-18135D01*
Y-18191D01*
X86697Y-18290D01*
X86683Y-18389D01*
X86668Y-18515D01*
X86640Y-18656D01*
X86612Y-18811D01*
X86513Y-19136D01*
X86457Y-19305D01*
X86372Y-19488D01*
X86274Y-19671D01*
X86175Y-19841D01*
X86048Y-20010D01*
X85907Y-20179D01*
X85893Y-20193D01*
X85865Y-20221D01*
X85822Y-20263D01*
X85752Y-20306D01*
X85667Y-20376D01*
X85555Y-20447D01*
X85414Y-20531D01*
X85259Y-20602D01*
X85075Y-20686D01*
X84864Y-20771D01*
X84638Y-20841D01*
X84370Y-20898D01*
X84089Y-20954D01*
X83778Y-20996D01*
X83426Y-21025D01*
X83060Y-21039D01*
X80564D01*
Y-25000D01*
X79267D01*
Y-15245D01*
X83271D01*
X83482Y-15259D01*
D02*
G37*
G36*
X77026Y-25000D02*
X75659D01*
Y-23633D01*
X77026D01*
Y-25000D01*
D02*
G37*
G36*
X69696D02*
X68497D01*
Y-17923D01*
X69696D01*
Y-25000D01*
D02*
G37*
G36*
X47718D02*
X46520D01*
Y-17923D01*
X47718D01*
Y-25000D01*
D02*
G37*
G36*
X72924Y-17923D02*
X74136D01*
Y-18854D01*
X72924D01*
Y-23012D01*
Y-23040D01*
Y-23097D01*
Y-23182D01*
X72938Y-23280D01*
X72952Y-23506D01*
X72966Y-23604D01*
X72980Y-23675D01*
X72994Y-23703D01*
X73037Y-23760D01*
X73093Y-23830D01*
X73192Y-23900D01*
X73220Y-23914D01*
X73290Y-23943D01*
X73417Y-23971D01*
X73600Y-23985D01*
X73741D01*
X73812Y-23971D01*
X73911D01*
X74023Y-23957D01*
X74136Y-23943D01*
X74291Y-25000D01*
X74263D01*
X74207Y-25014D01*
X74108Y-25028D01*
X73981Y-25042D01*
X73840Y-25071D01*
X73685Y-25085D01*
X73375Y-25099D01*
X73262D01*
X73149Y-25085D01*
X73008Y-25071D01*
X72839Y-25056D01*
X72670Y-25014D01*
X72515Y-24972D01*
X72360Y-24901D01*
X72346Y-24887D01*
X72304Y-24859D01*
X72247Y-24817D01*
X72162Y-24746D01*
X72092Y-24676D01*
X72007Y-24577D01*
X71923Y-24478D01*
X71866Y-24351D01*
Y-24337D01*
X71838Y-24281D01*
X71824Y-24182D01*
X71796Y-24041D01*
X71768Y-23858D01*
X71754Y-23745D01*
Y-23619D01*
X71740Y-23463D01*
X71726Y-23308D01*
Y-23139D01*
Y-22942D01*
Y-18854D01*
X70837D01*
Y-17923D01*
X71726D01*
Y-16175D01*
X72924Y-15456D01*
Y-17923D01*
D02*
G37*
G36*
X115553Y-17782D02*
X115680Y-17796D01*
X115821Y-17825D01*
X115976Y-17853D01*
X116159Y-17881D01*
X116540Y-18008D01*
X116737Y-18078D01*
X116935Y-18177D01*
X117132Y-18276D01*
X117329Y-18417D01*
X117513Y-18558D01*
X117696Y-18727D01*
X117710Y-18741D01*
X117738Y-18769D01*
X117780Y-18826D01*
X117837Y-18896D01*
X117907Y-18995D01*
X117992Y-19122D01*
X118076Y-19262D01*
X118161Y-19418D01*
X118246Y-19587D01*
X118330Y-19798D01*
X118415Y-20010D01*
X118485Y-20249D01*
X118542Y-20503D01*
X118584Y-20771D01*
X118612Y-21053D01*
X118626Y-21363D01*
Y-21377D01*
Y-21419D01*
Y-21490D01*
Y-21588D01*
X118612Y-21701D01*
X118598Y-21842D01*
Y-21983D01*
X118570Y-22138D01*
X118528Y-22491D01*
X118443Y-22843D01*
X118344Y-23196D01*
X118203Y-23520D01*
Y-23534D01*
X118189Y-23548D01*
X118161Y-23590D01*
X118133Y-23647D01*
X118034Y-23788D01*
X117907Y-23957D01*
X117738Y-24154D01*
X117527Y-24351D01*
X117287Y-24549D01*
X117005Y-24732D01*
X116991D01*
X116977Y-24746D01*
X116935Y-24774D01*
X116864Y-24803D01*
X116794Y-24831D01*
X116709Y-24859D01*
X116498Y-24944D01*
X116258Y-25014D01*
X115962Y-25085D01*
X115652Y-25141D01*
X115314Y-25155D01*
X115173D01*
X115060Y-25141D01*
X114933Y-25127D01*
X114792Y-25099D01*
X114623Y-25071D01*
X114453Y-25042D01*
X114073Y-24929D01*
X113862Y-24845D01*
X113664Y-24760D01*
X113467Y-24648D01*
X113269Y-24521D01*
X113086Y-24380D01*
X112903Y-24211D01*
X112889Y-24197D01*
X112861Y-24168D01*
X112818Y-24112D01*
X112762Y-24027D01*
X112691Y-23929D01*
X112621Y-23816D01*
X112536Y-23675D01*
X112452Y-23506D01*
X112367Y-23323D01*
X112283Y-23111D01*
X112212Y-22885D01*
X112142Y-22646D01*
X112085Y-22378D01*
X112043Y-22096D01*
X112015Y-21786D01*
X112001Y-21462D01*
Y-21433D01*
Y-21377D01*
X112015Y-21278D01*
Y-21137D01*
X112029Y-20982D01*
X112057Y-20785D01*
X112085Y-20588D01*
X112142Y-20362D01*
X112198Y-20136D01*
X112268Y-19897D01*
X112353Y-19643D01*
X112466Y-19404D01*
X112579Y-19178D01*
X112734Y-18952D01*
X112889Y-18741D01*
X113086Y-18558D01*
X113100Y-18544D01*
X113128Y-18529D01*
X113185Y-18487D01*
X113255Y-18431D01*
X113340Y-18374D01*
X113453Y-18304D01*
X113565Y-18233D01*
X113706Y-18163D01*
X113862Y-18092D01*
X114031Y-18022D01*
X114411Y-17895D01*
X114848Y-17796D01*
X115074Y-17782D01*
X115314Y-17768D01*
X115454D01*
X115553Y-17782D01*
D02*
G37*
G36*
X96198Y-18727D02*
X96212Y-18713D01*
X96226Y-18685D01*
X96268Y-18642D01*
X96339Y-18572D01*
X96409Y-18501D01*
X96494Y-18417D01*
X96607Y-18332D01*
X96720Y-18247D01*
X97001Y-18064D01*
X97326Y-17923D01*
X97509Y-17853D01*
X97706Y-17810D01*
X97918Y-17782D01*
X98129Y-17768D01*
X98242D01*
X98369Y-17782D01*
X98524Y-17796D01*
X98707Y-17839D01*
X98919Y-17881D01*
X99144Y-17952D01*
X99356Y-18036D01*
X99384Y-18050D01*
X99454Y-18078D01*
X99567Y-18149D01*
X99694Y-18233D01*
X99849Y-18332D01*
X100004Y-18459D01*
X100173Y-18614D01*
X100314Y-18783D01*
X100328Y-18797D01*
X100371Y-18868D01*
X100441Y-18966D01*
X100526Y-19093D01*
X100624Y-19262D01*
X100723Y-19460D01*
X100822Y-19685D01*
X100906Y-19925D01*
Y-19939D01*
X100920Y-19953D01*
X100934Y-19996D01*
X100949Y-20038D01*
X100977Y-20179D01*
X101019Y-20362D01*
X101061Y-20573D01*
X101104Y-20813D01*
X101118Y-21081D01*
X101132Y-21363D01*
Y-21377D01*
Y-21448D01*
Y-21532D01*
X101118Y-21659D01*
X101104Y-21814D01*
X101090Y-21983D01*
X101061Y-22181D01*
X101019Y-22392D01*
X100906Y-22843D01*
X100836Y-23083D01*
X100751Y-23308D01*
X100653Y-23548D01*
X100526Y-23760D01*
X100385Y-23971D01*
X100230Y-24168D01*
X100216Y-24182D01*
X100187Y-24211D01*
X100145Y-24253D01*
X100075Y-24323D01*
X99976Y-24394D01*
X99877Y-24478D01*
X99764Y-24563D01*
X99623Y-24662D01*
X99468Y-24746D01*
X99313Y-24845D01*
X98933Y-25000D01*
X98735Y-25071D01*
X98524Y-25113D01*
X98298Y-25141D01*
X98073Y-25155D01*
X98016D01*
X97946Y-25141D01*
X97861D01*
X97763Y-25127D01*
X97636Y-25099D01*
X97354Y-25028D01*
X97199Y-24972D01*
X97044Y-24901D01*
X96875Y-24817D01*
X96720Y-24718D01*
X96550Y-24591D01*
X96395Y-24450D01*
X96254Y-24295D01*
X96113Y-24112D01*
Y-25000D01*
X95000D01*
Y-15245D01*
X96198D01*
Y-18727D01*
D02*
G37*
G36*
X4892Y-15090D02*
X5019D01*
X5145Y-15104D01*
X5315Y-15132D01*
X5484Y-15160D01*
X5850Y-15231D01*
X6273Y-15344D01*
X6682Y-15513D01*
X6893Y-15611D01*
X7105Y-15724D01*
X7119Y-15738D01*
X7147Y-15752D01*
X7204Y-15795D01*
X7288Y-15837D01*
X7373Y-15907D01*
X7485Y-15992D01*
X7725Y-16189D01*
X7979Y-16443D01*
X8261Y-16753D01*
X8529Y-17120D01*
X8754Y-17529D01*
Y-17543D01*
X8782Y-17585D01*
X8811Y-17641D01*
X8839Y-17726D01*
X8895Y-17839D01*
X8938Y-17966D01*
X8994Y-18121D01*
X9050Y-18290D01*
X9093Y-18473D01*
X9149Y-18670D01*
X9205Y-18882D01*
X9248Y-19108D01*
X9304Y-19601D01*
X9332Y-20122D01*
Y-20136D01*
Y-20179D01*
Y-20235D01*
Y-20320D01*
X9318Y-20433D01*
Y-20559D01*
X9304Y-20700D01*
X9290Y-20841D01*
X9248Y-21180D01*
X9177Y-21546D01*
X9093Y-21927D01*
X8966Y-22293D01*
Y-22308D01*
X8952Y-22336D01*
X8923Y-22392D01*
X8895Y-22448D01*
X8853Y-22533D01*
X8811Y-22632D01*
X8698Y-22857D01*
X8543Y-23125D01*
X8345Y-23407D01*
X8120Y-23689D01*
X7866Y-23971D01*
X7880D01*
X7908Y-23999D01*
X7951Y-24027D01*
X8021Y-24070D01*
X8092Y-24126D01*
X8190Y-24182D01*
X8402Y-24309D01*
X8656Y-24464D01*
X8938Y-24619D01*
X9233Y-24746D01*
X9516Y-24873D01*
X9135Y-25761D01*
X9121D01*
X9093Y-25747D01*
X9036Y-25719D01*
X8952Y-25691D01*
X8853Y-25649D01*
X8740Y-25592D01*
X8613Y-25536D01*
X8472Y-25465D01*
X8162Y-25296D01*
X7810Y-25099D01*
X7429Y-24845D01*
X7034Y-24563D01*
X7020D01*
X6992Y-24591D01*
X6922Y-24619D01*
X6851Y-24662D01*
X6738Y-24704D01*
X6626Y-24760D01*
X6485Y-24803D01*
X6330Y-24859D01*
X6160Y-24915D01*
X5977Y-24972D01*
X5568Y-25071D01*
X5117Y-25141D01*
X4878Y-25155D01*
X4638Y-25169D01*
X4511D01*
X4412Y-25155D01*
X4300D01*
X4159Y-25141D01*
X4004Y-25113D01*
X3834Y-25085D01*
X3468Y-25014D01*
X3059Y-24901D01*
X2636Y-24746D01*
X2439Y-24648D01*
X2227Y-24535D01*
X2213Y-24521D01*
X2185Y-24507D01*
X2129Y-24464D01*
X2058Y-24422D01*
X1960Y-24351D01*
X1861Y-24267D01*
X1621Y-24070D01*
X1353Y-23816D01*
X1085Y-23506D01*
X818Y-23153D01*
X578Y-22745D01*
Y-22730D01*
X550Y-22688D01*
X522Y-22632D01*
X493Y-22547D01*
X451Y-22434D01*
X395Y-22308D01*
X338Y-22152D01*
X296Y-21983D01*
X240Y-21800D01*
X183Y-21603D01*
X141Y-21391D01*
X85Y-21151D01*
X28Y-20658D01*
X0Y-20136D01*
Y-20122D01*
Y-20066D01*
Y-19996D01*
X14Y-19897D01*
Y-19770D01*
X28Y-19615D01*
X42Y-19446D01*
X71Y-19262D01*
X141Y-18854D01*
X240Y-18417D01*
X381Y-17952D01*
X578Y-17500D01*
X592Y-17486D01*
X606Y-17444D01*
X634Y-17388D01*
X691Y-17303D01*
X747Y-17204D01*
X818Y-17092D01*
X1015Y-16824D01*
X1240Y-16542D01*
X1537Y-16246D01*
X1861Y-15950D01*
X2241Y-15696D01*
X2255Y-15682D01*
X2298Y-15668D01*
X2354Y-15640D01*
X2439Y-15597D01*
X2537Y-15555D01*
X2650Y-15499D01*
X2791Y-15442D01*
X2946Y-15386D01*
X3129Y-15330D01*
X3313Y-15273D01*
X3722Y-15174D01*
X4173Y-15104D01*
X4412Y-15076D01*
X4793D01*
X4892Y-15090D01*
D02*
G37*
G36*
X38936Y-27707D02*
X30999D01*
Y-26847D01*
X38936D01*
Y-27707D01*
D02*
G37*
%LPC*%
G36*
X106320Y-16401D02*
X104064D01*
Y-23844D01*
X106376D01*
X106475Y-23830D01*
X106686Y-23816D01*
X106926Y-23802D01*
X107179Y-23774D01*
X107433Y-23731D01*
X107645Y-23675D01*
X107673Y-23661D01*
X107743Y-23647D01*
X107842Y-23604D01*
X107969Y-23548D01*
X108110Y-23463D01*
X108251Y-23379D01*
X108392Y-23280D01*
X108533Y-23167D01*
X108547Y-23139D01*
X108603Y-23083D01*
X108688Y-22984D01*
X108786Y-22843D01*
X108899Y-22660D01*
X109026Y-22448D01*
X109139Y-22209D01*
X109238Y-21941D01*
Y-21927D01*
X109252Y-21899D01*
X109266Y-21856D01*
X109280Y-21800D01*
X109294Y-21730D01*
X109322Y-21631D01*
X109350Y-21532D01*
X109379Y-21419D01*
X109421Y-21137D01*
X109463Y-20813D01*
X109491Y-20447D01*
X109506Y-20052D01*
Y-20038D01*
Y-19981D01*
Y-19911D01*
X109491Y-19798D01*
Y-19671D01*
X109477Y-19530D01*
X109463Y-19361D01*
X109449Y-19192D01*
X109379Y-18811D01*
X109294Y-18417D01*
X109167Y-18050D01*
X109083Y-17867D01*
X108998Y-17712D01*
Y-17698D01*
X108970Y-17670D01*
X108942Y-17627D01*
X108913Y-17571D01*
X108801Y-17430D01*
X108660Y-17261D01*
X108476Y-17077D01*
X108265Y-16894D01*
X108025Y-16739D01*
X107772Y-16612D01*
X107743Y-16598D01*
X107673Y-16584D01*
X107546Y-16542D01*
X107363Y-16500D01*
X107137Y-16471D01*
X106855Y-16429D01*
X106686Y-16415D01*
X106503D01*
X106320Y-16401D01*
D02*
G37*
G36*
X83356D02*
X80564D01*
Y-19883D01*
X83186D01*
X83285Y-19869D01*
X83384D01*
X83497Y-19855D01*
X83764Y-19826D01*
X84060Y-19770D01*
X84356Y-19685D01*
X84624Y-19573D01*
X84751Y-19502D01*
X84850Y-19418D01*
X84878Y-19389D01*
X84934Y-19333D01*
X85019Y-19220D01*
X85118Y-19079D01*
X85216Y-18896D01*
X85301Y-18670D01*
X85357Y-18417D01*
X85386Y-18121D01*
Y-18107D01*
Y-18092D01*
Y-18022D01*
X85371Y-17895D01*
X85343Y-17754D01*
X85315Y-17599D01*
X85259Y-17416D01*
X85174Y-17247D01*
X85075Y-17077D01*
X85061Y-17063D01*
X85019Y-17007D01*
X84949Y-16937D01*
X84864Y-16838D01*
X84737Y-16739D01*
X84596Y-16655D01*
X84441Y-16570D01*
X84258Y-16500D01*
X84244D01*
X84187Y-16485D01*
X84103Y-16471D01*
X83990Y-16443D01*
X83821Y-16429D01*
X83609Y-16415D01*
X83356Y-16401D01*
D02*
G37*
G36*
X115314Y-18755D02*
X115229D01*
X115158Y-18769D01*
X115003Y-18783D01*
X114792Y-18840D01*
X114552Y-18924D01*
X114298Y-19037D01*
X114059Y-19206D01*
X113932Y-19319D01*
X113819Y-19432D01*
Y-19446D01*
X113791Y-19460D01*
X113763Y-19502D01*
X113721Y-19559D01*
X113678Y-19629D01*
X113636Y-19714D01*
X113580Y-19826D01*
X113523Y-19939D01*
X113467Y-20080D01*
X113410Y-20221D01*
X113368Y-20390D01*
X113326Y-20573D01*
X113284Y-20771D01*
X113255Y-20982D01*
X113241Y-21222D01*
X113227Y-21462D01*
Y-21476D01*
Y-21518D01*
Y-21588D01*
X113241Y-21687D01*
Y-21800D01*
X113255Y-21927D01*
X113298Y-22223D01*
X113368Y-22561D01*
X113481Y-22899D01*
X113622Y-23224D01*
X113721Y-23365D01*
X113819Y-23506D01*
X113833D01*
X113847Y-23534D01*
X113932Y-23604D01*
X114059Y-23717D01*
X114228Y-23830D01*
X114439Y-23957D01*
X114693Y-24070D01*
X114989Y-24140D01*
X115144Y-24154D01*
X115314Y-24168D01*
X115398D01*
X115469Y-24154D01*
X115624Y-24126D01*
X115835Y-24084D01*
X116061Y-23999D01*
X116314Y-23886D01*
X116554Y-23717D01*
X116681Y-23604D01*
X116794Y-23492D01*
X116808Y-23477D01*
X116822Y-23463D01*
X116850Y-23421D01*
X116892Y-23365D01*
X116935Y-23294D01*
X116991Y-23210D01*
X117047Y-23097D01*
X117104Y-22984D01*
X117160Y-22843D01*
X117203Y-22688D01*
X117259Y-22519D01*
X117301Y-22336D01*
X117343Y-22124D01*
X117372Y-21913D01*
X117400Y-21673D01*
Y-21419D01*
Y-21405D01*
Y-21363D01*
Y-21293D01*
X117386Y-21208D01*
Y-21095D01*
X117372Y-20968D01*
X117329Y-20672D01*
X117259Y-20362D01*
X117146Y-20024D01*
X116991Y-19714D01*
X116906Y-19559D01*
X116794Y-19432D01*
Y-19418D01*
X116765Y-19404D01*
X116681Y-19319D01*
X116554Y-19220D01*
X116385Y-19093D01*
X116173Y-18966D01*
X115920Y-18854D01*
X115638Y-18783D01*
X115483Y-18769D01*
X115314Y-18755D01*
D02*
G37*
G36*
X98157D02*
X97946D01*
X97890Y-18769D01*
X97734Y-18797D01*
X97551Y-18840D01*
X97340Y-18924D01*
X97114Y-19051D01*
X97001Y-19122D01*
X96889Y-19220D01*
X96776Y-19319D01*
X96663Y-19446D01*
Y-19460D01*
X96635Y-19474D01*
X96607Y-19516D01*
X96579Y-19573D01*
X96536Y-19643D01*
X96480Y-19728D01*
X96438Y-19826D01*
X96381Y-19939D01*
X96325Y-20080D01*
X96283Y-20221D01*
X96226Y-20390D01*
X96184Y-20559D01*
X96156Y-20757D01*
X96127Y-20968D01*
X96099Y-21180D01*
Y-21419D01*
Y-21433D01*
Y-21476D01*
Y-21546D01*
Y-21631D01*
X96113Y-21730D01*
Y-21856D01*
X96142Y-22124D01*
X96184Y-22420D01*
X96240Y-22730D01*
X96325Y-23012D01*
X96381Y-23139D01*
X96438Y-23252D01*
Y-23266D01*
X96466Y-23294D01*
X96494Y-23337D01*
X96536Y-23393D01*
X96663Y-23548D01*
X96846Y-23703D01*
X97058Y-23872D01*
X97326Y-24027D01*
X97467Y-24084D01*
X97636Y-24126D01*
X97791Y-24154D01*
X97974Y-24168D01*
X98045D01*
X98101Y-24154D01*
X98256Y-24126D01*
X98439Y-24084D01*
X98651Y-23999D01*
X98876Y-23886D01*
X99102Y-23717D01*
X99215Y-23604D01*
X99327Y-23492D01*
Y-23477D01*
X99356Y-23463D01*
X99384Y-23421D01*
X99412Y-23365D01*
X99468Y-23294D01*
X99511Y-23210D01*
X99567Y-23097D01*
X99623Y-22984D01*
X99666Y-22843D01*
X99722Y-22702D01*
X99779Y-22533D01*
X99821Y-22350D01*
X99849Y-22152D01*
X99877Y-21941D01*
X99905Y-21701D01*
Y-21462D01*
Y-21448D01*
Y-21405D01*
Y-21335D01*
X99891Y-21236D01*
Y-21123D01*
X99877Y-20982D01*
X99835Y-20686D01*
X99779Y-20362D01*
X99680Y-20010D01*
X99539Y-19699D01*
X99454Y-19545D01*
X99356Y-19418D01*
Y-19404D01*
X99327Y-19389D01*
X99257Y-19319D01*
X99144Y-19206D01*
X98989Y-19079D01*
X98792Y-18966D01*
X98566Y-18854D01*
X98298Y-18783D01*
X98157Y-18755D01*
D02*
G37*
G36*
X4666Y-16189D02*
X4525D01*
X4426Y-16204D01*
X4300Y-16218D01*
X4159Y-16246D01*
X4004Y-16274D01*
X3834Y-16316D01*
X3637Y-16373D01*
X3454Y-16429D01*
X3256Y-16514D01*
X3045Y-16612D01*
X2848Y-16725D01*
X2650Y-16866D01*
X2453Y-17007D01*
X2270Y-17190D01*
X2255Y-17204D01*
X2227Y-17233D01*
X2185Y-17289D01*
X2129Y-17373D01*
X2044Y-17472D01*
X1974Y-17599D01*
X1889Y-17754D01*
X1804Y-17923D01*
X1706Y-18121D01*
X1621Y-18346D01*
X1551Y-18586D01*
X1480Y-18854D01*
X1410Y-19136D01*
X1367Y-19446D01*
X1339Y-19784D01*
X1325Y-20136D01*
Y-20165D01*
Y-20221D01*
Y-20320D01*
X1339Y-20447D01*
X1353Y-20602D01*
X1382Y-20785D01*
X1410Y-20996D01*
X1438Y-21208D01*
X1551Y-21687D01*
X1621Y-21927D01*
X1720Y-22167D01*
X1819Y-22406D01*
X1945Y-22632D01*
X2086Y-22857D01*
X2255Y-23055D01*
X2270Y-23069D01*
X2298Y-23097D01*
X2354Y-23153D01*
X2425Y-23210D01*
X2523Y-23294D01*
X2636Y-23379D01*
X2763Y-23463D01*
X2918Y-23562D01*
X3073Y-23661D01*
X3256Y-23745D01*
X3454Y-23830D01*
X3665Y-23914D01*
X3905Y-23971D01*
X4144Y-24027D01*
X4398Y-24056D01*
X4666Y-24070D01*
X4793D01*
X4920Y-24056D01*
X5089Y-24041D01*
X5300Y-24013D01*
X5512Y-23957D01*
X5752Y-23900D01*
X5977Y-23816D01*
X5949Y-23802D01*
X5878Y-23745D01*
X5752Y-23675D01*
X5597Y-23590D01*
X5399Y-23506D01*
X5188Y-23407D01*
X4948Y-23323D01*
X4694Y-23252D01*
X5019Y-22322D01*
X5033D01*
X5075Y-22336D01*
X5131Y-22350D01*
X5202Y-22378D01*
X5300Y-22406D01*
X5413Y-22448D01*
X5667Y-22547D01*
X5963Y-22688D01*
X6273Y-22843D01*
X6569Y-23026D01*
X6865Y-23252D01*
X6879Y-23238D01*
X6922Y-23210D01*
X6978Y-23139D01*
X7049Y-23055D01*
X7133Y-22942D01*
X7232Y-22815D01*
X7330Y-22660D01*
X7443Y-22477D01*
X7542Y-22265D01*
X7641Y-22025D01*
X7739Y-21772D01*
X7824Y-21504D01*
X7908Y-21194D01*
X7965Y-20870D01*
X7993Y-20517D01*
X8007Y-20136D01*
Y-20122D01*
Y-20080D01*
Y-20024D01*
Y-19939D01*
X7993Y-19826D01*
Y-19714D01*
X7979Y-19573D01*
X7951Y-19432D01*
X7908Y-19108D01*
X7838Y-18755D01*
X7739Y-18403D01*
X7598Y-18064D01*
Y-18050D01*
X7584Y-18022D01*
X7556Y-17980D01*
X7528Y-17923D01*
X7429Y-17754D01*
X7302Y-17557D01*
X7133Y-17331D01*
X6922Y-17106D01*
X6682Y-16880D01*
X6414Y-16683D01*
X6400D01*
X6386Y-16655D01*
X6344Y-16640D01*
X6273Y-16598D01*
X6203Y-16570D01*
X6118Y-16528D01*
X5907Y-16429D01*
X5653Y-16344D01*
X5357Y-16260D01*
X5019Y-16204D01*
X4666Y-16189D01*
D02*
G37*
%LPD*%
D10*
X0Y450000D02*
X1000000D01*
Y0D02*
Y450000D01*
X0Y0D02*
X1000000D01*
X0D02*
Y450000D01*
M02*
