G04*
G04 #@! TF.GenerationSoftware,Altium Limited,Altium Designer,26.1.1 (7)*
G04*
G04 Layer_Color=32768*
%FSLAX44Y44*%
%MOMM*%
G71*
G04*
G04 #@! TF.SameCoordinates,A118C6E1-3479-42CE-8D72-1BDF69DDE12E*
G04*
G04*
G04 #@! TF.FilePolarity,Positive*
G04*
G01*
G75*
%ADD10C,0.2000*%
D10*
X734000Y379000D02*
X847000D01*
X734000Y271000D02*
Y379000D01*
Y271000D02*
X847000D01*
Y379000D01*
X735464Y228000D02*
X786526D01*
X735464D02*
Y267000D01*
X786526D01*
Y228000D02*
Y267000D01*
X607964Y228000D02*
X659026D01*
X607964D02*
Y267000D01*
X659026D01*
Y228000D02*
Y267000D01*
X424250Y222000D02*
X440750D01*
Y253000D01*
X424250D02*
X440750D01*
X424250Y222000D02*
Y253000D01*
Y293000D02*
X440750D01*
X424250Y262000D02*
Y293000D01*
Y262000D02*
X440750D01*
Y293000D01*
X662000Y151750D02*
X693000D01*
X662000D02*
Y168250D01*
X693000D01*
Y151750D02*
Y168250D01*
X799500Y151750D02*
Y168250D01*
Y151750D02*
X830500D01*
Y168250D01*
X799500D02*
X830500D01*
X570531Y228000D02*
Y267000D01*
X519469D02*
X570531D01*
X519469Y228000D02*
Y267000D01*
Y228000D02*
X570531D01*
M02*
