G04*
G04 #@! TF.GenerationSoftware,Altium Limited,Altium Designer,26.1.1 (7)*
G04*
G04 Layer_Color=32768*
%FSLAX44Y44*%
%MOMM*%
G71*
G04*
G04 #@! TF.SameCoordinates,A118C6E1-3479-42CE-8D72-1BDF69DDE12E*
G04*
G04*
G04 #@! TF.FilePolarity,Positive*
G04*
G01*
G75*
%ADD40C,0.1000*%
%ADD41C,0.0500*%
D40*
X132500Y330000D02*
X142500D01*
X137500Y325000D02*
Y335000D01*
X325000Y332500D02*
X335000D01*
X330000Y327500D02*
Y337500D01*
X230000Y322500D02*
Y332500D01*
X225000Y327500D02*
X235000D01*
X297500D02*
X307500D01*
X302500Y322500D02*
Y332500D01*
X155000Y325000D02*
X165000D01*
X160000Y320000D02*
Y330000D01*
X620500Y215500D02*
X630500D01*
X625500Y210500D02*
Y220500D01*
X620500Y195500D02*
X630500D01*
X625500Y190500D02*
Y200500D01*
X682500Y210500D02*
X692500D01*
X687500Y205500D02*
Y215500D01*
X692500Y180500D02*
X702500D01*
X697500Y175500D02*
Y185500D01*
X682500Y248000D02*
X692500D01*
X687500Y243000D02*
Y253000D01*
X707500Y243000D02*
Y253000D01*
X702500Y248000D02*
X712500D01*
X754000Y211500D02*
Y221500D01*
X749000Y216500D02*
X759000D01*
X749000Y196500D02*
X759000D01*
X754000Y191500D02*
Y201500D01*
X800000Y210000D02*
X810000D01*
X805000Y205000D02*
Y215000D01*
X825000Y242500D02*
Y252500D01*
X820000Y247500D02*
X830000D01*
X800000D02*
X810000D01*
X805000Y242500D02*
Y252500D01*
X810000Y180000D02*
X820000D01*
X815000Y175000D02*
Y185000D01*
X567500Y275000D02*
Y285000D01*
X562500Y280000D02*
X572500D01*
X567500Y295000D02*
Y305000D01*
X562500Y300000D02*
X572500D01*
X455000Y247500D02*
X465000D01*
X460000Y242500D02*
Y252500D01*
X580000Y247500D02*
X590000D01*
X585000Y242500D02*
Y252500D01*
X455000Y267500D02*
X465000D01*
X460000Y262500D02*
Y272500D01*
X497500Y242500D02*
Y252500D01*
X492500Y247500D02*
X502500D01*
X497500Y262500D02*
Y272500D01*
X492500Y267500D02*
X502500D01*
X533700Y202500D02*
Y212500D01*
X528700Y207500D02*
X538700D01*
X549650D02*
X559650D01*
X554650Y202500D02*
Y212500D01*
X502500Y217500D02*
X512500D01*
X507500Y212500D02*
Y222500D01*
D41*
X126000Y306500D02*
Y353500D01*
X149000Y306500D02*
Y353500D01*
X126000Y306500D02*
X149000D01*
X126000Y353500D02*
X149000D01*
X318500Y309000D02*
Y356000D01*
X341500Y309000D02*
Y356000D01*
X318500Y309000D02*
X341500D01*
X318500Y356000D02*
X341500D01*
X176000Y310500D02*
X284000D01*
X176000Y359100D02*
X284000D01*
Y310500D02*
Y359100D01*
X176000Y310500D02*
Y359100D01*
X311644Y309466D02*
Y345534D01*
X293356Y309466D02*
X311644D01*
X293356Y345534D02*
X311644D01*
X293356Y309466D02*
Y345534D01*
X169144Y306966D02*
Y343034D01*
X150856Y306966D02*
X169144D01*
X150856Y343034D02*
X169144D01*
X150856Y306966D02*
Y343034D01*
X607466Y206356D02*
X643534D01*
X607466D02*
Y224644D01*
X643534Y206356D02*
Y224644D01*
X607466D02*
X643534D01*
X607466Y204644D02*
X643534D01*
X607466Y186356D02*
Y204644D01*
Y186356D02*
X643534D01*
Y204644D01*
X696644Y192466D02*
Y228534D01*
X678356Y192466D02*
X696644D01*
X678356Y228534D02*
X696644D01*
X678356Y192466D02*
Y228534D01*
X679466Y171356D02*
X715534D01*
Y189644D01*
X679466D02*
X715534D01*
X679466Y171356D02*
Y189644D01*
X678356Y229966D02*
Y266034D01*
X696644D01*
X678356Y229966D02*
X696644D01*
Y266034D01*
X698356Y229966D02*
Y266034D01*
Y229966D02*
X716644D01*
Y266034D01*
X698356D02*
X716644D01*
X735966Y225644D02*
X772034D01*
Y207356D02*
Y225644D01*
X735966Y207356D02*
Y225644D01*
Y207356D02*
X772034D01*
X735966Y205644D02*
X772034D01*
X735966Y187356D02*
Y205644D01*
Y187356D02*
X772034D01*
Y205644D01*
X814144Y191966D02*
Y228034D01*
X795856Y191966D02*
X814144D01*
X795856Y228034D02*
X814144D01*
X795856Y191966D02*
Y228034D01*
X815856Y229466D02*
Y265534D01*
Y229466D02*
X834144D01*
Y265534D01*
X815856D02*
X834144D01*
X795856Y229466D02*
Y265534D01*
X814144D01*
X795856Y229466D02*
X814144D01*
Y265534D01*
X796966Y170856D02*
X833034D01*
Y189144D01*
X796966D02*
X833034D01*
X796966Y170856D02*
Y189144D01*
X549466Y270856D02*
Y289144D01*
X585534D01*
Y270856D02*
Y289144D01*
X549466Y270856D02*
X585534D01*
Y290856D02*
Y309144D01*
X549466Y290856D02*
X585534D01*
X549466D02*
Y309144D01*
X585534D01*
X441966Y238356D02*
X478034D01*
X441966D02*
Y256644D01*
X478034Y238356D02*
Y256644D01*
X441966D02*
X478034D01*
X575856Y229466D02*
X594144D01*
X575856D02*
Y265534D01*
X594144D01*
Y229466D02*
Y265534D01*
X441966Y258356D02*
X478034D01*
X441966D02*
Y276644D01*
X478034Y258356D02*
Y276644D01*
X441966D02*
X478034D01*
X515534Y238356D02*
Y256644D01*
X479466Y238356D02*
X515534D01*
X479466D02*
Y256644D01*
X515534D01*
Y258356D02*
Y276644D01*
X479466Y258356D02*
X515534D01*
X479466D02*
Y276644D01*
X515534D01*
X524556Y189466D02*
Y225534D01*
X542844D01*
X524556Y189466D02*
X542844D01*
Y225534D01*
X545506Y189466D02*
X563794D01*
X545506D02*
Y225534D01*
X563794D01*
Y189466D02*
Y225534D01*
X498356Y199466D02*
X516644D01*
X498356D02*
Y235534D01*
X516644D01*
Y199466D02*
Y235534D01*
M02*
